STARTFONT 2.1
FONT -FontForge-Cantarell-Book-R-Normal--32-310-75-75-P-169-ISO10646-1
SIZE 31 75 75
FONTBOUNDINGBOX 49 43 -7 -8
COMMENT "Generated by fontforge, http://fontforge.sourceforge.net"
COMMENT "Copyright 2019 The Cantarell Project Authors https:gitlab.gnome.orgGNOMEcantarell-fonts"
STARTPROPERTIES 39
FOUNDRY "FontForge"
FAMILY_NAME "Cantarell"
WEIGHT_NAME "Book"
SLANT "R"
SETWIDTH_NAME "Normal"
ADD_STYLE_NAME ""
PIXEL_SIZE 32
POINT_SIZE 310
RESOLUTION_X 75
RESOLUTION_Y 75
SPACING "P"
AVERAGE_WIDTH 169
CHARSET_REGISTRY "ISO10646"
CHARSET_ENCODING "1"
FONTNAME_REGISTRY ""
CHARSET_COLLECTIONS "ISO8859-2 ISO8859-5 ISO8859-9 ISO8859-4 ISO10646-1"
FONT_NAME "Cantarell-Regular"
FACE_NAME "Cantarell Regular"
COPYRIGHT "Copyright 2019 The Cantarell Project Authors https:gitlab.gnome.orgGNOMEcantarell-fonts"
FONT_VERSION "0.201"
FONT_ASCENT 26
FONT_DESCENT 6
UNDERLINE_POSITION -4
UNDERLINE_THICKNESS 2
X_HEIGHT 15
CAP_HEIGHT 21
RAW_ASCENT 800
RAW_DESCENT 200
NORM_SPACE 7
RELATIVE_WEIGHT 40
RELATIVE_SETWIDTH 50
SUPERSCRIPT_X 0
SUPERSCRIPT_Y 11
SUPERSCRIPT_SIZE 19
SUBSCRIPT_X 0
SUBSCRIPT_Y 2
SUBSCRIPT_SIZE 19
AVG_LOWERCASE_WIDTH 166
AVG_UPPERCASE_WIDTH 209
ENDPROPERTIES
CHARS 1009
STARTCHAR space
ENCODING 32
SWIDTH 220 0
DWIDTH 7 0
BBX 1 1 0 0
BITMAP
00
ENDCHAR
STARTCHAR exclam
ENCODING 33
SWIDTH 262 0
DWIDTH 8 0
BBX 4 22 2 0
BITMAP
60
60
60
60
60
60
60
60
60
60
60
60
60
60
60
00
00
00
70
F0
F0
70
ENDCHAR
STARTCHAR quotedbl
ENCODING 34
SWIDTH 424 0
DWIDTH 14 0
BBX 8 9 3 13
BITMAP
C7
C7
C7
C7
C7
C7
C7
C3
C3
ENDCHAR
STARTCHAR numbersign
ENCODING 35
SWIDTH 653 0
DWIDTH 21 0
BBX 19 22 1 0
BITMAP
0E0E00
0E0E00
0E0E00
0E0E00
0E0E00
0E0E00
FFFFE0
FFFFE0
0E0E00
0E0E00
0E0E00
0C0E00
0C0E00
0C0E00
FFFFE0
FFFFE0
0C0E00
0C0E00
0C0E00
0C0E00
0C0E00
0C0E00
ENDCHAR
STARTCHAR dollar
ENCODING 36
SWIDTH 580 0
DWIDTH 19 0
BBX 15 30 2 -4
BITMAP
0380
0380
0380
0380
0FF8
3FFC
7818
7000
E000
E000
E000
7000
7800
3F00
1FC0
07F0
00F8
003C
001C
000E
000E
000C
401C
FCF8
FFF0
1FE0
0380
0380
0380
0380
ENDCHAR
STARTCHAR percent
ENCODING 37
SWIDTH 987 0
DWIDTH 32 0
BBX 27 22 2 0
BITMAP
0F003800
3F803000
79C07000
70E06000
60E0E000
E0E1C000
E0618000
E0638000
60E30F00
60E73F80
70C639C0
39CE70C0
3F8C60E0
0F1C60E0
00386060
0030E060
00706060
006060E0
00E070E0
00C079C0
01C03F80
01800F00
ENDCHAR
STARTCHAR ampersand
ENCODING 38
SWIDTH 702 0
DWIDTH 22 0
BBX 18 22 2 0
BITMAP
03E000
0FF800
0E3800
1C1C00
181C00
181C00
181800
187800
1CF000
0FC000
0F0000
3F0000
738080
61C0C0
E0E1C0
E07380
E03F00
E01F00
701F00
783F80
3FF1C0
0FC080
ENDCHAR
STARTCHAR quotesingle
ENCODING 39
SWIDTH 244 0
DWIDTH 8 0
BBX 2 9 3 13
BITMAP
C0
C0
C0
C0
C0
C0
C0
C0
C0
ENDCHAR
STARTCHAR parenleft
ENCODING 40
SWIDTH 301 0
DWIDTH 10 0
BBX 6 30 2 -6
BITMAP
08
1C
1C
38
38
30
70
70
60
E0
E0
E0
E0
E0
E0
E0
E0
E0
E0
E0
E0
60
70
70
30
38
18
1C
0C
08
ENDCHAR
STARTCHAR parenright
ENCODING 41
SWIDTH 301 0
DWIDTH 10 0
BBX 7 29 1 -5
BITMAP
60
E0
70
30
38
38
18
1C
1C
0C
0C
0C
0E
0E
0E
0E
0E
0C
0C
0C
1C
1C
1C
18
38
30
70
60
E0
ENDCHAR
STARTCHAR asterisk
ENCODING 42
SWIDTH 469 0
DWIDTH 15 0
BBX 13 13 1 9
BITMAP
0700
0700
4210
F278
3AE0
0F80
0F80
3BE0
F278
6230
4710
0700
0700
ENDCHAR
STARTCHAR plus
ENCODING 43
SWIDTH 580 0
DWIDTH 19 0
BBX 15 15 2 3
BITMAP
0300
0300
0300
0300
0300
0300
FFFE
FFFE
0300
0300
0300
0300
0300
0300
0300
ENDCHAR
STARTCHAR comma
ENCODING 44
SWIDTH 256 0
DWIDTH 8 0
BBX 4 9 2 -5
BITMAP
70
70
60
60
60
E0
E0
C0
C0
ENDCHAR
STARTCHAR hyphen
ENCODING 45
SWIDTH 424 0
DWIDTH 14 0
BBX 9 2 2 7
BITMAP
FF80
FF80
ENDCHAR
STARTCHAR period
ENCODING 46
SWIDTH 256 0
DWIDTH 8 0
BBX 4 4 2 0
BITMAP
70
F0
F0
60
ENDCHAR
STARTCHAR slash
ENCODING 47
SWIDTH 338 0
DWIDTH 11 0
BBX 9 27 1 -3
BITMAP
0380
0380
0300
0300
0700
0700
0600
0600
0E00
0E00
0C00
0C00
1C00
1C00
1800
1800
3800
3800
3000
3000
7000
7000
6000
6000
E000
E000
C000
ENDCHAR
STARTCHAR zero
ENCODING 48
SWIDTH 614 0
DWIDTH 20 0
BBX 16 22 2 0
BITMAP
07E0
1FF0
3C78
381C
700E
600E
E00E
E006
E007
E007
E007
E007
E007
E007
E006
E006
700E
700E
381C
3E78
1FF0
07C0
ENDCHAR
STARTCHAR one
ENCODING 49
SWIDTH 423 0
DWIDTH 14 0
BBX 10 22 0 0
BITMAP
01C0
07C0
1FC0
7DC0
F1C0
41C0
01C0
01C0
01C0
01C0
01C0
01C0
01C0
01C0
01C0
01C0
01C0
01C0
01C0
01C0
01C0
01C0
ENDCHAR
STARTCHAR two
ENCODING 50
SWIDTH 528 0
DWIDTH 17 0
BBX 15 22 1 0
BITMAP
0FC0
7FF0
F9F8
C038
0038
001C
001C
001C
0018
0038
0030
0070
00E0
01C0
03C0
0780
0F00
1E00
3C00
7800
FFFE
FFFE
ENDCHAR
STARTCHAR three
ENCODING 51
SWIDTH 562 0
DWIDTH 18 0
BBX 15 22 1 0
BITMAP
0FC0
7FF0
78F8
401C
001C
000C
000C
001C
0038
00F8
0FE0
0FF8
003C
000E
000E
0006
0006
000E
000E
FC7C
7FF8
1FE0
ENDCHAR
STARTCHAR four
ENCODING 52
SWIDTH 597 0
DWIDTH 19 0
BBX 17 22 1 0
BITMAP
003800
003800
007800
00F800
01D800
019800
031800
071800
0E1800
0C1800
181800
381800
701800
601800
FFFF80
FFFF80
001800
001800
001800
001800
001800
001800
ENDCHAR
STARTCHAR five
ENCODING 53
SWIDTH 548 0
DWIDTH 18 0
BBX 14 22 2 0
BITMAP
7FF8
7FF8
6000
6000
6000
6000
6000
6000
7F80
7FE0
41F8
0038
001C
001C
001C
001C
001C
001C
8038
F9F0
FFE0
3F80
ENDCHAR
STARTCHAR six
ENCODING 54
SWIDTH 583 0
DWIDTH 19 0
BBX 15 22 2 0
BITMAP
03F8
0FFE
1F1C
3800
7000
7000
6000
E000
E000
C7F0
CFF8
D83C
F00E
E00E
E00E
E00E
E00E
700E
781C
3E78
1FF0
07E0
ENDCHAR
STARTCHAR seven
ENCODING 55
SWIDTH 521 0
DWIDTH 17 0
BBX 15 22 1 0
BITMAP
FFFE
FFFE
000C
001C
0018
0038
0030
0070
0070
00E0
00E0
00C0
01C0
0180
0380
0300
0700
0700
0E00
0E00
1C00
1C00
ENDCHAR
STARTCHAR eight
ENCODING 56
SWIDTH 580 0
DWIDTH 19 0
BBX 15 22 2 0
BITMAP
0FC0
3FF0
7878
701C
601C
E00C
E01C
7018
7838
3EF0
0FC0
1FF0
7878
E01C
E00E
C00E
C00E
E00E
F01E
7C7C
3FF8
0FE0
ENDCHAR
STARTCHAR nine
ENCODING 57
SWIDTH 583 0
DWIDTH 19 0
BBX 15 22 2 0
BITMAP
0FC0
3FF0
7CF8
E038
E01C
C01C
C00C
C00E
E00E
E01E
707E
7FEE
1F8E
000E
000C
001C
001C
0038
0078
F1F0
FFC0
3F00
ENDCHAR
STARTCHAR colon
ENCODING 58
SWIDTH 256 0
DWIDTH 8 0
BBX 4 16 2 0
BITMAP
60
F0
F0
70
00
00
00
00
00
00
00
00
70
F0
F0
60
ENDCHAR
STARTCHAR semicolon
ENCODING 59
SWIDTH 256 0
DWIDTH 8 0
BBX 4 21 2 -5
BITMAP
60
F0
F0
70
00
00
00
00
00
00
00
00
70
60
60
60
E0
E0
E0
C0
C0
ENDCHAR
STARTCHAR less
ENCODING 60
SWIDTH 580 0
DWIDTH 19 0
BBX 13 18 3 1
BITMAP
0008
0018
0078
01F0
03C0
0F00
3E00
F800
E000
E000
F800
3E00
0F00
07C0
01F0
0078
0038
0008
ENDCHAR
STARTCHAR equal
ENCODING 61
SWIDTH 580 0
DWIDTH 19 0
BBX 15 10 2 6
BITMAP
FFFE
FFFE
0000
0000
0000
0000
0000
0000
FFFE
FFFE
ENDCHAR
STARTCHAR greater
ENCODING 62
SWIDTH 580 0
DWIDTH 19 0
BBX 13 17 3 1
BITMAP
C000
F000
F800
3E00
0F00
07C0
01F0
0078
0038
00F0
03E0
0780
1E00
7C00
F000
C000
8000
ENDCHAR
STARTCHAR question
ENCODING 63
SWIDTH 422 0
DWIDTH 14 0
BBX 13 22 0 0
BITMAP
1F80
FFE0
F1F0
0070
0038
0038
0030
0070
00E0
01C0
0380
0300
0700
0600
0600
0600
0000
0000
0700
0F00
0F00
0700
ENDCHAR
STARTCHAR at
ENCODING 64
SWIDTH 1000 0
DWIDTH 32 0
BBX 27 27 3 -5
BITMAP
007FC000
01FFF800
07E07E00
0E000F00
1C000780
38000380
701E61C0
607FE1C0
E0F3E0C0
C0E0E0C0
C1C0E0E0
C1C0E0E0
C180E0C0
C180E0C0
C180E0C0
C1C0E1C0
C1C0E180
E1E1E380
E0FF7F00
607E3C00
70000000
38000000
3C000000
1E000000
0F806000
03FFE000
00FF8000
ENDCHAR
STARTCHAR A
ENCODING 65
SWIDTH 626 0
DWIDTH 20 0
BBX 20 22 0 0
BITMAP
00F000
00F800
00F800
01D800
019C00
039C00
038C00
030E00
070E00
060600
060700
0E0700
0C0300
1FFF80
1FFF80
1801C0
3801C0
3801C0
3000E0
7000E0
7000E0
E00070
ENDCHAR
STARTCHAR B
ENCODING 66
SWIDTH 630 0
DWIDTH 20 0
BBX 16 22 3 0
BITMAP
FFC0
FFF0
E0F8
E03C
E01C
E01C
E01C
E01C
E018
E078
FFF0
FFFC
E01E
E00E
E007
E007
E007
E007
E00E
E03E
FFF8
FFE0
ENDCHAR
STARTCHAR C
ENCODING 67
SWIDTH 645 0
DWIDTH 21 0
BBX 17 22 2 0
BITMAP
01FE00
07FF80
0F8780
3C0000
380000
700000
600000
E00000
E00000
C00000
C00000
C00000
E00000
E00000
E00000
F00000
700000
780000
3E0000
1F8780
07FF80
01FE00
ENDCHAR
STARTCHAR D
ENCODING 68
SWIDTH 711 0
DWIDTH 23 0
BBX 18 22 3 0
BITMAP
FFE000
FFF800
E07E00
E00F00
E00700
E00380
E00380
E001C0
E001C0
E001C0
E001C0
E001C0
E001C0
E001C0
E00180
E00380
E00380
E00700
E00E00
E07C00
FFF800
FFC000
ENDCHAR
STARTCHAR E
ENCODING 69
SWIDTH 584 0
DWIDTH 19 0
BBX 14 22 3 0
BITMAP
FFFC
FFFC
E000
E000
E000
E000
E000
E000
E000
E000
FFF8
FFF8
E000
E000
E000
E000
E000
E000
E000
E000
FFFC
FFFC
ENDCHAR
STARTCHAR F
ENCODING 70
SWIDTH 563 0
DWIDTH 18 0
BBX 14 22 3 0
BITMAP
FFFC
FFFC
E000
E000
E000
E000
E000
E000
E000
E000
FFF8
FFF8
E000
E000
E000
E000
E000
E000
E000
E000
E000
E000
ENDCHAR
STARTCHAR G
ENCODING 71
SWIDTH 715 0
DWIDTH 23 0
BBX 19 22 2 0
BITMAP
01FE00
07FFC0
1F87C0
3C0000
380000
700000
600000
E00000
E00000
C00000
C03FE0
C03FE0
E000E0
E000E0
E000E0
7000E0
7000E0
3800E0
3E00E0
1F87E0
07FF80
01FE00
ENDCHAR
STARTCHAR H
ENCODING 72
SWIDTH 721 0
DWIDTH 23 0
BBX 17 22 3 0
BITMAP
E00380
E00380
E00380
E00380
E00380
E00380
E00380
E00380
E00380
E00380
FFFF80
FFFF80
E00380
E00380
E00380
E00380
E00380
E00380
E00380
E00380
E00380
E00380
ENDCHAR
STARTCHAR I
ENCODING 73
SWIDTH 267 0
DWIDTH 9 0
BBX 3 22 3 0
BITMAP
E0
E0
E0
E0
E0
E0
E0
E0
E0
E0
E0
E0
E0
E0
E0
E0
E0
E0
E0
E0
E0
E0
ENDCHAR
STARTCHAR J
ENCODING 74
SWIDTH 398 0
DWIDTH 13 0
BBX 10 22 0 0
BITMAP
00C0
00C0
00C0
00C0
00C0
00C0
00C0
00C0
00C0
00C0
00C0
00C0
00C0
00C0
00C0
00C0
01C0
01C0
01C0
6780
FF00
3E00
ENDCHAR
STARTCHAR K
ENCODING 75
SWIDTH 608 0
DWIDTH 19 0
BBX 16 22 3 0
BITMAP
E00E
E01C
E038
E070
E0E0
E1E0
E3C0
E780
EF00
EE00
FC00
FE00
EF00
E780
E380
E1C0
E0E0
E070
E038
E01C
E01E
E00F
ENDCHAR
STARTCHAR L
ENCODING 76
SWIDTH 506 0
DWIDTH 16 0
BBX 13 22 3 0
BITMAP
E000
E000
E000
E000
E000
E000
E000
E000
E000
E000
E000
E000
E000
E000
E000
E000
E000
E000
E000
E000
FFF8
FFF8
ENDCHAR
STARTCHAR M
ENCODING 77
SWIDTH 859 0
DWIDTH 27 0
BBX 22 22 3 0
BITMAP
E0001C
E0003C
F0003C
F0007C
F8007C
DC00DC
DC00DC
CE019C
CE019C
C7031C
C7031C
C3861C
C38E1C
C1CC1C
C0DC1C
C0F81C
C0781C
C0701C
C0301C
C0001C
C0001C
C0001C
ENDCHAR
STARTCHAR N
ENCODING 78
SWIDTH 750 0
DWIDTH 24 0
BBX 18 22 3 0
BITMAP
E000C0
F000C0
F800C0
F800C0
DC00C0
CE00C0
CE00C0
C700C0
C380C0
C380C0
C1C0C0
C0E0C0
C060C0
C070C0
C038C0
C01CC0
C01CC0
C00EC0
C007C0
C007C0
C003C0
C001C0
ENDCHAR
STARTCHAR O
ENCODING 79
SWIDTH 760 0
DWIDTH 24 0
BBX 21 22 2 0
BITMAP
01FC00
0FFF00
1F0F80
3C03C0
7801E0
7000E0
E00070
E00070
E00030
C00038
C00038
C00038
E00030
E00030
E00070
E00070
7000E0
7800E0
3C03C0
1F0F80
0FFF00
01F800
ENDCHAR
STARTCHAR P
ENCODING 80
SWIDTH 590 0
DWIDTH 19 0
BBX 15 22 3 0
BITMAP
FFC0
FFF0
E0F8
E03C
E01C
E00E
E00E
E00E
E00C
E00C
E01C
E038
FFF0
FFE0
E000
E000
E000
E000
E000
E000
E000
E000
ENDCHAR
STARTCHAR Q
ENCODING 81
SWIDTH 765 0
DWIDTH 24 0
BBX 21 23 2 -1
BITMAP
01FC00
0FFF00
1F0F80
3C03C0
7801E0
7000E0
E00070
E00070
E00030
C00038
C00038
C00038
E01030
E03830
E01C70
E00E70
7007E0
7803E0
3C03C0
1F0FE0
0FFF70
01F838
000010
ENDCHAR
STARTCHAR R
ENCODING 82
SWIDTH 620 0
DWIDTH 20 0
BBX 16 22 3 0
BITMAP
FFE0
FFF8
E0FC
E01C
E01E
E00E
E00E
E00E
E00C
E01C
E078
FFF0
FFC0
E0E0
E070
E070
E038
E038
E01C
E01E
E00E
E007
ENDCHAR
STARTCHAR S
ENCODING 83
SWIDTH 553 0
DWIDTH 18 0
BBX 16 22 1 0
BITMAP
07F0
1FFE
3E1C
7000
6000
E000
E000
7000
7800
3F00
1FE0
03F8
007C
001E
000E
0007
0007
0006
000E
FC7C
7FF8
0FE0
ENDCHAR
STARTCHAR T
ENCODING 84
SWIDTH 566 0
DWIDTH 18 0
BBX 18 22 0 0
BITMAP
FFFFC0
FFFFC0
00C000
00C000
00C000
00C000
00C000
00C000
00C000
00C000
00C000
00C000
00C000
00C000
00C000
00C000
00C000
00C000
00C000
00C000
00C000
00C000
ENDCHAR
STARTCHAR U
ENCODING 85
SWIDTH 671 0
DWIDTH 21 0
BBX 17 22 2 0
BITMAP
E00180
E00180
E00180
E00180
E00180
E00180
E00180
E00180
E00180
E00180
E00180
E00180
E00180
E00180
E00180
E00380
600380
700300
780700
3F3E00
1FFC00
07F000
ENDCHAR
STARTCHAR V
ENCODING 86
SWIDTH 603 0
DWIDTH 19 0
BBX 19 22 0 0
BITMAP
E000E0
7000C0
7001C0
3001C0
380180
380380
1C0380
1C0300
1C0700
0E0700
0E0600
0E0E00
070C00
070C00
031C00
039800
039800
01B800
01F000
01F000
00E000
00E000
ENDCHAR
STARTCHAR W
ENCODING 87
SWIDTH 980 0
DWIDTH 31 0
BBX 30 22 1 0
BITMAP
E007001C
E007801C
E0078018
E00F8038
700DC038
700DC030
701CC070
3818E070
3818E060
38386060
183070E0
1C3070E0
1C7030C0
1C6038C0
0C6039C0
0EE01980
0EC01D80
06C01F80
06C00F00
07C00F00
03800F00
03800700
ENDCHAR
STARTCHAR X
ENCODING 88
SWIDTH 596 0
DWIDTH 19 0
BBX 19 22 0 0
BITMAP
7001C0
380380
3C0700
1C0700
0E0E00
071C00
071C00
03B800
01F000
01F000
00E000
01F000
01F000
03B800
071C00
061C00
0E0E00
1C0700
180700
380380
7001C0
E001E0
ENDCHAR
STARTCHAR Y
ENCODING 89
SWIDTH 580 0
DWIDTH 19 0
BBX 18 22 0 0
BITMAP
F001C0
700180
380380
380700
1C0700
0E0E00
0E0C00
071C00
073800
03B800
01F000
01E000
00E000
00E000
00E000
00E000
00E000
00E000
00E000
00E000
00E000
00E000
ENDCHAR
STARTCHAR Z
ENCODING 90
SWIDTH 636 0
DWIDTH 20 0
BBX 18 22 1 0
BITMAP
7FFFC0
7FFFC0
000380
000700
000F00
000E00
001C00
003800
007000
007000
00E000
01C000
038000
038000
070000
0E0000
1C0000
380000
380000
700000
FFFFC0
FFFFC0
ENDCHAR
STARTCHAR bracketleft
ENCODING 91
SWIDTH 350 0
DWIDTH 11 0
BBX 7 30 3 -6
BITMAP
FE
FE
E0
E0
E0
E0
E0
E0
E0
E0
E0
E0
E0
E0
E0
E0
E0
E0
E0
E0
E0
E0
E0
E0
E0
E0
E0
E0
FE
FE
ENDCHAR
STARTCHAR backslash
ENCODING 92
SWIDTH 338 0
DWIDTH 11 0
BBX 9 27 1 -3
BITMAP
C000
E000
E000
6000
6000
7000
7000
3000
3000
3800
3800
1800
1800
1C00
1C00
0C00
0C00
0E00
0E00
0600
0600
0700
0700
0300
0300
0380
0380
ENDCHAR
STARTCHAR bracketright
ENCODING 93
SWIDTH 350 0
DWIDTH 11 0
BBX 7 30 1 -6
BITMAP
FE
FE
06
06
06
06
06
06
06
06
06
06
06
06
06
06
06
06
06
06
06
06
06
06
06
06
06
06
FE
FE
ENDCHAR
STARTCHAR asciicircum
ENCODING 94
SWIDTH 580 0
DWIDTH 19 0
BBX 15 14 2 8
BITMAP
0380
0780
07C0
0FC0
0EE0
1CE0
1C70
3870
3038
7038
601C
E01C
C00E
4008
ENDCHAR
STARTCHAR underscore
ENCODING 95
SWIDTH 500 0
DWIDTH 16 0
BBX 16 2 0 -4
BITMAP
FFFF
FFFF
ENDCHAR
STARTCHAR grave
ENCODING 96
SWIDTH 500 0
DWIDTH 16 0
BBX 4 6 6 18
BITMAP
40
C0
E0
60
30
10
ENDCHAR
STARTCHAR a
ENCODING 97
SWIDTH 512 0
DWIDTH 16 0
BBX 13 16 1 0
BITMAP
1FC0
7FE0
78F0
0038
0038
0038
0038
07F8
3FF8
7838
6038
E038
6038
78F8
3FD8
1F98
ENDCHAR
STARTCHAR b
ENCODING 98
SWIDTH 570 0
DWIDTH 18 0
BBX 14 24 3 0
BITMAP
C000
C000
C000
C000
C000
C000
C000
C000
CF80
FFE0
F9F0
E078
C038
C018
C018
C01C
C01C
C018
C018
C038
E070
F8F0
FFE0
CF80
ENDCHAR
STARTCHAR c
ENCODING 99
SWIDTH 467 0
DWIDTH 15 0
BBX 12 16 2 0
BITMAP
0FC0
1FF0
3C60
7000
E000
E000
C000
C000
C000
C000
E000
E000
F000
7820
3FF0
0FC0
ENDCHAR
STARTCHAR d
ENCODING 100
SWIDTH 570 0
DWIDTH 18 0
BBX 14 24 2 0
BITMAP
001C
001C
001C
001C
001C
001C
001C
001C
0F9C
3FFC
7C7C
703C
E01C
E01C
C01C
C01C
C01C
C01C
E01C
E01C
F01C
783C
3FFC
1F8C
ENDCHAR
STARTCHAR e
ENCODING 101
SWIDTH 528 0
DWIDTH 17 0
BBX 13 16 2 0
BITMAP
0F80
3FE0
78F0
7038
E038
E018
C018
FFF8
FFF8
C000
E000
E000
7000
7C10
3FF8
0FE0
ENDCHAR
STARTCHAR f
ENCODING 102
SWIDTH 340 0
DWIDTH 11 0
BBX 10 24 1 0
BITMAP
07C0
0FC0
1C40
3800
3800
3800
3800
3800
FFC0
FFC0
3800
3800
3800
3800
3800
3800
3800
3800
3800
3800
3800
3800
3800
3800
ENDCHAR
STARTCHAR g
ENCODING 103
SWIDTH 570 0
DWIDTH 18 0
BBX 14 23 2 -7
BITMAP
0FCC
3FFC
7C7C
703C
E01C
E01C
C01C
C01C
C01C
C01C
E01C
E01C
701C
7CFC
3FFC
0F9C
0018
0018
0038
0038
30F0
7FE0
1F80
ENDCHAR
STARTCHAR h
ENCODING 104
SWIDTH 567 0
DWIDTH 18 0
BBX 13 24 3 0
BITMAP
C000
C000
C000
C000
C000
C000
C000
C000
CFC0
FFE0
F8F0
E070
C038
C038
C038
C038
C038
C038
C038
C038
C038
C038
C038
C038
ENDCHAR
STARTCHAR i
ENCODING 105
SWIDTH 246 0
DWIDTH 8 0
BBX 4 23 2 0
BITMAP
60
F0
F0
00
00
00
00
60
60
60
60
60
60
60
60
60
60
60
60
60
60
60
60
ENDCHAR
STARTCHAR j
ENCODING 106
SWIDTH 246 0
DWIDTH 8 0
BBX 6 30 0 -7
BITMAP
18
3C
3C
10
00
00
00
18
18
18
18
18
18
18
18
18
18
18
18
18
18
18
18
18
18
38
30
70
E0
C0
ENDCHAR
STARTCHAR k
ENCODING 107
SWIDTH 498 0
DWIDTH 16 0
BBX 12 24 3 0
BITMAP
C000
C000
C000
C000
C000
C000
C000
C000
C070
C0E0
C1C0
C380
C700
CE00
DC00
FC00
DC00
CE00
C700
C380
C3C0
C1E0
C0F0
C070
ENDCHAR
STARTCHAR l
ENCODING 108
SWIDTH 278 0
DWIDTH 9 0
BBX 6 24 3 0
BITMAP
C0
C0
C0
C0
C0
C0
C0
C0
C0
C0
C0
C0
C0
C0
C0
C0
C0
C0
C0
C0
C0
E0
F8
7C
ENDCHAR
STARTCHAR m
ENCODING 109
SWIDTH 886 0
DWIDTH 28 0
BBX 23 16 3 0
BITMAP
CF81F0
FFE7F8
F8FE3C
C0780E
C0300E
C0380E
C0380E
C0380E
C0380E
C0380E
C0380E
C0380E
C0380E
C0380E
C0380E
C0380E
ENDCHAR
STARTCHAR n
ENCODING 110
SWIDTH 567 0
DWIDTH 18 0
BBX 13 16 3 0
BITMAP
CFC0
FFE0
F8F0
C070
C038
C038
C038
C038
C038
C038
C038
C038
C038
C038
C038
C038
ENDCHAR
STARTCHAR o
ENCODING 111
SWIDTH 567 0
DWIDTH 18 0
BBX 14 16 2 0
BITMAP
0FC0
1FF0
7CF8
7038
E01C
E01C
C00C
C00C
C00C
C00C
E00C
E01C
7038
7CF8
3FF0
0FC0
ENDCHAR
STARTCHAR p
ENCODING 112
SWIDTH 571 0
DWIDTH 18 0
BBX 14 23 3 -7
BITMAP
CF80
DFE0
F0F0
C038
C038
C018
C01C
C01C
C01C
C018
C018
C038
E030
F8F0
FFE0
CF80
C000
C000
C000
C000
C000
C000
C000
ENDCHAR
STARTCHAR q
ENCODING 113
SWIDTH 570 0
DWIDTH 18 0
BBX 14 23 2 -7
BITMAP
0FCC
3FFC
7C7C
703C
E01C
E01C
C01C
C01C
C01C
C01C
E01C
E01C
701C
7CFC
3FFC
0F9C
001C
001C
001C
001C
001C
001C
001C
ENDCHAR
STARTCHAR r
ENCODING 114
SWIDTH 377 0
DWIDTH 12 0
BBX 9 16 3 0
BITMAP
C780
DF80
FD00
E000
C000
C000
C000
C000
C000
C000
C000
C000
C000
C000
C000
C000
ENDCHAR
STARTCHAR s
ENCODING 115
SWIDTH 464 0
DWIDTH 15 0
BBX 11 16 2 0
BITMAP
1FC0
7FE0
F040
C000
C000
E000
F800
7F00
1FC0
01E0
00E0
0060
0060
E1E0
FFC0
3F00
ENDCHAR
STARTCHAR t
ENCODING 116
SWIDTH 361 0
DWIDTH 12 0
BBX 10 21 1 0
BITMAP
3800
3800
3800
3800
3800
FF80
FF80
3800
3800
3800
3800
3800
3800
3800
3800
3800
3800
3800
1C00
1F80
07C0
ENDCHAR
STARTCHAR u
ENCODING 117
SWIDTH 558 0
DWIDTH 18 0
BBX 13 16 2 0
BITMAP
E018
E018
E018
E018
E018
E018
E018
E018
E018
E018
E018
E018
7038
78F8
3FF8
1F98
ENDCHAR
STARTCHAR v
ENCODING 118
SWIDTH 480 0
DWIDTH 15 0
BBX 14 16 1 0
BITMAP
C01C
E018
E018
6038
7030
7030
3070
3860
18E0
18C0
1CC0
0DC0
0D80
0F80
0780
0700
ENDCHAR
STARTCHAR w
ENCODING 119
SWIDTH 783 0
DWIDTH 25 0
BBX 23 16 1 0
BITMAP
E03806
E03C06
E07C0E
606C0C
706C0C
706E1C
30C61C
30C618
38C718
198338
198330
1D83B0
0F01F0
0F01E0
0F01E0
0600E0
ENDCHAR
STARTCHAR x
ENCODING 120
SWIDTH 469 0
DWIDTH 15 0
BBX 13 16 1 0
BITMAP
E038
E038
7070
38E0
18C0
1DC0
0F80
0700
0700
0F80
1D80
19C0
38E0
7070
6070
E038
ENDCHAR
STARTCHAR y
ENCODING 121
SWIDTH 480 0
DWIDTH 15 0
BBX 14 23 1 -7
BITMAP
C01C
E018
E018
6038
7030
7070
3070
3860
18E0
18C0
1CC0
0DC0
0F80
0780
0700
0700
0700
0600
0E00
0E00
0C00
1C00
1C00
ENDCHAR
STARTCHAR z
ENCODING 122
SWIDTH 464 0
DWIDTH 15 0
BBX 13 16 1 0
BITMAP
FFF0
FFF0
0070
00E0
01C0
01C0
0380
0700
0E00
0E00
1C00
3800
3800
7000
FFF8
FFF8
ENDCHAR
STARTCHAR braceleft
ENCODING 123
SWIDTH 365 0
DWIDTH 12 0
BBX 9 30 2 -6
BITMAP
0700
0F80
1E00
3800
3800
3800
1800
1800
1800
1800
1C00
1800
3800
7800
E000
F000
F800
3800
1800
1C00
1800
1800
1800
1800
1800
3800
3800
1C00
1F00
0700
ENDCHAR
STARTCHAR bar
ENCODING 124
SWIDTH 261 0
DWIDTH 8 0
BBX 2 29 3 -5
BITMAP
C0
C0
C0
C0
C0
C0
C0
C0
C0
C0
C0
C0
C0
C0
C0
C0
C0
C0
C0
C0
C0
C0
C0
C0
C0
C0
C0
C0
C0
ENDCHAR
STARTCHAR braceright
ENCODING 125
SWIDTH 365 0
DWIDTH 12 0
BBX 9 30 1 -6
BITMAP
F000
F800
3C00
0C00
0C00
0C00
0C00
1C00
1C00
1C00
1C00
1C00
1C00
0F00
0780
0780
0E00
1C00
1C00
1C00
1C00
1C00
1C00
0C00
0C00
0C00
1C00
3C00
F800
E000
ENDCHAR
STARTCHAR asciitilde
ENCODING 126
SWIDTH 580 0
DWIDTH 19 0
BBX 16 5 1 8
BITMAP
1E02
3F83
7FC6
61FE
C0FC
ENDCHAR
STARTCHAR space.dup1
ENCODING 160
SWIDTH 220 0
DWIDTH 7 0
BBX 1 1 0 0
BITMAP
00
ENDCHAR
STARTCHAR exclamdown
ENCODING 161
SWIDTH 262 0
DWIDTH 8 0
BBX 4 23 2 -7
BITMAP
70
F0
F0
70
00
00
00
60
60
60
60
60
60
60
60
60
60
60
60
60
60
60
60
ENDCHAR
STARTCHAR cent
ENCODING 162
SWIDTH 580 0
DWIDTH 19 0
BBX 12 24 3 -4
BITMAP
0380
0380
0380
0380
07E0
1FF0
3C30
7000
7000
6000
E000
E000
E000
E000
E000
7000
7000
3C10
1FF0
0FE0
0380
0380
0380
0380
ENDCHAR
STARTCHAR sterling
ENCODING 163
SWIDTH 580 0
DWIDTH 19 0
BBX 15 22 2 0
BITMAP
01F8
07FC
0F9C
1C00
1800
1800
1800
1800
1800
1800
FFF0
FFF0
1800
1800
1800
1800
1800
3800
3000
E000
FFFE
FFFE
ENDCHAR
STARTCHAR currency
ENCODING 164
SWIDTH 580 0
DWIDTH 19 0
BBX 15 16 2 3
BITMAP
0004
C00E
6FFC
3FF8
3878
7038
701C
601C
601C
701C
7018
7838
3EF0
7FF8
E7CC
C004
ENDCHAR
STARTCHAR yen
ENCODING 165
SWIDTH 580 0
DWIDTH 19 0
BBX 15 22 2 0
BITMAP
E00E
E00C
701C
7018
3838
3870
1C70
0CE0
0EC0
07C0
7FFC
7FFC
0380
0380
0380
0380
7FFC
7FFC
0380
0380
0380
0380
ENDCHAR
STARTCHAR brokenbar
ENCODING 166
SWIDTH 263 0
DWIDTH 8 0
BBX 2 30 3 -6
BITMAP
C0
C0
C0
C0
C0
C0
C0
C0
C0
C0
C0
00
00
00
00
00
00
00
C0
C0
C0
C0
C0
C0
C0
C0
C0
C0
C0
C0
ENDCHAR
STARTCHAR section
ENCODING 167
SWIDTH 550 0
DWIDTH 18 0
BBX 12 24 3 -2
BITMAP
1FC0
3FE0
70E0
E000
E000
E000
F000
7E00
1FC0
73E0
E0F0
E070
E070
F060
7FC0
1FC0
03E0
00F0
0070
0070
0070
E1E0
FFC0
3F00
ENDCHAR
STARTCHAR dieresis
ENCODING 168
SWIDTH 500 0
DWIDTH 16 0
BBX 10 4 3 19
BITMAP
4080
F3C0
F3C0
E1C0
ENDCHAR
STARTCHAR copyright
ENCODING 169
SWIDTH 881 0
DWIDTH 28 0
BBX 23 22 3 0
BITMAP
01FE00
07FF80
0F03E0
1C00F0
300038
60FE18
61FE1C
C3800C
C7000C
C7000C
C60006
C60006
C60006
C7000C
C7000C
E3C20C
61FE18
707E38
380070
1F01E0
07FF80
01FE00
ENDCHAR
STARTCHAR ordfeminine
ENCODING 170
SWIDTH 429 0
DWIDTH 14 0
BBX 9 12 2 12
BITMAP
7E00
FF00
8380
0180
0180
1F80
7980
C180
C180
C180
FF80
7C80
ENDCHAR
STARTCHAR guillemotleft
ENCODING 171
SWIDTH 545 0
DWIDTH 17 0
BBX 14 14 2 1
BITMAP
0E1C
0C38
1C38
3870
70E0
70C0
E1C0
E1C0
E1C0
70E0
3870
3870
1C38
0E1C
ENDCHAR
STARTCHAR logicalnot
ENCODING 172
SWIDTH 580 0
DWIDTH 19 0
BBX 15 9 2 3
BITMAP
FFFE
FFFE
000E
000E
000E
000E
000E
000E
000E
ENDCHAR
STARTCHAR hyphen.dup2
ENCODING 173
SWIDTH 424 0
DWIDTH 14 0
BBX 9 2 2 7
BITMAP
FF80
FF80
ENDCHAR
STARTCHAR registered
ENCODING 174
SWIDTH 655 0
DWIDTH 21 0
BBX 15 15 3 9
BITMAP
07C0
1FF0
3018
67CC
C7E6
C466
8462
87C2
87C2
C466
C466
647C
7018
1EF0
0FC0
ENDCHAR
STARTCHAR macron
ENCODING 175
SWIDTH 500 0
DWIDTH 16 0
BBX 10 2 3 19
BITMAP
FFC0
FFC0
ENDCHAR
STARTCHAR degree
ENCODING 176
SWIDTH 481 0
DWIDTH 15 0
BBX 9 8 3 14
BITMAP
3E00
7F00
E380
C180
C180
E380
7F00
3E00
ENDCHAR
STARTCHAR plusminus
ENCODING 177
SWIDTH 580 0
DWIDTH 19 0
BBX 15 19 2 1
BITMAP
0300
0300
0300
0300
0300
0300
0300
FFFE
FFFE
0300
0300
0300
0300
0300
0300
0000
0000
FFFE
FFFE
ENDCHAR
STARTCHAR uni00B2
ENCODING 178
SWIDTH 390 0
DWIDTH 12 0
BBX 10 13 1 12
BITMAP
3E00
FF80
4380
0180
0180
0180
0380
0700
0E00
1C00
3800
7FC0
7FC0
ENDCHAR
STARTCHAR uni00B3
ENCODING 179
SWIDTH 405 0
DWIDTH 13 0
BBX 10 13 1 12
BITMAP
3F00
7F80
4180
01C0
0180
1F00
1F80
01C0
00C0
00C0
41C0
FF80
7F00
ENDCHAR
STARTCHAR acute
ENCODING 180
SWIDTH 500 0
DWIDTH 16 0
BBX 4 6 6 18
BITMAP
20
30
70
60
C0
80
ENDCHAR
STARTCHAR uni00B5
ENCODING 181
SWIDTH 575 0
DWIDTH 18 0
BBX 13 23 3 -7
BITMAP
C038
C038
C038
C038
C038
C038
C038
C038
C038
C038
C038
C038
E078
F9F8
FFF8
CF18
C000
C000
C000
C000
C000
C000
C000
ENDCHAR
STARTCHAR paragraph
ENCODING 182
SWIDTH 660 0
DWIDTH 21 0
BBX 17 28 1 -6
BITMAP
07FF80
1FFF80
3FC180
7FC180
7FC180
FFC180
FFC180
FFC180
FFC180
7FC180
7FC180
3FC180
1FC180
07C180
01C180
01C180
01C180
01C180
01C180
01C180
01C180
01C180
01C180
01C180
01C180
01C180
01C180
01C180
ENDCHAR
STARTCHAR periodcentered
ENCODING 183
SWIDTH 256 0
DWIDTH 8 0
BBX 4 4 2 6
BITMAP
70
F0
F0
60
ENDCHAR
STARTCHAR cedilla
ENCODING 184
SWIDTH 500 0
DWIDTH 16 0
BBX 7 8 4 -8
BITMAP
30
30
3C
3E
06
06
FE
7C
ENDCHAR
STARTCHAR uni00B9
ENCODING 185
SWIDTH 278 0
DWIDTH 9 0
BBX 7 13 0 12
BITMAP
0E
3E
FE
6E
0E
0E
0E
0E
0E
0E
0E
0E
0E
ENDCHAR
STARTCHAR ordmasculine
ENCODING 186
SWIDTH 461 0
DWIDTH 15 0
BBX 11 12 2 12
BITMAP
1F00
7F80
61C0
C0E0
C060
C060
C060
C060
E0E0
61C0
7F80
1F00
ENDCHAR
STARTCHAR guillemotright
ENCODING 187
SWIDTH 545 0
DWIDTH 17 0
BBX 15 14 1 1
BITMAP
E1C0
70E0
3870
3870
1C38
0E1C
071C
070E
0E1C
0E18
1C38
3870
3060
70E0
ENDCHAR
STARTCHAR onequarter
ENCODING 188
SWIDTH 868 0
DWIDTH 28 0
BBX 27 22 0 0
BITMAP
0000C000
1E01C000
7E018000
FE038000
4E030000
0E070000
0E060000
0E0E0000
0E0C0000
0E1C0700
0E180700
0E380F00
0E301B00
0E703300
00603300
00E06300
00C0C300
01C1FFE0
0181FFE0
03000300
03000300
06000300
ENDCHAR
STARTCHAR onehalf
ENCODING 189
SWIDTH 838 0
DWIDTH 27 0
BBX 25 22 0 0
BITMAP
0000C000
0E01C000
3E018000
FE038000
4E030000
0E070000
0E060000
0E0E0000
0E0C0000
0E1C7E00
0E18FF00
0E388700
0E300380
0E700380
00600300
00E00700
00C00E00
01C01C00
01803800
03007000
0300FF80
0600FF80
ENDCHAR
STARTCHAR threequarters
ENCODING 190
SWIDTH 995 0
DWIDTH 32 0
BBX 30 22 1 0
BITMAP
3E001800
7F803800
43803000
01C07000
01806000
0380E000
1F00C000
1F81C000
01C18000
00C38060
00C300E0
41C701E0
FF860360
3F0E0360
000C0660
001C0C60
00181860
00381FFC
00303FFC
00700060
00600060
00E00060
ENDCHAR
STARTCHAR questiondown
ENCODING 191
SWIDTH 422 0
DWIDTH 14 0
BBX 12 23 1 -7
BITMAP
0700
0F00
0F00
0700
0000
0000
0000
0600
0600
0600
0E00
0E00
1C00
3800
7000
E000
E000
E000
E000
E000
78F0
3FF0
1FC0
ENDCHAR
STARTCHAR Agrave
ENCODING 192
SWIDTH 626 0
DWIDTH 20 0
BBX 20 29 0 0
BITMAP
030000
038000
03C000
00E000
006000
000000
000000
00F000
00F800
00F800
01D800
019C00
039C00
038C00
030E00
070E00
060600
060700
0E0700
0C0300
1FFF80
1FFF80
1801C0
3801C0
3801C0
3000E0
7000E0
7000E0
E00070
ENDCHAR
STARTCHAR Aacute
ENCODING 193
SWIDTH 626 0
DWIDTH 20 0
BBX 20 29 0 0
BITMAP
000C00
001C00
003C00
007000
006000
000000
000000
00F000
00F800
00F800
01D800
019C00
039C00
038C00
030E00
070E00
060600
060700
0E0700
0C0300
1FFF80
1FFF80
1801C0
3801C0
3801C0
3000E0
7000E0
7000E0
E00070
ENDCHAR
STARTCHAR Acircumflex
ENCODING 194
SWIDTH 626 0
DWIDTH 20 0
BBX 20 29 0 0
BITMAP
007000
00F800
019C00
030E00
020400
000000
000000
00F000
00F800
00F800
01D800
019C00
039C00
038C00
030E00
070E00
060600
060700
0E0700
0C0300
1FFF80
1FFF80
1801C0
3801C0
3801C0
3000E0
7000E0
7000E0
E00070
ENDCHAR
STARTCHAR Atilde
ENCODING 195
SWIDTH 626 0
DWIDTH 20 0
BBX 20 28 0 0
BITMAP
038200
07E600
067E00
041C00
000000
000000
00F000
00F800
00F800
01D800
019C00
039C00
038C00
030E00
070E00
060600
060700
0E0700
0C0300
1FFF80
1FFF80
1801C0
3801C0
3801C0
3000E0
7000E0
7000E0
E00070
ENDCHAR
STARTCHAR Adieresis
ENCODING 196
SWIDTH 626 0
DWIDTH 20 0
BBX 20 28 0 0
BITMAP
070C00
079E00
071E00
020400
000000
000000
00F000
00F800
00F800
01D800
019C00
039C00
038C00
030E00
070E00
060600
060700
0E0700
0C0300
1FFF80
1FFF80
1801C0
3801C0
3801C0
3000E0
7000E0
7000E0
E00070
ENDCHAR
STARTCHAR Aring
ENCODING 197
SWIDTH 626 0
DWIDTH 20 0
BBX 20 30 0 0
BITMAP
00F000
01F800
019800
018800
019800
01F800
00F000
000000
00F000
00F800
00F800
01D800
019C00
039C00
038C00
030E00
070E00
060600
060700
0E0700
0C0300
1FFF80
1FFF80
1801C0
3801C0
3801C0
3000E0
7000E0
7000E0
E00070
ENDCHAR
STARTCHAR AE
ENCODING 198
SWIDTH 919 0
DWIDTH 29 0
BBX 28 22 0 0
BITMAP
0007FFF0
000FFFF0
001F0000
001B0000
003B0000
00330000
00730000
00E30000
00C30000
01C30000
0383FFE0
0383FFE0
07030000
07FF0000
0FFF0000
1FFF0000
1C030000
38030000
30030000
70030000
E003FFF0
E003FFF0
ENDCHAR
STARTCHAR Ccedilla
ENCODING 199
SWIDTH 645 0
DWIDTH 21 0
BBX 17 30 2 -8
BITMAP
01FE00
07FF80
0F8780
3C0000
380000
700000
600000
E00000
E00000
C00000
C00000
C00000
E00000
E00000
E00000
F00000
700000
780000
3E0000
1F8780
0FFF80
01FE00
004000
00C000
00F800
001C00
001C00
001C00
01F800
00F000
ENDCHAR
STARTCHAR Egrave
ENCODING 200
SWIDTH 584 0
DWIDTH 19 0
BBX 14 29 3 0
BITMAP
0800
1C00
1E00
0700
0300
0000
0000
FFFC
FFFC
E000
E000
E000
E000
E000
E000
E000
E000
FFF8
FFF8
E000
E000
E000
E000
E000
E000
E000
E000
FFFC
FFFC
ENDCHAR
STARTCHAR Eacute
ENCODING 201
SWIDTH 584 0
DWIDTH 19 0
BBX 14 29 3 0
BITMAP
0020
0070
01E0
03C0
0300
0000
0000
FFFC
FFFC
E000
E000
E000
E000
E000
E000
E000
E000
FFF8
FFF8
E000
E000
E000
E000
E000
E000
E000
E000
FFFC
FFFC
ENDCHAR
STARTCHAR Ecircumflex
ENCODING 202
SWIDTH 584 0
DWIDTH 19 0
BBX 14 29 3 0
BITMAP
0380
07C0
0EE0
1C70
1020
0000
0000
FFFC
FFFC
E000
E000
E000
E000
E000
E000
E000
E000
FFF8
FFF8
E000
E000
E000
E000
E000
E000
E000
E000
FFFC
FFFC
ENDCHAR
STARTCHAR Edieresis
ENCODING 203
SWIDTH 584 0
DWIDTH 19 0
BBX 14 28 3 0
BITMAP
1870
3C70
3C70
0020
0000
0000
FFFC
FFFC
E000
E000
E000
E000
E000
E000
E000
E000
FFF8
FFF8
E000
E000
E000
E000
E000
E000
E000
E000
FFFC
FFFC
ENDCHAR
STARTCHAR Igrave
ENCODING 204
SWIDTH 267 0
DWIDTH 9 0
BBX 6 29 0 0
BITMAP
40
E0
F0
38
18
00
00
1C
1C
1C
1C
1C
1C
1C
1C
1C
1C
1C
1C
1C
1C
1C
1C
1C
1C
1C
1C
1C
1C
ENDCHAR
STARTCHAR Iacute
ENCODING 205
SWIDTH 267 0
DWIDTH 9 0
BBX 6 29 3 0
BITMAP
08
1C
78
F0
C0
00
00
E0
E0
E0
E0
E0
E0
E0
E0
E0
E0
E0
E0
E0
E0
E0
E0
E0
E0
E0
E0
E0
E0
ENDCHAR
STARTCHAR Icircumflex
ENCODING 206
SWIDTH 267 0
DWIDTH 9 0
BBX 9 29 0 0
BITMAP
1C00
3E00
7700
E380
C100
0000
0000
1C00
1C00
1C00
1C00
1C00
1C00
1C00
1C00
1C00
1C00
1C00
1C00
1C00
1C00
1C00
1C00
1C00
1C00
1C00
1C00
1C00
1C00
ENDCHAR
STARTCHAR Idieresis
ENCODING 207
SWIDTH 267 0
DWIDTH 9 0
BBX 10 28 -1 0
BITMAP
61C0
F1C0
F1C0
0080
0000
0000
0E00
0E00
0E00
0E00
0E00
0E00
0E00
0E00
0E00
0E00
0E00
0E00
0E00
0E00
0E00
0E00
0E00
0E00
0E00
0E00
0E00
0E00
ENDCHAR
STARTCHAR Eth
ENCODING 208
SWIDTH 711 0
DWIDTH 23 0
BBX 21 22 0 0
BITMAP
1FFC00
1FFF00
1C0FC0
1C01E0
1C00E0
1C0070
1C0070
1C0038
1C0038
1C0038
FFC038
FFC038
1C0038
1C0038
1C0030
1C0070
1C0070
1C00E0
1C01C0
1C0F80
1FFF00
1FF800
ENDCHAR
STARTCHAR Ntilde
ENCODING 209
SWIDTH 750 0
DWIDTH 24 0
BBX 18 28 3 0
BITMAP
070400
0FCC00
0CFC00
083800
000000
000000
E000C0
F000C0
F800C0
F800C0
DC00C0
CE00C0
CE00C0
C700C0
C380C0
C380C0
C1C0C0
C0E0C0
C060C0
C070C0
C038C0
C01CC0
C01CC0
C00EC0
C007C0
C007C0
C003C0
C001C0
ENDCHAR
STARTCHAR Ograve
ENCODING 210
SWIDTH 760 0
DWIDTH 24 0
BBX 21 28 2 0
BITMAP
038000
03C000
01E000
007000
002000
000000
01FC00
0FFF00
1F0F80
3C03C0
7801E0
7000E0
E00070
E00070
E00030
C00038
C00038
C00038
E00030
E00030
E00070
E00070
7000E0
7800E0
3C03C0
1F0F80
0FFF00
01F800
ENDCHAR
STARTCHAR Oacute
ENCODING 211
SWIDTH 760 0
DWIDTH 24 0
BBX 21 29 2 0
BITMAP
000400
000C00
001C00
003800
006000
004000
000000
01FC00
0FFF00
1F0F80
3C03C0
7801E0
7000E0
E00070
E00070
E00030
C00038
C00038
C00038
E00030
E00030
E00070
E00070
7000E0
7800E0
3C03C0
1F0F80
0FFF00
01F800
ENDCHAR
STARTCHAR Ocircumflex
ENCODING 212
SWIDTH 760 0
DWIDTH 24 0
BBX 21 29 2 0
BITMAP
007000
00F800
01DC00
038E00
030600
000000
000000
01FC00
0FFF00
1F0F80
3C03C0
7801E0
7000E0
E00070
E00070
E00030
C00038
C00038
C00038
E00030
E00030
E00070
E00070
7000E0
7800E0
3C03C0
1F0F80
0FFF00
01F800
ENDCHAR
STARTCHAR Otilde
ENCODING 213
SWIDTH 760 0
DWIDTH 24 0
BBX 21 28 2 0
BITMAP
018200
07E700
067E00
041C00
000000
000000
01FC00
0FFF00
1F0F80
3C03C0
7801E0
7000E0
E00070
E00070
E00030
C00038
C00038
C00038
E00030
E00030
E00070
E00070
7000E0
7800E0
3C03C0
1F0F80
0FFF00
01F800
ENDCHAR
STARTCHAR Odieresis
ENCODING 214
SWIDTH 760 0
DWIDTH 24 0
BBX 21 28 2 0
BITMAP
070E00
079E00
078E00
020400
000000
000000
01FC00
0FFF00
1F0F80
3C03C0
7801E0
7000E0
E00070
E00070
E00030
C00038
C00038
C00038
E00030
E00030
E00070
E00070
7000E0
7800E0
3C03C0
1F0F80
0FFF00
01F800
ENDCHAR
STARTCHAR multiply
ENCODING 215
SWIDTH 580 0
DWIDTH 19 0
BBX 12 12 3 5
BITMAP
4020
E070
70F0
39E0
1FC0
0F80
0F00
1F80
3DC0
78E0
F070
6030
ENDCHAR
STARTCHAR Oslash
ENCODING 216
SWIDTH 760 0
DWIDTH 24 0
BBX 21 25 2 -1
BITMAP
000040
0000E0
01FCC0
0FFFC0
1F1F80
3C03C0
7807E0
7006E0
E00C70
E01C70
E01830
C03038
C07038
C06038
E0C030
E1C030
E18070
E30070
7700E0
7E00E0
3C03C0
1F8F80
3FFF00
31F800
300000
ENDCHAR
STARTCHAR Ugrave
ENCODING 217
SWIDTH 671 0
DWIDTH 21 0
BBX 17 29 2 0
BITMAP
040000
0E0000
078000
03C000
00C000
000000
000000
E00180
E00180
E00180
E00180
E00180
E00180
E00180
E00180
E00180
E00180
E00180
E00180
E00180
E00180
E00180
E00380
600380
700300
780700
3F3E00
1FFC00
07F000
ENDCHAR
STARTCHAR Uacute
ENCODING 218
SWIDTH 671 0
DWIDTH 21 0
BBX 17 29 2 0
BITMAP
001000
003800
007800
00E000
01C000
000000
000000
E00180
E00180
E00180
E00180
E00180
E00180
E00180
E00180
E00180
E00180
E00180
E00180
E00180
E00180
E00180
E00380
600380
700300
780700
3F3E00
1FFC00
07F000
ENDCHAR
STARTCHAR Ucircumflex
ENCODING 219
SWIDTH 671 0
DWIDTH 21 0
BBX 17 29 2 0
BITMAP
01C000
01E000
037000
063800
040800
000000
000000
E00180
E00180
E00180
E00180
E00180
E00180
E00180
E00180
E00180
E00180
E00180
E00180
E00180
E00180
E00180
E00380
600380
700300
780700
3F3E00
1FFC00
07F000
ENDCHAR
STARTCHAR Udieresis
ENCODING 220
SWIDTH 671 0
DWIDTH 21 0
BBX 17 28 2 0
BITMAP
0E3800
0E3C00
0E3C00
041000
000000
000000
E00180
E00180
E00180
E00180
E00180
E00180
E00180
E00180
E00180
E00180
E00180
E00180
E00180
E00180
E00180
E00380
600380
700300
780700
3F3E00
1FFC00
07F000
ENDCHAR
STARTCHAR Yacute
ENCODING 221
SWIDTH 580 0
DWIDTH 19 0
BBX 18 29 0 0
BITMAP
000800
001C00
003800
007000
00C000
000000
000000
F001C0
700180
380380
380700
1C0700
0E0E00
0E0C00
071C00
073800
03B800
01F000
01E000
00E000
00E000
00E000
00E000
00E000
00E000
00E000
00E000
00E000
00E000
ENDCHAR
STARTCHAR Thorn
ENCODING 222
SWIDTH 590 0
DWIDTH 19 0
BBX 15 22 3 0
BITMAP
E000
E000
E000
FFC0
FFF0
FFF8
E03C
E01C
E00C
E00E
E00E
E00E
E00C
E01C
E038
FFF0
FFE0
E000
E000
E000
E000
E000
ENDCHAR
STARTCHAR germandbls
ENCODING 223
SWIDTH 595 0
DWIDTH 19 0
BBX 15 24 3 0
BITMAP
1F80
3FE0
71F0
E070
C030
C030
C030
C070
C0E0
C1C0
C180
C380
C380
C1C0
C1F0
C078
C01C
C00E
C00E
C00E
C00E
C63C
CFF8
C3E0
ENDCHAR
STARTCHAR agrave
ENCODING 224
SWIDTH 512 0
DWIDTH 16 0
BBX 13 24 1 0
BITMAP
0800
1800
1C00
0E00
0600
0200
0000
0000
1FC0
7FE0
78F0
0038
0038
0038
0038
07F8
3FF8
7838
6038
E038
6038
78F8
3FD8
1F98
ENDCHAR
STARTCHAR aacute
ENCODING 225
SWIDTH 512 0
DWIDTH 16 0
BBX 13 24 1 0
BITMAP
0040
00E0
00E0
01C0
0380
0300
0000
0000
1FC0
7FE0
78F0
0038
0038
0038
0038
07F8
3FF8
7838
6038
E038
6038
78F8
3FD8
1F98
ENDCHAR
STARTCHAR acircumflex
ENCODING 226
SWIDTH 512 0
DWIDTH 16 0
BBX 13 24 1 0
BITMAP
0300
0780
0FC0
1CE0
1870
1020
0000
0000
1FC0
7FE0
78F0
0038
0038
0038
0038
07F8
3FF8
7838
6038
E038
6038
78F8
3FD8
1F98
ENDCHAR
STARTCHAR atilde
ENCODING 227
SWIDTH 512 0
DWIDTH 16 0
BBX 13 23 1 0
BITMAP
0400
1F30
3FF0
33E0
0000
0000
0000
1FC0
7FE0
78F0
0038
0038
0038
0038
07F8
3FF8
7838
6038
E038
6038
78F8
3FD8
1F98
ENDCHAR
STARTCHAR adieresis
ENCODING 228
SWIDTH 512 0
DWIDTH 16 0
BBX 13 23 1 0
BITMAP
3860
38F0
38F0
1020
0000
0000
0000
1FC0
7FE0
78F0
0038
0038
0038
0038
07F8
3FF8
7838
6038
E038
6038
78F8
3FD8
1F98
ENDCHAR
STARTCHAR aring
ENCODING 229
SWIDTH 512 0
DWIDTH 16 0
BBX 13 25 1 0
BITMAP
0700
0FC0
0CC0
08C0
0CC0
0FC0
0780
0000
0000
1FC0
7FE0
78F0
0038
0038
0038
0038
07F8
3FF8
7838
6038
E038
6038
78F8
3FD8
1F98
ENDCHAR
STARTCHAR ae
ENCODING 230
SWIDTH 834 0
DWIDTH 27 0
BBX 23 16 2 0
BITMAP
1F83E0
FFCFF8
F1FE3C
80780C
00700E
00300E
003006
07FFFE
3FFFFE
F07000
C03000
C03800
C07C00
F1DE0C
7F8FFC
3E03F8
ENDCHAR
STARTCHAR ccedilla
ENCODING 231
SWIDTH 467 0
DWIDTH 15 0
BBX 12 24 2 -8
BITMAP
0FC0
1FF0
3C60
7000
E000
E000
C000
C000
C000
C000
E000
E000
F000
7820
3FF0
1FC0
0600
0400
0F80
01C0
00C0
01C0
1F80
0F00
ENDCHAR
STARTCHAR egrave
ENCODING 232
SWIDTH 528 0
DWIDTH 17 0
BBX 13 24 2 0
BITMAP
1000
1800
1C00
0C00
0600
0200
0000
0000
0F80
3FE0
78F0
7038
E038
E018
C018
FFF8
FFF8
C000
E000
E000
7000
7C10
3FF8
0FE0
ENDCHAR
STARTCHAR eacute
ENCODING 233
SWIDTH 528 0
DWIDTH 17 0
BBX 13 24 2 0
BITMAP
0040
00E0
01C0
0180
0300
0200
0000
0000
0F80
3FE0
78F0
7038
E038
E018
C018
FFF8
FFF8
C000
E000
E000
7000
7C10
3FF8
0FE0
ENDCHAR
STARTCHAR ecircumflex
ENCODING 234
SWIDTH 528 0
DWIDTH 17 0
BBX 13 24 2 0
BITMAP
0200
0700
0F80
1DC0
3860
0000
0000
0000
0F80
3FE0
78F0
7038
E038
E018
C018
FFF8
FFF8
C000
E000
E000
7000
7C10
3FF8
0FE0
ENDCHAR
STARTCHAR edieresis
ENCODING 235
SWIDTH 528 0
DWIDTH 17 0
BBX 13 23 2 0
BITMAP
3860
38F0
38F0
1040
0000
0000
0000
0F80
3FE0
78F0
7038
E038
E018
C018
FFF8
FFF8
C000
E000
E000
7000
7C10
3FF8
0FE0
ENDCHAR
STARTCHAR igrave
ENCODING 236
SWIDTH 246 0
DWIDTH 8 0
BBX 5 24 0 0
BITMAP
40
C0
E0
70
30
10
00
00
18
18
18
18
18
18
18
18
18
18
18
18
18
18
18
18
ENDCHAR
STARTCHAR iacute
ENCODING 237
SWIDTH 246 0
DWIDTH 8 0
BBX 5 24 3 0
BITMAP
10
38
38
70
E0
00
00
00
C0
C0
C0
C0
C0
C0
C0
C0
C0
C0
C0
C0
C0
C0
C0
C0
ENDCHAR
STARTCHAR icircumflex
ENCODING 238
SWIDTH 246 0
DWIDTH 8 0
BBX 9 24 -1 0
BITMAP
0C00
1E00
3F00
7380
E180
0000
0000
0000
0C00
0C00
0C00
0C00
0C00
0C00
0C00
0C00
0C00
0C00
0C00
0C00
0C00
0C00
0C00
0C00
ENDCHAR
STARTCHAR idieresis
ENCODING 239
SWIDTH 246 0
DWIDTH 8 0
BBX 10 23 -1 0
BITMAP
E1C0
F3C0
E3C0
4080
0000
0000
0000
0C00
0C00
0C00
0C00
0C00
0C00
0C00
0C00
0C00
0C00
0C00
0C00
0C00
0C00
0C00
0C00
ENDCHAR
STARTCHAR eth
ENCODING 240
SWIDTH 553 0
DWIDTH 18 0
BBX 14 24 2 0
BITMAP
1000
3C60
1FE0
0780
1FC0
18E0
00E0
0070
0030
0038
1F98
3FF8
707C
E03C
C01C
C01C
C01C
C01C
C018
E018
E038
78F0
3FE0
0F80
ENDCHAR
STARTCHAR ntilde
ENCODING 241
SWIDTH 567 0
DWIDTH 18 0
BBX 13 23 3 0
BITMAP
0800
3E30
7FE0
67C0
0000
0000
0000
CFC0
FFE0
F8F0
C070
C038
C038
C038
C038
C038
C038
C038
C038
C038
C038
C038
C038
ENDCHAR
STARTCHAR ograve
ENCODING 242
SWIDTH 567 0
DWIDTH 18 0
BBX 14 24 2 0
BITMAP
0800
1C00
1C00
0E00
0600
0200
0000
0000
0FC0
1FF0
7CF8
7038
E01C
E01C
C00C
C00C
C00C
C00C
E00C
E01C
7038
7CF8
3FF0
0FC0
ENDCHAR
STARTCHAR oacute
ENCODING 243
SWIDTH 567 0
DWIDTH 18 0
BBX 14 24 2 0
BITMAP
0040
00E0
00E0
01C0
0380
0100
0000
0000
0FC0
1FF0
7CF8
7038
E01C
E01C
C00C
C00C
C00C
C00C
E00C
E01C
7038
7CF8
3FF0
0FC0
ENDCHAR
STARTCHAR ocircumflex
ENCODING 244
SWIDTH 567 0
DWIDTH 18 0
BBX 14 24 2 0
BITMAP
0300
0780
07C0
0CE0
1870
1020
0000
0000
0FC0
1FF0
7CF8
7038
E01C
E01C
C00C
C00C
C00C
C00C
E00C
E01C
7038
7CF8
3FF0
0FC0
ENDCHAR
STARTCHAR otilde
ENCODING 245
SWIDTH 567 0
DWIDTH 18 0
BBX 14 23 2 0
BITMAP
0400
1F18
3FF0
33E0
0000
0000
0000
0FC0
1FF0
7CF8
7038
E01C
E01C
C00C
C00C
C00C
C00C
E00C
E01C
7038
7CF8
3FF0
0FC0
ENDCHAR
STARTCHAR odieresis
ENCODING 246
SWIDTH 567 0
DWIDTH 18 0
BBX 14 23 2 0
BITMAP
1870
3CF0
3C70
1020
0000
0000
0000
0FC0
1FF0
7CF8
7038
E01C
E01C
C00C
C00C
C00C
C00C
E00C
E01C
7038
7CF8
3FF0
0FC0
ENDCHAR
STARTCHAR divide
ENCODING 247
SWIDTH 580 0
DWIDTH 19 0
BBX 15 16 2 3
BITMAP
0300
0780
0780
0380
0000
0000
0000
FFFE
FFFE
0000
0000
0000
0300
0780
0780
0380
ENDCHAR
STARTCHAR oslash
ENCODING 248
SWIDTH 567 0
DWIDTH 18 0
BBX 14 19 2 -2
BITMAP
000C
0FD8
1FF0
7CF8
7078
E0DC
E0DC
C18C
C30C
C30C
C60C
EC0C
EC1C
7838
7CF8
7FF0
6FC0
C000
4000
ENDCHAR
STARTCHAR ugrave
ENCODING 249
SWIDTH 558 0
DWIDTH 18 0
BBX 13 24 2 0
BITMAP
0800
1800
1C00
0E00
0600
0200
0000
0000
E018
E018
E018
E018
E018
E018
E018
E018
E018
E018
E018
E018
7038
78F8
3FF8
1F98
ENDCHAR
STARTCHAR uacute
ENCODING 250
SWIDTH 558 0
DWIDTH 18 0
BBX 13 24 2 0
BITMAP
0040
00E0
01E0
0180
0300
0000
0000
0000
E018
E018
E018
E018
E018
E018
E018
E018
E018
E018
E018
E018
7038
78F8
3FF8
1F98
ENDCHAR
STARTCHAR ucircumflex
ENCODING 251
SWIDTH 558 0
DWIDTH 18 0
BBX 13 24 2 0
BITMAP
0300
0780
0FC0
18E0
3060
0000
0000
0000
E018
E018
E018
E018
E018
E018
E018
E018
E018
E018
E018
E018
7038
78F8
3FF8
1F98
ENDCHAR
STARTCHAR udieresis
ENCODING 252
SWIDTH 558 0
DWIDTH 18 0
BBX 13 23 2 0
BITMAP
3860
38F0
38F0
1000
0000
0000
0000
E018
E018
E018
E018
E018
E018
E018
E018
E018
E018
E018
E018
7038
78F8
3FF8
1F98
ENDCHAR
STARTCHAR yacute
ENCODING 253
SWIDTH 480 0
DWIDTH 15 0
BBX 14 31 1 -7
BITMAP
0080
00C0
01C0
0380
0300
0200
0000
0000
C01C
E018
E018
6038
7030
7070
3070
3860
18E0
18C0
1CC0
0DC0
0F80
0780
0700
0700
0700
0600
0E00
0E00
0C00
1C00
1C00
ENDCHAR
STARTCHAR thorn
ENCODING 254
SWIDTH 568 0
DWIDTH 18 0
BBX 14 31 3 -7
BITMAP
C000
C000
C000
C000
C000
C000
C000
C000
CF80
FFE0
F9F0
E070
C038
C038
C018
C01C
C018
C018
C018
C038
E070
F9F0
FFE0
CF80
C000
C000
C000
C000
C000
C000
C000
ENDCHAR
STARTCHAR ydieresis
ENCODING 255
SWIDTH 480 0
DWIDTH 15 0
BBX 14 30 1 -7
BITMAP
30E0
78E0
78E0
1040
0000
0000
0000
C01C
E018
E018
6038
7030
7070
3070
3860
18E0
18C0
1CC0
0DC0
0F80
0780
0700
0700
0700
0600
0E00
0E00
0C00
1C00
1C00
ENDCHAR
STARTCHAR Amacron
ENCODING 256
SWIDTH 626 0
DWIDTH 20 0
BBX 20 27 0 0
BITMAP
07FE00
07FE00
000000
000000
000000
00F000
00F800
00F800
01D800
019C00
039C00
038C00
030E00
070E00
060600
060700
0E0700
0C0300
1FFF80
1FFF80
1801C0
3801C0
3801C0
3000E0
7000E0
7000E0
E00070
ENDCHAR
STARTCHAR amacron
ENCODING 257
SWIDTH 512 0
DWIDTH 16 0
BBX 13 22 1 0
BITMAP
3FF0
3FF0
0000
0000
0000
0000
1FC0
7FE0
78F0
0038
0038
0038
0038
07F8
3FF8
7838
6038
E038
6038
78F8
3FD8
1F98
ENDCHAR
STARTCHAR Abreve
ENCODING 258
SWIDTH 626 0
DWIDTH 20 0
BBX 20 29 0 0
BITMAP
020600
070400
038C00
03F800
00F000
000000
000000
00F000
00F800
00F800
01D800
019C00
039C00
038C00
030E00
070E00
060600
060700
0E0700
0C0300
1FFF80
1FFF80
1801C0
3801C0
3801C0
3000E0
7000E0
7000E0
E00070
ENDCHAR
STARTCHAR abreve
ENCODING 259
SWIDTH 512 0
DWIDTH 16 0
BBX 13 23 1 0
BITMAP
1020
3020
3860
1FC0
0F80
0000
0000
1FC0
7FE0
78F0
0038
0038
0038
0038
07F8
3FF8
7838
6038
E038
6038
78F8
3FD8
1F98
ENDCHAR
STARTCHAR Aogonek
ENCODING 260
SWIDTH 626 0
DWIDTH 20 0
BBX 20 30 0 -8
BITMAP
00F000
00F800
00F800
01D800
019C00
039C00
038C00
030E00
070E00
060600
060700
0E0700
0C0300
1FFF80
1FFF80
1801C0
3801C0
3801C0
3000E0
7000E0
7000E0
E00070
0000E0
0001C0
000380
000300
000700
000700
0003F0
0001E0
ENDCHAR
STARTCHAR aogonek
ENCODING 261
SWIDTH 512 0
DWIDTH 16 0
BBX 13 24 1 -8
BITMAP
1FC0
7FE0
78F0
0038
0038
0038
0038
07F8
3FF8
7838
6038
E038
6038
7078
7FD8
3FB8
0070
00E0
01C0
0180
0180
01C0
01F8
00F0
ENDCHAR
STARTCHAR Cacute
ENCODING 262
SWIDTH 645 0
DWIDTH 21 0
BBX 17 29 2 0
BITMAP
000800
001C00
003C00
007800
00E000
004000
000000
01FE00
07FF80
0F8780
3C0000
380000
700000
600000
E00000
E00000
C00000
C00000
C00000
E00000
E00000
E00000
F00000
700000
780000
3E0000
1F8780
07FF80
01FE00
ENDCHAR
STARTCHAR cacute
ENCODING 263
SWIDTH 467 0
DWIDTH 15 0
BBX 12 24 2 0
BITMAP
0080
00C0
01C0
0180
0300
0200
0000
0000
0FC0
1FF0
3C60
7000
E000
E000
C000
C000
C000
C000
E000
E000
F000
7820
3FF0
0FC0
ENDCHAR
STARTCHAR Ccircumflex
ENCODING 264
SWIDTH 645 0
DWIDTH 21 0
BBX 17 29 2 0
BITMAP
006000
00F000
01F800
031C00
060C00
000000
000000
01FE00
07FF80
0F8780
3C0000
380000
700000
600000
E00000
E00000
C00000
C00000
C00000
E00000
E00000
E00000
F00000
700000
780000
3E0000
1F8780
07FF80
01FE00
ENDCHAR
STARTCHAR ccircumflex
ENCODING 265
SWIDTH 467 0
DWIDTH 15 0
BBX 12 24 2 0
BITMAP
0200
0700
0F80
1DC0
30E0
2000
0000
0000
0FC0
1FF0
3C60
7000
E000
E000
C000
C000
C000
C000
E000
E000
F000
7820
3FF0
0FC0
ENDCHAR
STARTCHAR Cdotaccent
ENCODING 266
SWIDTH 645 0
DWIDTH 21 0
BBX 17 28 2 0
BITMAP
00E000
00E000
00E000
004000
000000
000000
01FE00
07FF80
0F8780
3C0000
380000
700000
600000
E00000
E00000
C00000
C00000
C00000
E00000
E00000
E00000
F00000
700000
780000
3E0000
1F8780
07FF80
01FE00
ENDCHAR
STARTCHAR cdotaccent
ENCODING 267
SWIDTH 467 0
DWIDTH 15 0
BBX 12 23 2 0
BITMAP
0700
0700
0700
0200
0000
0000
0000
0FC0
1FF0
3C60
7000
E000
E000
C000
C000
C000
C000
E000
E000
F000
7820
3FF0
0FC0
ENDCHAR
STARTCHAR Ccaron
ENCODING 268
SWIDTH 645 0
DWIDTH 21 0
BBX 17 29 2 0
BITMAP
020400
070C00
039800
01F000
00E000
000000
000000
01FE00
07FF80
0F8780
3C0000
380000
700000
600000
E00000
E00000
C00000
C00000
C00000
E00000
E00000
E00000
F00000
700000
780000
3E0000
1F8780
07FF80
01FE00
ENDCHAR
STARTCHAR ccaron
ENCODING 269
SWIDTH 467 0
DWIDTH 15 0
BBX 12 23 2 0
BITMAP
3060
38E0
1DC0
0780
0300
0000
0000
0FC0
1FF0
3C60
7000
E000
E000
C000
C000
C000
C000
E000
E000
F000
7820
3FF0
0FC0
ENDCHAR
STARTCHAR Dcaron
ENCODING 270
SWIDTH 711 0
DWIDTH 23 0
BBX 18 29 3 0
BITMAP
183000
1C6000
0EC000
078000
038000
000000
000000
FFE000
FFF800
E07E00
E00F00
E00700
E00380
E00380
E001C0
E001C0
E001C0
E001C0
E001C0
E001C0
E001C0
E00180
E00380
E00380
E00700
E00E00
E07C00
FFF800
FFC000
ENDCHAR
STARTCHAR dcaron
ENCODING 271
SWIDTH 608 0
DWIDTH 19 0
BBX 18 24 2 0
BITMAP
001CC0
001CC0
001CC0
001CC0
001C80
001D80
001C00
001C00
0F9C00
3FFC00
7C7C00
703C00
E01C00
E01C00
C01C00
C01C00
C01C00
C01C00
E01C00
E01C00
F01C00
783C00
3FFC00
1F8C00
ENDCHAR
STARTCHAR Dcroat
ENCODING 272
SWIDTH 711 0
DWIDTH 23 0
BBX 21 22 0 0
BITMAP
1FFC00
1FFF00
1C0FC0
1C01E0
1C00E0
1C0070
1C0070
1C0038
1C0038
1C0038
FFC038
FFC038
1C0038
1C0038
1C0030
1C0070
1C0070
1C00E0
1C01C0
1C0F80
1FFF00
1FF800
ENDCHAR
STARTCHAR dcroat
ENCODING 273
SWIDTH 570 0
DWIDTH 18 0
BBX 16 24 2 0
BITMAP
001C
001C
001C
001C
01FF
001C
001C
001C
0F9C
3FFC
7C7C
703C
E01C
E01C
C01C
C01C
C01C
C01C
E01C
E01C
701C
7CFC
3FFC
0F8C
ENDCHAR
STARTCHAR Emacron
ENCODING 274
SWIDTH 584 0
DWIDTH 19 0
BBX 14 27 3 0
BITMAP
3FF0
3FF0
0000
0000
0000
FFFC
FFFC
E000
E000
E000
E000
E000
E000
E000
E000
FFF8
FFF8
E000
E000
E000
E000
E000
E000
E000
E000
FFFC
FFFC
ENDCHAR
STARTCHAR emacron
ENCODING 275
SWIDTH 528 0
DWIDTH 17 0
BBX 13 22 2 0
BITMAP
3FF0
3FF0
0000
0000
0000
0000
0F80
3FE0
78F0
7038
E038
E018
C018
FFF8
FFF8
C000
E000
E000
7000
7C10
3FF8
0FE0
ENDCHAR
STARTCHAR Ebreve
ENCODING 276
SWIDTH 584 0
DWIDTH 19 0
BBX 14 29 3 0
BITMAP
1830
3830
1C60
0FE0
0780
0000
0000
FFFC
FFFC
E000
E000
E000
E000
E000
E000
E000
E000
FFF8
FFF8
E000
E000
E000
E000
E000
E000
E000
E000
FFFC
FFFC
ENDCHAR
STARTCHAR ebreve
ENCODING 277
SWIDTH 528 0
DWIDTH 17 0
BBX 13 23 2 0
BITMAP
1020
3020
3860
1FC0
0F80
0000
0000
0F80
3FE0
78F0
7038
E038
E018
C018
FFF8
FFF8
C000
E000
E000
7000
7C10
3FF8
0FE0
ENDCHAR
STARTCHAR Edotaccent
ENCODING 278
SWIDTH 584 0
DWIDTH 19 0
BBX 14 29 3 0
BITMAP
0100
0780
0780
0380
0000
0000
0000
FFFC
FFFC
E000
E000
E000
E000
E000
E000
E000
E000
FFF8
FFF8
E000
E000
E000
E000
E000
E000
E000
E000
FFFC
FFFC
ENDCHAR
STARTCHAR edotaccent
ENCODING 279
SWIDTH 528 0
DWIDTH 17 0
BBX 13 23 2 0
BITMAP
0700
0700
0700
0200
0000
0000
0000
0F80
3FE0
78F0
7038
E038
E018
C018
FFF8
FFF8
C000
E000
E000
7000
7C10
3FF8
0FE0
ENDCHAR
STARTCHAR Eogonek
ENCODING 280
SWIDTH 584 0
DWIDTH 19 0
BBX 14 30 3 -8
BITMAP
FFFC
FFFC
E000
E000
E000
E000
E000
E000
E000
E000
FFF8
FFF8
E000
E000
E000
E000
E000
E000
E000
E000
FFFC
FFFC
0038
0070
00E0
00C0
01C0
01E0
00FC
0078
ENDCHAR
STARTCHAR eogonek
ENCODING 281
SWIDTH 528 0
DWIDTH 17 0
BBX 13 24 2 -8
BITMAP
0F80
3FE0
78F0
7038
E038
E018
C018
FFF8
FFF8
C000
E000
E000
7000
7C10
3FF8
0FF0
00C0
0180
0380
0380
0380
0380
01F0
00F0
ENDCHAR
STARTCHAR Ecaron
ENCODING 282
SWIDTH 584 0
DWIDTH 19 0
BBX 14 29 3 0
BITMAP
1830
1C60
0EC0
0780
0380
0000
0000
FFFC
FFFC
E000
E000
E000
E000
E000
E000
E000
E000
FFF8
FFF8
E000
E000
E000
E000
E000
E000
E000
E000
FFFC
FFFC
ENDCHAR
STARTCHAR ecaron
ENCODING 283
SWIDTH 528 0
DWIDTH 17 0
BBX 13 23 2 0
BITMAP
3060
3CE0
0FC0
0780
0300
0000
0000
0F80
3FE0
78F0
7038
E038
E018
C018
FFF8
FFF8
C000
E000
E000
7000
7C10
3FF8
0FE0
ENDCHAR
STARTCHAR Gcircumflex
ENCODING 284
SWIDTH 715 0
DWIDTH 23 0
BBX 19 29 2 0
BITMAP
003000
007800
00DC00
018E00
030600
000000
000000
01FE00
07FFC0
1F87C0
3C0000
380000
700000
600000
E00000
E00000
C00000
C03FE0
C03FE0
E000E0
E000E0
E000E0
7000E0
7000E0
3800E0
3E00E0
1F87E0
07FF80
01FE00
ENDCHAR
STARTCHAR gcircumflex
ENCODING 285
SWIDTH 570 0
DWIDTH 18 0
BBX 14 31 2 -7
BITMAP
0300
0780
0FC0
1CE0
1870
1020
0000
0000
0FCC
3FFC
7C7C
703C
E01C
E01C
C01C
C01C
C01C
C01C
E01C
E01C
701C
7CFC
3FFC
0F9C
0018
0018
0038
0038
30F0
7FE0
1F80
ENDCHAR
STARTCHAR Gbreve
ENCODING 286
SWIDTH 715 0
DWIDTH 23 0
BBX 19 29 2 0
BITMAP
030200
030600
038E00
01FC00
00F800
000000
000000
01FE00
07FFC0
1F87C0
3C0000
380000
700000
600000
E00000
E00000
C00000
C03FE0
C03FE0
E000E0
E000E0
E000E0
7000E0
7000E0
3800E0
3E00E0
1F87E0
07FF80
01FE00
ENDCHAR
STARTCHAR gbreve
ENCODING 287
SWIDTH 570 0
DWIDTH 18 0
BBX 14 30 2 -7
BITMAP
1020
3020
3860
1FC0
0F80
0000
0000
0FCC
3FFC
7C7C
703C
E01C
E01C
C01C
C01C
C01C
C01C
E01C
E01C
701C
7CFC
3FFC
0F9C
0018
0018
0038
0038
30F0
7FE0
1F80
ENDCHAR
STARTCHAR Gdotaccent
ENCODING 288
SWIDTH 715 0
DWIDTH 23 0
BBX 19 28 2 0
BITMAP
007000
007000
007000
002000
000000
000000
01FE00
07FFC0
1F87C0
3C0000
380000
700000
600000
E00000
E00000
C00000
C03FE0
C03FE0
E000E0
E000E0
E000E0
7000E0
7000E0
3800E0
3E00E0
1F87E0
07FF80
01FE00
ENDCHAR
STARTCHAR gdotaccent
ENCODING 289
SWIDTH 570 0
DWIDTH 18 0
BBX 14 30 2 -7
BITMAP
0700
0780
0780
0200
0000
0000
0000
0FCC
3FFC
7C7C
703C
E01C
E01C
C01C
C01C
C01C
C01C
E01C
E01C
701C
7CFC
3FFC
0F9C
0018
0018
0038
0038
30F0
7FE0
1F80
ENDCHAR
STARTCHAR uni0122
ENCODING 290
SWIDTH 715 0
DWIDTH 23 0
BBX 19 29 2 -7
BITMAP
01FE00
07FFC0
1F87C0
3C0000
380000
700000
600000
E00000
E00000
C00000
C03FE0
C03FE0
E000E0
E000E0
E000E0
7000E0
7000E0
3800E0
3E00E0
1F87E0
07FF80
01FE00
000000
000000
007000
007000
006000
006000
006000
ENDCHAR
STARTCHAR uni0123
ENCODING 291
SWIDTH 570 0
DWIDTH 18 0
BBX 14 31 2 -7
BITMAP
0300
0300
0700
0700
0700
0000
0000
0000
0FCC
3FFC
7C7C
703C
E01C
E01C
C01C
C01C
C01C
C01C
E01C
E01C
701C
7CFC
3FFC
0F9C
0018
0018
0038
0038
30F0
7FE0
1F80
ENDCHAR
STARTCHAR Hcircumflex
ENCODING 292
SWIDTH 721 0
DWIDTH 23 0
BBX 17 29 3 0
BITMAP
01C000
03E000
037000
063800
0C1800
000000
000000
E00380
E00380
E00380
E00380
E00380
E00380
E00380
E00380
E00380
E00380
FFFF80
FFFF80
E00380
E00380
E00380
E00380
E00380
E00380
E00380
E00380
E00380
E00380
ENDCHAR
STARTCHAR hcircumflex
ENCODING 293
SWIDTH 567 0
DWIDTH 18 0
BBX 13 31 3 0
BITMAP
0700
0F80
1DC0
38E0
2040
0000
0000
C000
C000
C000
C000
C000
C000
C000
C000
CFC0
FFE0
F8F0
E070
C038
C038
C038
C038
C038
C038
C038
C038
C038
C038
C038
C038
ENDCHAR
STARTCHAR Hbar
ENCODING 294
SWIDTH 721 0
DWIDTH 23 0
BBX 23 22 0 0
BITMAP
1C0070
1C0070
1C0070
1C0070
FFFFFE
FFFFFE
1C0070
1C0070
1C0070
1C0070
1FFFF0
1FFFF0
1C0070
1C0070
1C0070
1C0070
1C0070
1C0070
1C0070
1C0070
1C0070
1C0070
ENDCHAR
STARTCHAR hbar
ENCODING 295
SWIDTH 567 0
DWIDTH 18 0
BBX 15 24 1 0
BITMAP
3000
3000
3000
3000
FF80
FF80
3000
3000
33F0
3FF8
3E3C
381C
300E
300E
300E
300E
300E
300E
300E
300E
300E
300E
300E
300E
ENDCHAR
STARTCHAR Itilde
ENCODING 296
SWIDTH 267 0
DWIDTH 9 0
BBX 11 28 -1 0
BITMAP
3040
7CE0
CFC0
8380
0000
0000
0E00
0E00
0E00
0E00
0E00
0E00
0E00
0E00
0E00
0E00
0E00
0E00
0E00
0E00
0E00
0E00
0E00
0E00
0E00
0E00
0E00
0E00
ENDCHAR
STARTCHAR itilde
ENCODING 297
SWIDTH 246 0
DWIDTH 8 0
BBX 10 23 -1 0
BITMAP
3040
FCC0
CFC0
8780
0000
0000
0000
0C00
0C00
0C00
0C00
0C00
0C00
0C00
0C00
0C00
0C00
0C00
0C00
0C00
0C00
0C00
0C00
ENDCHAR
STARTCHAR Imacron
ENCODING 298
SWIDTH 267 0
DWIDTH 9 0
BBX 8 27 0 0
BITMAP
FF
FF
00
00
00
1C
1C
1C
1C
1C
1C
1C
1C
1C
1C
1C
1C
1C
1C
1C
1C
1C
1C
1C
1C
1C
1C
ENDCHAR
STARTCHAR imacron
ENCODING 299
SWIDTH 246 0
DWIDTH 8 0
BBX 7 22 0 0
BITMAP
FE
FE
00
00
00
00
18
18
18
18
18
18
18
18
18
18
18
18
18
18
18
18
ENDCHAR
STARTCHAR Ibreve
ENCODING 300
SWIDTH 267 0
DWIDTH 9 0
BBX 9 29 0 0
BITMAP
C080
C180
E300
7F00
3C00
0000
0000
1C00
1C00
1C00
1C00
1C00
1C00
1C00
1C00
1C00
1C00
1C00
1C00
1C00
1C00
1C00
1C00
1C00
1C00
1C00
1C00
1C00
1C00
ENDCHAR
STARTCHAR ibreve
ENCODING 301
SWIDTH 246 0
DWIDTH 8 0
BBX 10 23 -1 0
BITMAP
0080
E0C0
E180
7F00
1E00
0000
0000
0C00
0C00
0C00
0C00
0C00
0C00
0C00
0C00
0C00
0C00
0C00
0C00
0C00
0C00
0C00
0C00
ENDCHAR
STARTCHAR Iogonek
ENCODING 302
SWIDTH 267 0
DWIDTH 9 0
BBX 6 30 0 -8
BITMAP
1C
1C
1C
1C
1C
1C
1C
1C
1C
1C
1C
1C
1C
1C
1C
1C
1C
1C
1C
1C
1C
1C
38
70
60
E0
E0
E0
F8
78
ENDCHAR
STARTCHAR iogonek
ENCODING 303
SWIDTH 246 0
DWIDTH 8 0
BBX 6 31 0 -8
BITMAP
18
3C
3C
00
00
00
00
18
18
18
18
18
18
18
18
18
18
18
18
18
18
18
18
30
60
E0
C0
C0
E0
F8
78
ENDCHAR
STARTCHAR Idotaccent
ENCODING 304
SWIDTH 267 0
DWIDTH 9 0
BBX 4 29 2 0
BITMAP
20
F0
F0
70
00
00
00
70
70
70
70
70
70
70
70
70
70
70
70
70
70
70
70
70
70
70
70
70
70
ENDCHAR
STARTCHAR dotlessi
ENCODING 305
SWIDTH 246 0
DWIDTH 8 0
BBX 2 16 3 0
BITMAP
C0
C0
C0
C0
C0
C0
C0
C0
C0
C0
C0
C0
C0
C0
C0
C0
ENDCHAR
STARTCHAR Jcircumflex
ENCODING 308
SWIDTH 398 0
DWIDTH 13 0
BBX 14 29 0 0
BITMAP
00E0
01F0
0378
061C
0408
0000
0000
00C0
00C0
00C0
00C0
00C0
00C0
00C0
00C0
00C0
00C0
00C0
00C0
00C0
00C0
00C0
00C0
01C0
01C0
01C0
6780
FF00
3E00
ENDCHAR
STARTCHAR jcircumflex
ENCODING 309
SWIDTH 246 0
DWIDTH 8 0
BBX 9 31 -1 -7
BITMAP
0C00
1E00
3F00
7380
C180
0000
0000
0000
0C00
0C00
0C00
0C00
0C00
0C00
0C00
0C00
0C00
0C00
0C00
0C00
0C00
0C00
0C00
0C00
0C00
0C00
1C00
1800
3800
7000
6000
ENDCHAR
STARTCHAR uni0136
ENCODING 310
SWIDTH 608 0
DWIDTH 19 0
BBX 16 29 3 -7
BITMAP
E00E
E01C
E038
E070
E0E0
E1E0
E3C0
E780
EF00
EE00
FC00
FE00
EF00
E780
E380
E1C0
E0E0
E070
E038
E01C
E01E
E00F
0000
0000
0300
0300
0700
0600
0600
ENDCHAR
STARTCHAR uni0137
ENCODING 311
SWIDTH 498 0
DWIDTH 16 0
BBX 12 31 3 -7
BITMAP
C000
C000
C000
C000
C000
C000
C000
C000
C070
C0E0
C1C0
C380
C700
CE00
DC00
FC00
DC00
CE00
C700
C380
C3C0
C1E0
C0F0
C070
0000
0000
0C00
0C00
0C00
1800
1800
ENDCHAR
STARTCHAR kgreenlandic
ENCODING 312
SWIDTH 498 0
DWIDTH 16 0
BBX 12 16 3 0
BITMAP
C070
C0E0
C1C0
C380
C700
CE00
DC00
FC00
DC00
CE00
C700
C380
C3C0
C1E0
C0F0
C070
ENDCHAR
STARTCHAR Lacute
ENCODING 313
SWIDTH 506 0
DWIDTH 16 0
BBX 13 29 3 0
BITMAP
0800
1C00
3800
F000
C000
0000
0000
E000
E000
E000
E000
E000
E000
E000
E000
E000
E000
E000
E000
E000
E000
E000
E000
E000
E000
E000
E000
FFF8
FFF8
ENDCHAR
STARTCHAR lacute
ENCODING 314
SWIDTH 278 0
DWIDTH 9 0
BBX 6 31 3 0
BITMAP
18
38
78
E0
C0
00
00
C0
C0
C0
C0
C0
C0
C0
C0
C0
C0
C0
C0
C0
C0
C0
C0
C0
C0
C0
C0
C0
E0
F8
7C
ENDCHAR
STARTCHAR uni013B
ENCODING 315
SWIDTH 506 0
DWIDTH 16 0
BBX 13 29 3 -7
BITMAP
E000
E000
E000
E000
E000
E000
E000
E000
E000
E000
E000
E000
E000
E000
E000
E000
E000
E000
E000
E000
FFF8
FFF8
0000
0000
0600
0600
0600
0600
0C00
ENDCHAR
STARTCHAR uni013C
ENCODING 316
SWIDTH 278 0
DWIDTH 9 0
BBX 6 31 3 -7
BITMAP
C0
C0
C0
C0
C0
C0
C0
C0
C0
C0
C0
C0
C0
C0
C0
C0
C0
C0
C0
C0
C0
E0
F8
7C
00
00
60
60
60
60
C0
ENDCHAR
STARTCHAR Lcaron
ENCODING 317
SWIDTH 506 0
DWIDTH 16 0
BBX 13 24 3 0
BITMAP
0300
0700
E600
E600
E600
E600
E000
E000
E000
E000
E000
E000
E000
E000
E000
E000
E000
E000
E000
E000
E000
E000
FFF8
FFF8
ENDCHAR
STARTCHAR lcaron
ENCODING 318
SWIDTH 295 0
DWIDTH 9 0
BBX 7 24 3 0
BITMAP
C6
C6
C6
CC
CC
CC
C0
C0
C0
C0
C0
C0
C0
C0
C0
C0
C0
C0
C0
C0
C0
E0
F8
7C
ENDCHAR
STARTCHAR Ldot
ENCODING 319
SWIDTH 506 0
DWIDTH 16 0
BBX 13 22 3 0
BITMAP
E000
E000
E000
E000
E000
E000
E000
E000
E000
E0E0
E1E0
E1E0
E0E0
E000
E000
E000
E000
E000
E000
E000
FFF8
FFF8
ENDCHAR
STARTCHAR ldot
ENCODING 320
SWIDTH 278 0
DWIDTH 9 0
BBX 7 24 3 0
BITMAP
C0
C0
C0
C0
C0
C0
C0
C0
C0
C0
CE
DE
DE
CE
C0
C0
C0
C0
C0
C0
C0
E0
F8
7C
ENDCHAR
STARTCHAR Lslash
ENCODING 321
SWIDTH 506 0
DWIDTH 16 0
BBX 15 22 1 0
BITMAP
3800
3800
3800
3800
3800
3800
3800
3800
3900
3F80
3E00
7800
F800
F800
3800
3800
3800
3800
3800
3800
3FFE
3FFE
ENDCHAR
STARTCHAR lslash
ENCODING 322
SWIDTH 328 0
DWIDTH 11 0
BBX 8 24 1 0
BITMAP
38
38
38
38
38
38
38
38
38
3B
3F
3C
F8
F8
38
38
38
38
38
38
38
38
1F
0F
ENDCHAR
STARTCHAR Nacute
ENCODING 323
SWIDTH 750 0
DWIDTH 24 0
BBX 18 29 3 0
BITMAP
001800
003800
007800
00E000
00C000
000000
000000
E000C0
F000C0
F800C0
F800C0
DC00C0
CE00C0
CE00C0
C700C0
C380C0
C380C0
C1C0C0
C0E0C0
C060C0
C070C0
C038C0
C01CC0
C01CC0
C00EC0
C007C0
C007C0
C003C0
C001C0
ENDCHAR
STARTCHAR nacute
ENCODING 324
SWIDTH 567 0
DWIDTH 18 0
BBX 13 24 3 0
BITMAP
0080
00C0
01C0
0380
0300
0200
0000
0000
CFC0
FFE0
F8F0
C070
C038
C038
C038
C038
C038
C038
C038
C038
C038
C038
C038
C038
ENDCHAR
STARTCHAR uni0145
ENCODING 325
SWIDTH 750 0
DWIDTH 24 0
BBX 18 29 3 -7
BITMAP
E000C0
F000C0
F800C0
F800C0
DC00C0
CE00C0
CE00C0
C700C0
C380C0
C380C0
C1C0C0
C0E0C0
C060C0
C070C0
C038C0
C01CC0
C01CC0
C00EC0
C007C0
C007C0
C003C0
C001C0
000000
000000
00C000
00C000
00C000
018000
018000
ENDCHAR
STARTCHAR uni0146
ENCODING 326
SWIDTH 567 0
DWIDTH 18 0
BBX 13 23 3 -7
BITMAP
CFC0
FFE0
F8F0
C070
C038
C038
C038
C038
C038
C038
C038
C038
C038
C038
C038
C038
0000
0000
0600
0600
0600
0600
0C00
ENDCHAR
STARTCHAR Ncaron
ENCODING 327
SWIDTH 750 0
DWIDTH 24 0
BBX 18 29 3 0
BITMAP
060C00
071800
03B000
01E000
00C000
000000
000000
E000C0
F000C0
F800C0
F800C0
DC00C0
CE00C0
CE00C0
C700C0
C380C0
C380C0
C1C0C0
C0E0C0
C060C0
C070C0
C038C0
C01CC0
C01CC0
C00EC0
C007C0
C007C0
C003C0
C001C0
ENDCHAR
STARTCHAR ncaron
ENCODING 328
SWIDTH 567 0
DWIDTH 18 0
BBX 13 23 3 0
BITMAP
3060
38C0
1D80
0F00
0600
0000
0000
CFC0
FFE0
F8F0
C070
C038
C038
C038
C038
C038
C038
C038
C038
C038
C038
C038
C038
ENDCHAR
STARTCHAR Eng
ENCODING 330
SWIDTH 750 0
DWIDTH 24 0
BBX 18 29 3 -7
BITMAP
E000C0
F000C0
F800C0
F800C0
DC00C0
CE00C0
CE00C0
C700C0
C380C0
C380C0
C1C0C0
C0E0C0
C070C0
C070C0
C038C0
C01CC0
C01CC0
C00EC0
C007C0
C007C0
C003C0
C001C0
0001C0
0001C0
0001C0
0001C0
000180
000380
000300
ENDCHAR
STARTCHAR eng
ENCODING 331
SWIDTH 567 0
DWIDTH 18 0
BBX 13 23 3 -7
BITMAP
CFC0
FFE0
F8F0
C070
C038
C038
C038
C038
C038
C038
C038
C038
C038
C038
C038
C038
0038
0038
0038
0030
0070
00E0
00C0
ENDCHAR
STARTCHAR Omacron
ENCODING 332
SWIDTH 760 0
DWIDTH 24 0
BBX 21 27 2 0
BITMAP
07FE00
07FE00
000000
000000
000000
01FC00
0FFF00
1F0F80
3C03C0
7801E0
7000E0
E00070
E00070
E00030
C00038
C00038
C00038
E00030
E00030
E00070
E00070
7000E0
7800E0
3C03C0
1F0F80
0FFF00
01F800
ENDCHAR
STARTCHAR omacron
ENCODING 333
SWIDTH 567 0
DWIDTH 18 0
BBX 14 22 2 0
BITMAP
3FF0
3FF0
0000
0000
0000
0000
0FC0
1FF0
7CF8
7038
E01C
E01C
C00C
C00C
C00C
C00C
E00C
E01C
7038
7CF8
3FF0
0FC0
ENDCHAR
STARTCHAR Obreve
ENCODING 334
SWIDTH 760 0
DWIDTH 24 0
BBX 21 29 2 0
BITMAP
020600
070600
038C00
03FC00
00F000
000000
000000
01FC00
0FFF00
1F0F80
3C03C0
7801E0
7000E0
E00070
E00070
E00030
C00038
C00038
C00038
E00030
E00030
E00070
E00070
7000E0
7800E0
3C03C0
1F0F80
0FFF00
01F800
ENDCHAR
STARTCHAR obreve
ENCODING 335
SWIDTH 567 0
DWIDTH 18 0
BBX 14 23 2 0
BITMAP
0020
3830
1C60
1FE0
0780
0000
0000
0FC0
1FF0
7CF8
7038
E01C
E01C
C00C
C00C
C00C
C00C
E00C
E01C
7038
7CF8
3FF0
0FC0
ENDCHAR
STARTCHAR Ohungarumlaut
ENCODING 336
SWIDTH 760 0
DWIDTH 24 0
BBX 21 29 2 0
BITMAP
018600
03C700
038E00
071C00
041800
000000
000000
01FC00
0FFF00
1F0F80
3C03C0
7801E0
7000E0
E00070
E00070
E00030
C00038
C00038
C00038
E00030
E00030
E00070
E00070
7000E0
7800E0
3C03C0
1F0F80
0FFF00
01F800
ENDCHAR
STARTCHAR ohungarumlaut
ENCODING 337
SWIDTH 567 0
DWIDTH 18 0
BBX 14 24 2 0
BITMAP
0610
0738
0E30
0C70
0C60
1840
0000
0000
0FC0
1FF0
7CF8
7038
E01C
E01C
C00C
C00C
C00C
C00C
E00C
E01C
7038
7CF8
3FF0
0FC0
ENDCHAR
STARTCHAR OE
ENCODING 338
SWIDTH 997 0
DWIDTH 32 0
BBX 28 22 2 0
BITMAP
01FFFFF0
07FFFFF0
1F8F8000
3C038000
38038000
70038000
60038000
E0038000
E0038000
E0038000
C003FFE0
C003FFE0
E0038000
E0038000
E0038000
E0038000
70038000
78038000
3C038000
1F878000
0FFFFFF0
03FFFFF0
ENDCHAR
STARTCHAR oe
ENCODING 339
SWIDTH 911 0
DWIDTH 29 0
BBX 25 16 2 0
BITMAP
0FC0FC00
1FF1FE00
3CFB8700
703F0380
E01E0180
E01E0180
C00E0180
C00FFF80
C00FFF80
C00E0000
E00E0000
E01E0000
703F0000
7C73C100
3FE1FF80
0FC07E00
ENDCHAR
STARTCHAR Racute
ENCODING 340
SWIDTH 620 0
DWIDTH 20 0
BBX 16 29 3 0
BITMAP
0060
00E0
01E0
0380
0300
0000
0000
FFE0
FFF8
E0FC
E01C
E01E
E00E
E00E
E00E
E00C
E01C
E078
FFF0
FFC0
E0E0
E070
E070
E038
E038
E01C
E01E
E00E
E007
ENDCHAR
STARTCHAR racute
ENCODING 341
SWIDTH 377 0
DWIDTH 12 0
BBX 9 24 3 0
BITMAP
0200
0300
0700
0E00
0C00
0800
0000
0000
C780
DF80
FD00
E000
C000
C000
C000
C000
C000
C000
C000
C000
C000
C000
C000
C000
ENDCHAR
STARTCHAR uni0156
ENCODING 342
SWIDTH 620 0
DWIDTH 20 0
BBX 16 29 3 -7
BITMAP
FFE0
FFF8
E0FC
E01C
E01E
E00E
E00E
E00E
E00C
E01C
E078
FFF0
FFC0
E0E0
E070
E070
E038
E038
E01C
E01E
E00E
E007
0000
0000
0300
0300
0700
0600
0600
ENDCHAR
STARTCHAR uni0157
ENCODING 343
SWIDTH 377 0
DWIDTH 12 0
BBX 10 23 2 -7
BITMAP
63C0
6FC0
7E80
7000
6000
6000
6000
6000
6000
6000
6000
6000
6000
6000
6000
6000
0000
0000
6000
6000
E000
C000
C000
ENDCHAR
STARTCHAR Rcaron
ENCODING 344
SWIDTH 620 0
DWIDTH 20 0
BBX 16 29 3 0
BITMAP
1030
1C60
0FC0
0780
0300
0000
0000
FFE0
FFF8
E0FC
E01C
E01E
E00E
E00E
E00E
E00C
E01C
E078
FFF0
FFC0
E0E0
E070
E070
E038
E038
E01C
E01E
E00E
E007
ENDCHAR
STARTCHAR rcaron
ENCODING 345
SWIDTH 377 0
DWIDTH 12 0
BBX 9 23 3 0
BITMAP
C180
E300
7600
3C00
0800
0000
0000
C780
DF80
FD00
E000
C000
C000
C000
C000
C000
C000
C000
C000
C000
C000
C000
C000
ENDCHAR
STARTCHAR Sacute
ENCODING 346
SWIDTH 553 0
DWIDTH 18 0
BBX 16 29 1 0
BITMAP
0020
0070
00F0
01E0
0380
0100
0000
07F0
1FFE
3E1C
7000
6000
E000
E000
7000
7800
3F00
1FE0
03F8
007C
001E
000E
0007
0007
0006
000E
FC7C
7FF8
0FE0
ENDCHAR
STARTCHAR sacute
ENCODING 347
SWIDTH 464 0
DWIDTH 15 0
BBX 11 24 2 0
BITMAP
0100
0180
0380
0700
0600
0400
0000
0000
1FC0
7FE0
F040
C000
C000
E000
F800
7F00
1FC0
01E0
00E0
0060
0060
E1E0
FFC0
3F00
ENDCHAR
STARTCHAR Scircumflex
ENCODING 348
SWIDTH 553 0
DWIDTH 18 0
BBX 16 29 1 0
BITMAP
0180
03C0
06E0
0C70
1830
0000
0000
07F0
1FFE
3E1C
7000
6000
E000
E000
7000
7800
3F00
1FE0
03F8
007C
001E
000E
0007
0007
0006
000E
FC7C
7FF8
0FE0
ENDCHAR
STARTCHAR scircumflex
ENCODING 349
SWIDTH 464 0
DWIDTH 15 0
BBX 11 24 2 0
BITMAP
0400
0E00
1F00
3380
61C0
4080
0000
0000
1FC0
7FE0
F040
C000
C000
E000
F800
7F00
1FC0
01E0
00E0
0060
0060
E1E0
FFC0
3F00
ENDCHAR
STARTCHAR Scedilla
ENCODING 350
SWIDTH 553 0
DWIDTH 18 0
BBX 16 30 1 -8
BITMAP
07F0
1FFE
3E1C
7000
6000
E000
E000
7000
7800
3F00
1FE0
07F8
007C
001E
000E
0007
0007
0006
000E
FC7C
7FF8
1FE0
0100
0300
03E0
00F0
0070
0070
07E0
07C0
ENDCHAR
STARTCHAR scedilla
ENCODING 351
SWIDTH 464 0
DWIDTH 15 0
BBX 11 24 2 -8
BITMAP
1FC0
7FE0
F040
C000
C000
E000
F800
7F00
1FC0
01E0
00E0
0060
0060
E1E0
FFC0
7F80
0C00
0C00
0F80
0380
01C0
01C0
1F80
1F00
ENDCHAR
STARTCHAR Scaron
ENCODING 352
SWIDTH 553 0
DWIDTH 18 0
BBX 16 29 1 0
BITMAP
0810
1C30
0E60
07C0
0380
0000
0000
07F0
1FFE
3E1C
7000
6000
E000
E000
7000
7800
3F00
1FE0
03F8
007C
001E
000E
0007
0007
0006
000E
FC7C
7FF8
0FE0
ENDCHAR
STARTCHAR scaron
ENCODING 353
SWIDTH 464 0
DWIDTH 15 0
BBX 11 23 2 0
BITMAP
60C0
7180
3B00
1E00
0C00
0000
0000
1FC0
7FE0
F040
C000
C000
E000
F800
7F00
1FC0
01E0
00E0
0060
0060
E1E0
FFC0
3F00
ENDCHAR
STARTCHAR uni0162
ENCODING 354
SWIDTH 566 0
DWIDTH 18 0
BBX 18 30 0 -8
BITMAP
FFFFC0
FFFFC0
00C000
00C000
00C000
00C000
00C000
00C000
00C000
00C000
00C000
00C000
00C000
00C000
00C000
00C000
00C000
00C000
00C000
00C000
00C000
00C000
00C000
00C000
00F000
007800
001800
001800
03F800
03F000
ENDCHAR
STARTCHAR uni0163
ENCODING 355
SWIDTH 361 0
DWIDTH 12 0
BBX 10 29 1 -8
BITMAP
3800
3800
3800
3800
3800
FF80
FF80
3800
3800
3800
3800
3800
3800
3800
3800
3800
3800
3800
1C00
1F80
07C0
0400
0C00
0F80
01C0
01C0
01C0
1F80
0F00
ENDCHAR
STARTCHAR Tcaron
ENCODING 356
SWIDTH 566 0
DWIDTH 18 0
BBX 18 29 0 0
BITMAP
060C00
071800
03B000
01E000
00C000
000000
000000
FFFFC0
FFFFC0
00C000
00C000
00C000
00C000
00C000
00C000
00C000
00C000
00C000
00C000
00C000
00C000
00C000
00C000
00C000
00C000
00C000
00C000
00C000
00C000
ENDCHAR
STARTCHAR tcaron
ENCODING 357
SWIDTH 361 0
DWIDTH 12 0
BBX 10 24 1 0
BITMAP
01C0
01C0
0180
0180
3980
3980
3800
3800
FF80
FF80
3800
3800
3800
3800
3800
3800
3800
3800
3800
3800
3800
1C00
1F80
07C0
ENDCHAR
STARTCHAR Tbar
ENCODING 358
SWIDTH 566 0
DWIDTH 18 0
BBX 18 22 0 0
BITMAP
FFFFC0
FFFFC0
00C000
00C000
00C000
00C000
00C000
00C000
00C000
00C000
0FFC00
0FFC00
00C000
00C000
00C000
00C000
00C000
00C000
00C000
00C000
00C000
00C000
ENDCHAR
STARTCHAR tbar
ENCODING 359
SWIDTH 361 0
DWIDTH 12 0
BBX 10 21 1 0
BITMAP
3800
3800
3800
3800
3800
FF80
FF80
3800
3800
3800
3800
3800
FF80
FF80
3800
3800
3800
3800
1C00
1F80
07C0
ENDCHAR
STARTCHAR Utilde
ENCODING 360
SWIDTH 671 0
DWIDTH 21 0
BBX 17 28 2 0
BITMAP
070400
0F8C00
1CFC00
087000
000000
000000
E00180
E00180
E00180
E00180
E00180
E00180
E00180
E00180
E00180
E00180
E00180
E00180
E00180
E00180
E00180
E00380
600380
700300
780700
3F3E00
1FFC00
07F000
ENDCHAR
STARTCHAR utilde
ENCODING 361
SWIDTH 558 0
DWIDTH 18 0
BBX 13 23 2 0
BITMAP
1C10
3F30
33F0
61E0
0000
0000
0000
E018
E018
E018
E018
E018
E018
E018
E018
E018
E018
E018
E018
7038
78F8
3FF8
1F98
ENDCHAR
STARTCHAR Umacron
ENCODING 362
SWIDTH 671 0
DWIDTH 21 0
BBX 17 27 2 0
BITMAP
0FFC00
0FFC00
000000
000000
000000
E00180
E00180
E00180
E00180
E00180
E00180
E00180
E00180
E00180
E00180
E00180
E00180
E00180
E00180
E00180
E00380
600380
700300
780700
3F3E00
1FFC00
07F000
ENDCHAR
STARTCHAR umacron
ENCODING 363
SWIDTH 558 0
DWIDTH 18 0
BBX 13 22 2 0
BITMAP
3FF0
3FF0
0000
0000
0000
0000
E018
E018
E018
E018
E018
E018
E018
E018
E018
E018
E018
E018
7038
78F8
3FF8
1F98
ENDCHAR
STARTCHAR Ubreve
ENCODING 364
SWIDTH 671 0
DWIDTH 21 0
BBX 17 29 2 0
BITMAP
0C0800
0C1800
0E3800
07F000
03E000
000000
000000
E00180
E00180
E00180
E00180
E00180
E00180
E00180
E00180
E00180
E00180
E00180
E00180
E00180
E00180
E00180
E00380
600380
700300
780700
3F3E00
1FFC00
07F000
ENDCHAR
STARTCHAR ubreve
ENCODING 365
SWIDTH 558 0
DWIDTH 18 0
BBX 13 23 2 0
BITMAP
1020
3020
3860
1FC0
0F80
0000
0000
E018
E018
E018
E018
E018
E018
E018
E018
E018
E018
E018
E018
7038
78F8
3FF8
1F98
ENDCHAR
STARTCHAR Uring
ENCODING 366
SWIDTH 671 0
DWIDTH 21 0
BBX 17 30 2 0
BITMAP
01E000
03F000
063000
063000
073000
03E000
01C000
000000
E00180
E00180
E00180
E00180
E00180
E00180
E00180
E00180
E00180
E00180
E00180
E00180
E00180
E00180
E00180
E00380
600380
700300
780700
3F3E00
1FFC00
07F000
ENDCHAR
STARTCHAR uring
ENCODING 367
SWIDTH 558 0
DWIDTH 18 0
BBX 13 25 2 0
BITMAP
0780
0FC0
0CC0
18C0
0CC0
0F80
0700
0000
0000
E018
E018
E018
E018
E018
E018
E018
E018
E018
E018
E018
E018
7038
78F8
3FF8
1F98
ENDCHAR
STARTCHAR Uhungarumlaut
ENCODING 368
SWIDTH 671 0
DWIDTH 21 0
BBX 17 30 2 0
BITMAP
020800
030C00
071C00
0E3800
1C7000
082000
000000
000000
E00180
E00180
E00180
E00180
E00180
E00180
E00180
E00180
E00180
E00180
E00180
E00180
E00180
E00180
E00180
E00380
600380
700300
780700
3F3E00
1FFC00
07F000
ENDCHAR
STARTCHAR uhungarumlaut
ENCODING 369
SWIDTH 558 0
DWIDTH 18 0
BBX 13 24 2 0
BITMAP
0430
0638
0E30
0C60
1860
1040
0000
0000
E018
E018
E018
E018
E018
E018
E018
E018
E018
E018
E018
E018
7038
78F8
3FF8
1F98
ENDCHAR
STARTCHAR Uogonek
ENCODING 370
SWIDTH 671 0
DWIDTH 21 0
BBX 17 30 2 -8
BITMAP
E00180
E00180
E00180
E00180
E00180
E00180
E00180
E00180
E00180
E00180
E00180
E00180
E00180
E00180
E00180
E00380
600380
700300
780700
3F3E00
1FFC00
07F000
00E000
01C000
018000
038000
038000
038000
01F000
00F000
ENDCHAR
STARTCHAR uogonek
ENCODING 371
SWIDTH 558 0
DWIDTH 18 0
BBX 13 24 2 -8
BITMAP
E018
E018
E018
E018
E018
E018
E018
E018
E018
E018
E018
E018
7038
78F8
3FF8
1F98
0070
00E0
01C0
01C0
0180
01C0
01F8
00F8
ENDCHAR
STARTCHAR Wcircumflex
ENCODING 372
SWIDTH 980 0
DWIDTH 31 0
BBX 30 29 1 0
BITMAP
00070000
000F8000
000DC000
0018E000
00306000
00000000
00000000
E007001C
E007801C
E0078018
E00F8038
700DC038
700DC030
701CC070
3818E070
3818E060
38386060
183070E0
1C3070E0
1C7030C0
1C6038C0
0C6039C0
0EE01980
0EC01D80
06C01F80
06C00F00
07C00F00
03800F00
03800700
ENDCHAR
STARTCHAR wcircumflex
ENCODING 373
SWIDTH 783 0
DWIDTH 25 0
BBX 23 24 1 0
BITMAP
001800
003C00
007E00
00C700
018300
000000
000000
000000
E03806
E03C06
E07C0E
606C0C
706C0C
706E1C
30C61C
30C618
38C718
198338
198330
1D83B0
0F01F0
0F01E0
0F01E0
0600E0
ENDCHAR
STARTCHAR Ycircumflex
ENCODING 374
SWIDTH 580 0
DWIDTH 19 0
BBX 18 29 0 0
BITMAP
00E000
01F000
03B800
031C00
060C00
000000
000000
F001C0
700180
380380
380700
1C0700
0E0E00
0E0C00
071C00
073800
03B800
01F000
01E000
00E000
00E000
00E000
00E000
00E000
00E000
00E000
00E000
00E000
00E000
ENDCHAR
STARTCHAR ycircumflex
ENCODING 375
SWIDTH 480 0
DWIDTH 15 0
BBX 14 31 1 -7
BITMAP
0600
0F00
0F80
19C0
3060
0000
0000
0000
C01C
E018
E018
6038
7030
7070
3070
3860
18E0
18C0
1CC0
0DC0
0F80
0780
0700
0700
0700
0600
0E00
0E00
0C00
1C00
1C00
ENDCHAR
STARTCHAR Ydieresis
ENCODING 376
SWIDTH 580 0
DWIDTH 19 0
BBX 18 28 0 0
BITMAP
071C00
0F1C00
0F1C00
020800
000000
000000
F001C0
700180
380380
380700
1C0700
0E0E00
0E0C00
071C00
073800
03B800
01F000
01E000
00E000
00E000
00E000
00E000
00E000
00E000
00E000
00E000
00E000
00E000
ENDCHAR
STARTCHAR Zacute
ENCODING 377
SWIDTH 636 0
DWIDTH 20 0
BBX 18 29 1 0
BITMAP
000800
001C00
007800
00F000
00C000
000000
000000
7FFFC0
7FFFC0
000380
000700
000F00
000E00
001C00
003800
007000
007000
00E000
01C000
038000
038000
070000
0E0000
1C0000
380000
380000
700000
FFFFC0
FFFFC0
ENDCHAR
STARTCHAR zacute
ENCODING 378
SWIDTH 464 0
DWIDTH 15 0
BBX 13 24 1 0
BITMAP
0080
00C0
01C0
0380
0300
0200
0000
0000
FFF0
FFF0
0070
00E0
01C0
01C0
0380
0700
0E00
0E00
1C00
3800
3800
7000
FFF8
FFF8
ENDCHAR
STARTCHAR Zdotaccent
ENCODING 379
SWIDTH 636 0
DWIDTH 20 0
BBX 18 29 1 0
BITMAP
004000
01E000
01E000
00C000
000000
000000
000000
7FFFC0
7FFFC0
000380
000700
000F00
000E00
001C00
003800
007000
007000
00E000
01C000
038000
038000
070000
0E0000
1C0000
380000
380000
700000
FFFFC0
FFFFC0
ENDCHAR
STARTCHAR zdotaccent
ENCODING 380
SWIDTH 464 0
DWIDTH 15 0
BBX 13 23 1 0
BITMAP
0700
0700
0700
0200
0000
0000
0000
FFF0
FFF0
0070
00E0
01C0
01C0
0380
0700
0E00
0E00
1C00
3800
3800
7000
FFF8
FFF8
ENDCHAR
STARTCHAR Zcaron
ENCODING 381
SWIDTH 636 0
DWIDTH 20 0
BBX 18 29 1 0
BITMAP
060C00
071800
03B000
01E000
00C000
000000
000000
7FFFC0
7FFFC0
000380
000700
000F00
000E00
001C00
003800
007000
007000
00E000
01C000
038000
038000
070000
0E0000
1C0000
380000
380000
700000
FFFFC0
FFFFC0
ENDCHAR
STARTCHAR zcaron
ENCODING 382
SWIDTH 464 0
DWIDTH 15 0
BBX 13 23 1 0
BITMAP
3060
38C0
1D80
0700
0200
0000
0000
FFF0
FFF0
0070
00E0
01C0
01C0
0380
0700
0E00
0E00
1C00
3800
3800
7000
FFF8
FFF8
ENDCHAR
STARTCHAR uni018F
ENCODING 399
SWIDTH 723 0
DWIDTH 23 0
BBX 19 22 2 0
BITMAP
0FF000
7FFC00
7C7F00
400780
0003C0
0001C0
0000E0
0000E0
0000E0
000060
FFFFE0
FFFFE0
C00060
C000E0
C000E0
E000E0
E001C0
7001C0
780380
3F1F00
0FFE00
03F000
ENDCHAR
STARTCHAR florin
ENCODING 402
SWIDTH 580 0
DWIDTH 19 0
BBX 11 31 4 -7
BITMAP
07C0
0FE0
1C40
1800
3800
3800
3800
3800
FFC0
FFC0
3800
3800
3800
3800
3800
3800
3800
3800
3800
3800
3800
3800
3800
3800
3800
3800
3800
3000
7000
E000
4000
ENDCHAR
STARTCHAR Ohorn
ENCODING 416
SWIDTH 760 0
DWIDTH 24 0
BBX 23 25 2 0
BITMAP
00000E
00000E
000006
01FC06
0FFF06
1F0F8E
3C03FC
7801F0
7000E0
E00070
E00070
E00030
C00038
C00038
C00038
E00030
E00030
E00070
E00070
7000E0
7800E0
3C03C0
1F0F80
0FFF00
01F800
ENDCHAR
STARTCHAR ohorn
ENCODING 417
SWIDTH 627 0
DWIDTH 20 0
BBX 17 19 2 0
BITMAP
000380
000380
000180
0FC180
1FF180
7CFB80
703F00
E01E00
E01C00
C00C00
C00C00
C00C00
C00C00
E00C00
E01C00
703800
7CF800
3FF000
0FC000
ENDCHAR
STARTCHAR Uhorn
ENCODING 431
SWIDTH 671 0
DWIDTH 21 0
BBX 22 25 2 0
BITMAP
00001C
00000C
00000C
E0018C
E0018C
E0019C
E001F8
E001E0
E00180
E00180
E00180
E00180
E00180
E00180
E00180
E00180
E00180
E00180
E00380
600380
700300
780700
3F3E00
1FFC00
07F000
ENDCHAR
STARTCHAR uhorn
ENCODING 432
SWIDTH 651 0
DWIDTH 21 0
BBX 18 19 2 0
BITMAP
000180
0001C0
0000C0
E018C0
E019C0
E01B80
E01F80
E01C00
E01800
E01800
E01800
E01800
E01800
E01800
E01800
703800
78F800
3FF800
1F9800
ENDCHAR
STARTCHAR uni01C4
ENCODING 452
SWIDTH 1347 0
DWIDTH 43 0
BBX 39 29 3 0
BITMAP
0000003060
00000038C0
0000001D80
0000000F00
0000000600
0000000000
0000000000
FFE007FFFC
FFF807FFFC
E07E00001C
E00F000038
E007000070
E0038000F0
E0038000E0
E001C001C0
E001C00380
E001C00700
E001C00700
E001C00E00
E001C01C00
E001C03800
E001803800
E003807000
E00380E000
E00701C000
E00E038000
E07C038000
FFF807FFFE
FFC007FFFE
ENDCHAR
STARTCHAR uni01C5
ENCODING 453
SWIDTH 1175 0
DWIDTH 38 0
BBX 33 23 3 0
BITMAP
0000018300
FFE001C600
FFFC00EC00
E0FE007800
E00F003000
E007800000
E003800000
E001C7FF80
E001C7FF80
E001C00300
E001C00700
E001C00E00
E001C01C00
E001C01C00
E001C03800
E001807000
E003806000
E00380E000
E00701C000
E00E038000
E07C038000
FFF807FF80
FFC007FF80
ENDCHAR
STARTCHAR uni01C6
ENCODING 454
SWIDTH 1034 0
DWIDTH 33 0
BBX 30 24 2 0
BITMAP
001C0810
001C1C30
001C1E60
001C07C0
001C0380
001C0180
001C0000
001C0000
0F9C7FFC
3FFC7FFC
7C7C0038
703C0070
E01C0060
E01C00E0
C01C01C0
C01C0380
C01C0380
C01C0700
E01C0E00
E01C0C00
F01C1C00
783C3800
3FFC7FFC
1F8C7FFC
ENDCHAR
STARTCHAR uni01C7
ENCODING 455
SWIDTH 904 0
DWIDTH 29 0
BBX 23 22 3 0
BITMAP
E00006
E00006
E00006
E00006
E00006
E00006
E00006
E00006
E00006
E00006
E00006
E00006
E00006
E00006
E00006
E00006
E00006
E0000E
E0000E
E0033C
FFFBFC
FFFBF0
ENDCHAR
STARTCHAR uni01C8
ENCODING 456
SWIDTH 752 0
DWIDTH 24 0
BBX 19 30 3 -7
BITMAP
000040
E001E0
E001E0
E000C0
E00000
E00000
E00000
E000C0
E000C0
E000C0
E000C0
E000C0
E000C0
E000C0
E000C0
E000C0
E000C0
E000C0
E000C0
E000C0
E000C0
FFF8C0
FFF8C0
0000C0
0000C0
0000C0
0001C0
000380
000700
000200
ENDCHAR
STARTCHAR uni01C9
ENCODING 457
SWIDTH 524 0
DWIDTH 17 0
BBX 12 31 3 -7
BITMAP
C000
C0E0
C0F0
C0F0
C040
C000
C000
C000
C060
C060
C060
C060
C060
C060
C060
C060
C060
C060
C060
C060
C060
E060
F860
7C60
0060
00E0
00E0
00C0
01C0
0380
0200
ENDCHAR
STARTCHAR uni01CA
ENCODING 458
SWIDTH 1148 0
DWIDTH 37 0
BBX 31 22 3 0
BITMAP
E000C006
F000C006
F800C006
F800C006
DC00C006
CE00C006
CE00C006
C700C006
C380C006
C380C006
C1C0C006
C0E0C006
C060C006
C070C006
C038C006
C01CC006
C01CC00E
C00EC00E
C007C00E
C007C33C
C003C7F8
C001C1F0
ENDCHAR
STARTCHAR uni01CB
ENCODING 459
SWIDTH 996 0
DWIDTH 32 0
BBX 27 29 3 -7
BITMAP
E000C1E0
F000C1E0
F800C0C0
F800C000
DC00C000
CE00C000
CE00C0C0
C700C0C0
C380C0C0
C380C0C0
C1C0C0C0
C0E0C0C0
C060C0C0
C070C0C0
C038C0C0
C01CC0C0
C01CC0C0
C00EC0C0
C007C0C0
C007C0C0
C003C0C0
C001C0C0
000000C0
000000C0
000001C0
000001C0
00000380
00000700
00000600
ENDCHAR
STARTCHAR uni01CC
ENCODING 460
SWIDTH 813 0
DWIDTH 26 0
BBX 21 30 3 -7
BITMAP
000030
000078
000078
000010
000000
000000
000000
CFC030
FFE030
F8F030
C07030
C03830
C03830
C03830
C03830
C03830
C03830
C03830
C03830
C03830
C03830
C03830
C03830
000030
000030
000030
000070
0000E0
0001C0
000180
ENDCHAR
STARTCHAR uni01CD
ENCODING 461
SWIDTH 626 0
DWIDTH 20 0
BBX 20 29 0 0
BITMAP
030600
038C00
01D800
00F000
006000
000000
000000
00F000
00F800
00F800
01D800
019C00
039C00
038C00
030E00
070E00
060600
060700
0E0700
0C0300
1FFF80
1FFF80
1801C0
3801C0
3801C0
3000E0
7000E0
7000E0
E00070
ENDCHAR
STARTCHAR uni01CE
ENCODING 462
SWIDTH 512 0
DWIDTH 16 0
BBX 13 23 1 0
BITMAP
1830
1CE0
0FC0
0780
0300
0000
0000
1FC0
7FE0
78F0
0038
0038
0038
0038
07F8
3FF8
7838
6038
E038
6038
78F8
3FD8
1F98
ENDCHAR
STARTCHAR uni01CF
ENCODING 463
SWIDTH 267 0
DWIDTH 9 0
BBX 9 29 0 0
BITMAP
C180
E300
7600
3C00
1C00
0000
0000
1C00
1C00
1C00
1C00
1C00
1C00
1C00
1C00
1C00
1C00
1C00
1C00
1C00
1C00
1C00
1C00
1C00
1C00
1C00
1C00
1C00
1C00
ENDCHAR
STARTCHAR uni01D0
ENCODING 464
SWIDTH 246 0
DWIDTH 8 0
BBX 9 23 0 0
BITMAP
C180
E700
7E00
3C00
1800
0000
0000
1800
1800
1800
1800
1800
1800
1800
1800
1800
1800
1800
1800
1800
1800
1800
1800
ENDCHAR
STARTCHAR uni01D1
ENCODING 465
SWIDTH 760 0
DWIDTH 24 0
BBX 21 29 2 0
BITMAP
020400
038C00
01DC00
00F800
007000
000000
000000
01FC00
0FFF00
1F0F80
3C03C0
7801E0
7000E0
E00070
E00070
E00030
C00038
C00038
C00038
E00030
E00030
E00070
E00070
7000E0
7800E0
3C03C0
1F0F80
0FFF00
01F800
ENDCHAR
STARTCHAR uni01D2
ENCODING 466
SWIDTH 567 0
DWIDTH 18 0
BBX 14 23 2 0
BITMAP
1830
1C60
0EC0
0780
0300
0000
0000
0FC0
1FF0
7CF8
7038
E01C
E01C
C00C
C00C
C00C
C00C
E00C
E01C
7038
7CF8
3FF0
0FC0
ENDCHAR
STARTCHAR uni01D3
ENCODING 467
SWIDTH 671 0
DWIDTH 21 0
BBX 17 29 2 0
BITMAP
040800
0E3800
077000
03E000
01C000
000000
000000
E00180
E00180
E00180
E00180
E00180
E00180
E00180
E00180
E00180
E00180
E00180
E00180
E00180
E00180
E00180
E00380
600380
700300
780700
3F3E00
1FFC00
07F000
ENDCHAR
STARTCHAR uni01D4
ENCODING 468
SWIDTH 558 0
DWIDTH 18 0
BBX 13 23 2 0
BITMAP
1860
3CE0
0FC0
0780
0300
0000
0000
E018
E018
E018
E018
E018
E018
E018
E018
E018
E018
E018
E018
7038
78F8
3FF8
1F98
ENDCHAR
STARTCHAR uni01D5
ENCODING 469
SWIDTH 671 0
DWIDTH 21 0
BBX 17 32 2 0
BITMAP
0FFC00
0FFC00
000000
000000
0E3800
0E3C00
0E3C00
041000
000000
000000
E00180
E00180
E00180
E00180
E00180
E00180
E00180
E00180
E00180
E00180
E00180
E00180
E00180
E00180
E00180
E00380
600380
700300
780700
3F3E00
1FFC00
07F000
ENDCHAR
STARTCHAR uni01D6
ENCODING 470
SWIDTH 558 0
DWIDTH 18 0
BBX 13 26 2 0
BITMAP
3FF0
3FF0
0000
0000
0000
38E0
38E0
38E0
0000
0000
E018
E018
E018
E018
E018
E018
E018
E018
E018
E018
E018
E018
7038
78F8
3FF8
1F98
ENDCHAR
STARTCHAR uni01D7
ENCODING 471
SWIDTH 671 0
DWIDTH 21 0
BBX 17 34 2 0
BITMAP
001000
003800
007800
00E000
01C000
000000
0E3800
0E3C00
0E3C00
041000
000000
000000
E00180
E00180
E00180
E00180
E00180
E00180
E00180
E00180
E00180
E00180
E00180
E00180
E00180
E00180
E00180
E00380
600380
700300
780700
3F3E00
1FFC00
07F000
ENDCHAR
STARTCHAR uni01D8
ENCODING 472
SWIDTH 558 0
DWIDTH 18 0
BBX 13 28 2 0
BITMAP
0040
00E0
01C0
0180
0300
0000
0000
38E0
38E0
38E0
0000
0000
E018
E018
E018
E018
E018
E018
E018
E018
E018
E018
E018
E018
7038
78F8
3FF8
1F98
ENDCHAR
STARTCHAR uni01D9
ENCODING 473
SWIDTH 671 0
DWIDTH 21 0
BBX 17 34 2 0
BITMAP
040800
0E1800
077000
03E000
01C000
000000
0E3800
0E3C00
0E3C00
041000
000000
000000
E00180
E00180
E00180
E00180
E00180
E00180
E00180
E00180
E00180
E00180
E00180
E00180
E00180
E00180
E00180
E00380
600380
700300
780700
3F3E00
1FFC00
07F000
ENDCHAR
STARTCHAR uni01DA
ENCODING 474
SWIDTH 558 0
DWIDTH 18 0
BBX 13 28 2 0
BITMAP
1020
3860
1CC0
0F80
0780
0300
0000
38E0
38E0
38E0
0000
0000
E018
E018
E018
E018
E018
E018
E018
E018
E018
E018
E018
E018
7038
78F8
3FF8
1F98
ENDCHAR
STARTCHAR uni01DB
ENCODING 475
SWIDTH 671 0
DWIDTH 21 0
BBX 17 34 2 0
BITMAP
040000
0E0000
070000
038000
00C000
000000
0E3800
0E3C00
0E3C00
041000
000000
000000
E00180
E00180
E00180
E00180
E00180
E00180
E00180
E00180
E00180
E00180
E00180
E00180
E00180
E00180
E00180
E00380
600380
700300
780700
3F3E00
1FFC00
07F000
ENDCHAR
STARTCHAR uni01DC
ENCODING 476
SWIDTH 558 0
DWIDTH 18 0
BBX 13 28 2 0
BITMAP
1800
3800
1C00
0E00
0600
0200
0000
38E0
38E0
38E0
0000
0000
E018
E018
E018
E018
E018
E018
E018
E018
E018
E018
E018
E018
7038
78F8
3FF8
1F98
ENDCHAR
STARTCHAR Gcaron
ENCODING 486
SWIDTH 715 0
DWIDTH 23 0
BBX 19 29 2 0
BITMAP
010200
038600
01DC00
00F800
007000
000000
000000
01FE00
07FFC0
1F87C0
3C0000
380000
700000
600000
E00000
E00000
C00000
C03FE0
C03FE0
E000E0
E000E0
E000E0
7000E0
7000E0
3800E0
3E00E0
1F87E0
07FF80
01FE00
ENDCHAR
STARTCHAR gcaron
ENCODING 487
SWIDTH 570 0
DWIDTH 18 0
BBX 14 30 2 -7
BITMAP
1830
1CE0
0FC0
0780
0300
0000
0000
0FCC
3FFC
7C7C
703C
E01C
E01C
C01C
C01C
C01C
C01C
E01C
E01C
701C
7CFC
3FFC
0F9C
0018
0018
0038
0038
30F0
7FE0
1F80
ENDCHAR
STARTCHAR uni01EA
ENCODING 490
SWIDTH 760 0
DWIDTH 24 0
BBX 21 30 2 -8
BITMAP
01FC00
0FFF00
1F0F80
3C03C0
7801E0
7000E0
E00070
E00070
E00030
C00038
C00038
C00038
E00030
E00030
E00070
E00070
7000E0
7800E0
3C03C0
1F0F80
0FFF00
01F800
007000
00E000
00C000
01C000
01C000
01C000
00F800
007800
ENDCHAR
STARTCHAR uni01EB
ENCODING 491
SWIDTH 567 0
DWIDTH 18 0
BBX 14 24 2 -8
BITMAP
0FC0
1FF0
7CF8
7038
E01C
E01C
C00C
C00C
C00C
C00C
E00C
E01C
7038
7CF8
3FF0
0FC0
0300
0700
0600
0E00
0E00
0E00
07C0
03C0
ENDCHAR
STARTCHAR Aringacute
ENCODING 506
SWIDTH 626 0
DWIDTH 20 0
BBX 20 32 0 0
BITMAP
000080
000180
00F7C0
01FF00
019C00
018800
019800
01F800
00F000
000000
00F000
00F800
00F800
01D800
019C00
039C00
038C00
030E00
070E00
060600
060700
0E0700
0C0300
1FFF80
1FFF80
1801C0
3801C0
3801C0
3000E0
7000E0
7000E0
E00070
ENDCHAR
STARTCHAR aringacute
ENCODING 507
SWIDTH 512 0
DWIDTH 16 0
BBX 13 28 1 0
BITMAP
0030
0078
0070
07E0
0FC0
0CC0
08C0
0CC0
0FC0
0780
0000
0000
1FC0
7FE0
78F0
0038
0038
0038
0038
07F8
3FF8
7838
6038
E038
6038
78F8
3FD8
1F98
ENDCHAR
STARTCHAR AEacute
ENCODING 508
SWIDTH 919 0
DWIDTH 29 0
BBX 28 29 0 0
BITMAP
00002000
00007000
0001E000
0003C000
00030000
00000000
00000000
0007FFF0
000FFFF0
001F0000
001B0000
003B0000
00330000
00730000
00E30000
00C30000
01C30000
0383FFE0
0383FFE0
07030000
07FF0000
0FFF0000
1FFF0000
1C030000
38030000
30030000
70030000
E003FFF0
E003FFF0
ENDCHAR
STARTCHAR aeacute
ENCODING 509
SWIDTH 834 0
DWIDTH 27 0
BBX 23 24 2 0
BITMAP
000400
000600
000E00
001C00
001800
001000
000000
000000
1F83E0
FFCFF8
F1FE3C
80780C
00700E
00300E
003006
07FFFE
3FFFFE
F07000
C03000
C03800
C07C00
F1DE0C
7F8FFC
3E03F8
ENDCHAR
STARTCHAR Oslashacute
ENCODING 510
SWIDTH 760 0
DWIDTH 24 0
BBX 21 30 2 -1
BITMAP
000C00
001E00
003800
007000
004000
000040
0000E0
01FCC0
0FFFC0
1F1F80
3C03C0
7807E0
7006E0
E00C70
E01C70
E01830
C03038
C07038
C06038
E0C030
E1C030
E18070
E30070
7700E0
7E00E0
3C03C0
1F8F80
3FFF00
31F800
300000
ENDCHAR
STARTCHAR oslashacute
ENCODING 511
SWIDTH 567 0
DWIDTH 18 0
BBX 14 26 2 -2
BITMAP
0040
00E0
00E0
01C0
0380
0100
0000
000C
0FD8
1FF0
7CF8
7078
E0DC
E0DC
C18C
C30C
C30C
C60C
EC0C
EC1C
7838
7CF8
7FF0
6FC0
C000
4000
ENDCHAR
STARTCHAR uni0200
ENCODING 512
SWIDTH 626 0
DWIDTH 20 0
BBX 20 30 0 0
BITMAP
041000
0C3800
0E3800
071C00
038E00
010400
000000
000000
00F000
00F800
00F800
01D800
019C00
039C00
038C00
030E00
070E00
060600
060700
0E0700
0C0300
1FFF80
1FFF80
1801C0
3801C0
3801C0
3000E0
7000E0
7000E0
E00070
ENDCHAR
STARTCHAR uni0201
ENCODING 513
SWIDTH 512 0
DWIDTH 16 0
BBX 13 24 1 0
BITMAP
2100
6380
7180
31C0
18C0
1840
0000
0000
1FC0
7FE0
78F0
0038
0038
0038
0038
07F8
3FF8
7838
6038
E038
6038
78F8
3FD8
1F98
ENDCHAR
STARTCHAR uni0202
ENCODING 514
SWIDTH 626 0
DWIDTH 20 0
BBX 20 29 0 0
BITMAP
00F000
01FC00
031C00
020E00
020400
000000
000000
00F000
00F800
00F800
01D800
019C00
039C00
038C00
030E00
070E00
060600
060700
0E0700
0C0300
1FFF80
1FFF80
1801C0
3801C0
3801C0
3000E0
7000E0
7000E0
E00070
ENDCHAR
STARTCHAR uni0203
ENCODING 515
SWIDTH 512 0
DWIDTH 16 0
BBX 13 24 1 0
BITMAP
0780
0FC0
18E0
3060
3060
0000
0000
0000
1FC0
7FE0
78F0
0038
0038
0038
0038
07F8
3FF8
7838
6038
E038
6038
78F8
3FD8
1F98
ENDCHAR
STARTCHAR uni0204
ENCODING 516
SWIDTH 584 0
DWIDTH 19 0
BBX 14 30 3 0
BITMAP
2080
71C0
71E0
38E0
1C30
0000
0000
0000
FFFC
FFFC
E000
E000
E000
E000
E000
E000
E000
E000
FFF8
FFF8
E000
E000
E000
E000
E000
E000
E000
E000
FFFC
FFFC
ENDCHAR
STARTCHAR uni0205
ENCODING 517
SWIDTH 528 0
DWIDTH 17 0
BBX 13 24 2 0
BITMAP
2100
E380
7180
31C0
18C0
1840
0000
0000
0F80
3FE0
78F0
7038
E038
E018
C018
FFF8
FFF8
C000
E000
E000
7000
7C10
3FF8
0FE0
ENDCHAR
STARTCHAR uni0206
ENCODING 518
SWIDTH 584 0
DWIDTH 19 0
BBX 14 29 3 0
BITMAP
07C0
0FE0
1870
1830
1020
0000
0000
FFFC
FFFC
E000
E000
E000
E000
E000
E000
E000
E000
FFF8
FFF8
E000
E000
E000
E000
E000
E000
E000
E000
FFFC
FFFC
ENDCHAR
STARTCHAR uni0207
ENCODING 519
SWIDTH 528 0
DWIDTH 17 0
BBX 13 24 2 0
BITMAP
0780
1FC0
18E0
3060
2060
0000
0000
0000
0F80
3FE0
78F0
7038
E038
E018
C018
FFF8
FFF8
C000
E000
E000
7000
7C10
3FF8
0FE0
ENDCHAR
STARTCHAR uni0208
ENCODING 520
SWIDTH 267 0
DWIDTH 9 0
BBX 11 30 -2 0
BITMAP
4100
E380
E3C0
70C0
1860
0000
0000
0000
0700
0700
0700
0700
0700
0700
0700
0700
0700
0700
0700
0700
0700
0700
0700
0700
0700
0700
0700
0700
0700
0700
ENDCHAR
STARTCHAR uni0209
ENCODING 521
SWIDTH 246 0
DWIDTH 8 0
BBX 9 24 -2 0
BITMAP
4300
E700
E300
6180
3180
1080
0000
0000
0600
0600
0600
0600
0600
0600
0600
0600
0600
0600
0600
0600
0600
0600
0600
0600
ENDCHAR
STARTCHAR uni020A
ENCODING 522
SWIDTH 267 0
DWIDTH 9 0
BBX 9 29 0 0
BITMAP
3E00
7F00
C380
C180
8100
0000
0000
1C00
1C00
1C00
1C00
1C00
1C00
1C00
1C00
1C00
1C00
1C00
1C00
1C00
1C00
1C00
1C00
1C00
1C00
1C00
1C00
1C00
1C00
ENDCHAR
STARTCHAR uni020B
ENCODING 523
SWIDTH 246 0
DWIDTH 8 0
BBX 10 24 -1 0
BITMAP
1E00
3F00
6380
41C0
C080
0000
0000
0000
0C00
0C00
0C00
0C00
0C00
0C00
0C00
0C00
0C00
0C00
0C00
0C00
0C00
0C00
0C00
0C00
ENDCHAR
STARTCHAR uni020C
ENCODING 524
SWIDTH 760 0
DWIDTH 24 0
BBX 21 30 2 0
BITMAP
040000
0C3000
0E3800
071C00
038E00
010400
000000
000000
01FC00
0FFF00
1F0F80
3C03C0
7801E0
7000E0
E00070
E00070
E00030
C00038
C00038
C00038
E00030
E00030
E00070
E00070
7000E0
7800E0
3C03C0
1F0F80
0FFF00
01F800
ENDCHAR
STARTCHAR uni020D
ENCODING 525
SWIDTH 567 0
DWIDTH 18 0
BBX 14 24 2 0
BITMAP
2180
7380
31C0
38C0
18C0
0860
0000
0000
0FC0
1FF0
7CF8
7038
E01C
E01C
C00C
C00C
C00C
C00C
E00C
E01C
7038
7CF8
3FF0
0FC0
ENDCHAR
STARTCHAR uni020E
ENCODING 526
SWIDTH 760 0
DWIDTH 24 0
BBX 21 29 2 0
BITMAP
00F800
01FC00
030E00
020E00
020400
000000
000000
01FC00
0FFF00
1F0F80
3C03C0
7801E0
7000E0
E00070
E00070
E00030
C00038
C00038
C00038
E00030
E00030
E00070
E00070
7000E0
7800E0
3C03C0
1F0F80
0FFF00
01F800
ENDCHAR
STARTCHAR uni020F
ENCODING 527
SWIDTH 567 0
DWIDTH 18 0
BBX 14 24 2 0
BITMAP
0780
0FE0
18E0
1070
3030
0000
0000
0000
0FC0
1FF0
7CF8
7038
E01C
E01C
C00C
C00C
C00C
C00C
E00C
E01C
7038
7CF8
3FF0
0FC0
ENDCHAR
STARTCHAR uni0210
ENCODING 528
SWIDTH 620 0
DWIDTH 20 0
BBX 16 30 3 0
BITMAP
2080
6180
71C0
38E0
1C70
0820
0000
0000
FFE0
FFF8
E0FC
E01C
E01E
E00E
E00E
E00E
E00C
E01C
E078
FFF0
FFC0
E0E0
E070
E070
E038
E038
E01C
E01E
E00E
E007
ENDCHAR
STARTCHAR uni0211
ENCODING 529
SWIDTH 377 0
DWIDTH 12 0
BBX 11 24 1 0
BITMAP
4100
E300
6380
3180
30C0
1080
0000
0000
31E0
37E0
3F40
3800
3000
3000
3000
3000
3000
3000
3000
3000
3000
3000
3000
3000
ENDCHAR
STARTCHAR uni0212
ENCODING 530
SWIDTH 620 0
DWIDTH 20 0
BBX 16 29 3 0
BITMAP
0780
0FE0
18E0
1070
1020
0000
0000
FFE0
FFF8
E0FC
E01C
E01E
E00E
E00E
E00E
E00C
E01C
E078
FFF0
FFC0
E0E0
E070
E070
E038
E038
E01C
E01E
E00E
E007
ENDCHAR
STARTCHAR uni0213
ENCODING 531
SWIDTH 377 0
DWIDTH 12 0
BBX 9 24 3 0
BITMAP
3C00
7F00
E700
C380
8180
0000
0000
0000
C780
DF80
FD00
E000
C000
C000
C000
C000
C000
C000
C000
C000
C000
C000
C000
C000
ENDCHAR
STARTCHAR uni0214
ENCODING 532
SWIDTH 671 0
DWIDTH 21 0
BBX 17 29 2 0
BITMAP
186000
1C7000
0E3800
061C00
020800
000000
000000
E00180
E00180
E00180
E00180
E00180
E00180
E00180
E00180
E00180
E00180
E00180
E00180
E00180
E00180
E00180
E00380
600380
700300
780700
3F3E00
1FFC00
07F000
ENDCHAR
STARTCHAR uni0215
ENCODING 533
SWIDTH 558 0
DWIDTH 18 0
BBX 13 24 2 0
BITMAP
2100
6380
7180
31C0
18C0
1040
0000
0000
E018
E018
E018
E018
E018
E018
E018
E018
E018
E018
E018
E018
7038
78F8
3FF8
1F98
ENDCHAR
STARTCHAR uni0216
ENCODING 534
SWIDTH 671 0
DWIDTH 21 0
BBX 17 29 2 0
BITMAP
01E000
07F000
063800
0C1C00
0C1800
000000
000000
E00180
E00180
E00180
E00180
E00180
E00180
E00180
E00180
E00180
E00180
E00180
E00180
E00180
E00180
E00180
E00380
600380
700300
780700
3F3E00
1FFC00
07F000
ENDCHAR
STARTCHAR uni0217
ENCODING 535
SWIDTH 558 0
DWIDTH 18 0
BBX 13 24 2 0
BITMAP
0780
1FC0
18E0
3060
3060
0000
0000
0000
E018
E018
E018
E018
E018
E018
E018
E018
E018
E018
E018
E018
7038
78F8
3FF8
1F98
ENDCHAR
STARTCHAR uni0218
ENCODING 536
SWIDTH 553 0
DWIDTH 18 0
BBX 16 29 1 -7
BITMAP
07F0
1FFE
3E1C
7000
6000
E000
E000
7000
7800
3F00
1FE0
03F8
007C
001E
000E
0007
0007
0006
000E
FC7C
7FF8
0FE0
0000
0000
0380
0380
0380
0300
0300
ENDCHAR
STARTCHAR uni0219
ENCODING 537
SWIDTH 464 0
DWIDTH 15 0
BBX 11 23 2 -7
BITMAP
1FC0
7FE0
F040
C000
C000
E000
F800
7F00
1FC0
01E0
00E0
0060
0060
E1E0
FFC0
3F00
0000
0000
0E00
0E00
0C00
0C00
0800
ENDCHAR
STARTCHAR uni021A
ENCODING 538
SWIDTH 566 0
DWIDTH 18 0
BBX 18 29 0 -7
BITMAP
FFFFC0
FFFFC0
00C000
00C000
00C000
00C000
00C000
00C000
00C000
00C000
00C000
00C000
00C000
00C000
00C000
00C000
00C000
00C000
00C000
00C000
00C000
00C000
000000
000000
00C000
00C000
00C000
01C000
018000
ENDCHAR
STARTCHAR uni021B
ENCODING 539
SWIDTH 361 0
DWIDTH 12 0
BBX 10 28 1 -7
BITMAP
3800
3800
3800
3800
3800
FF80
FF80
3800
3800
3800
3800
3800
3800
3800
3800
3800
3800
3800
1C00
1F80
07C0
0000
0000
0600
0E00
0E00
0C00
0C00
ENDCHAR
STARTCHAR uni022A
ENCODING 554
SWIDTH 760 0
DWIDTH 24 0
BBX 21 32 2 0
BITMAP
07FE00
07FE00
000000
000000
070E00
079E00
078E00
020400
000000
000000
01FC00
0FFF00
1F0F80
3C03C0
7801E0
7000E0
E00070
E00070
E00030
C00038
C00038
C00038
E00030
E00030
E00070
E00070
7000E0
7800E0
3C03C0
1F0F80
0FFF00
01F800
ENDCHAR
STARTCHAR uni022B
ENCODING 555
SWIDTH 567 0
DWIDTH 18 0
BBX 14 26 2 0
BITMAP
3FF0
3FF0
0000
0000
0000
1C70
3CF0
1860
0000
0000
0FC0
1FF0
7CF8
7038
E01C
E01C
C00C
C00C
C00C
C00C
E00C
E01C
7038
7CF8
3FF0
0FC0
ENDCHAR
STARTCHAR uni022C
ENCODING 556
SWIDTH 760 0
DWIDTH 24 0
BBX 21 33 2 0
BITMAP
07FE00
07FE00
000000
000000
000000
018200
07E700
067E00
041C00
000000
000000
01FC00
0FFF00
1F0F80
3C03C0
7801E0
7000E0
E00070
E00070
E00030
C00038
C00038
C00038
E00030
E00030
E00070
E00070
7000E0
7800E0
3C03C0
1F0F80
0FFF00
01F800
ENDCHAR
STARTCHAR uni022D
ENCODING 557
SWIDTH 567 0
DWIDTH 18 0
BBX 14 27 2 0
BITMAP
3FF0
3FF0
0000
0000
0400
1F18
3FF0
33E0
0000
0000
0000
0FC0
1FF0
7CF8
7038
E01C
E01C
C00C
C00C
C00C
C00C
E00C
E01C
7038
7CF8
3FF0
0FC0
ENDCHAR
STARTCHAR uni0230
ENCODING 560
SWIDTH 760 0
DWIDTH 24 0
BBX 21 32 2 0
BITMAP
07FE00
07FE00
000000
000000
006000
00F000
00F000
002000
000000
000000
01FC00
0FFF00
1F0F80
3C03C0
7801E0
7000E0
E00070
E00070
E00030
C00038
C00038
C00038
E00030
E00030
E00070
E00070
7000E0
7800E0
3C03C0
1F0F80
0FFF00
01F800
ENDCHAR
STARTCHAR uni0231
ENCODING 561
SWIDTH 567 0
DWIDTH 18 0
BBX 14 26 2 0
BITMAP
3FF0
3FF0
0000
0000
0000
0380
0780
0300
0000
0000
0FC0
1FF0
7CF8
7038
E01C
E01C
C00C
C00C
C00C
C00C
E00C
E01C
7038
7CF8
3FF0
0FC0
ENDCHAR
STARTCHAR uni0232
ENCODING 562
SWIDTH 580 0
DWIDTH 19 0
BBX 18 27 0 0
BITMAP
0FFC00
0FFC00
000000
000000
000000
F001C0
700180
380380
380700
1C0700
0E0E00
0E0C00
071C00
073800
03B800
01F000
01E000
00E000
00E000
00E000
00E000
00E000
00E000
00E000
00E000
00E000
00E000
ENDCHAR
STARTCHAR uni0233
ENCODING 563
SWIDTH 480 0
DWIDTH 15 0
BBX 14 29 1 -7
BITMAP
7FE0
7FE0
0000
0000
0000
0000
C01C
E018
E018
6038
7030
7070
3070
3860
18E0
18C0
1CC0
0DC0
0F80
0780
0700
0700
0700
0600
0E00
0E00
0C00
1C00
1C00
ENDCHAR
STARTCHAR uni0237
ENCODING 567
SWIDTH 246 0
DWIDTH 8 0
BBX 5 23 0 -7
BITMAP
18
18
18
18
18
18
18
18
18
18
18
18
18
18
18
18
18
18
38
30
70
E0
C0
ENDCHAR
STARTCHAR uni0259
ENCODING 601
SWIDTH 528 0
DWIDTH 17 0
BBX 13 16 2 0
BITMAP
3F00
FFC0
41E0
0070
0038
0038
0038
FFF8
FFF8
C038
C038
C038
E070
70E0
3FC0
1F80
ENDCHAR
STARTCHAR uni02B9
ENCODING 697
SWIDTH 161 0
DWIDTH 5 0
BBX 4 9 1 13
BITMAP
70
60
60
E0
E0
E0
C0
C0
C0
ENDCHAR
STARTCHAR uni02BA
ENCODING 698
SWIDTH 341 0
DWIDTH 11 0
BBX 9 9 1 13
BITMAP
7180
6180
6380
E380
E300
E300
C300
C300
C700
ENDCHAR
STARTCHAR uni02BB
ENCODING 699
SWIDTH 157 0
DWIDTH 5 0
BBX 3 5 1 18
BITMAP
60
E0
C0
C0
C0
ENDCHAR
STARTCHAR uni02BC
ENCODING 700
SWIDTH 166 0
DWIDTH 5 0
BBX 5 9 0 15
BITMAP
38
38
30
30
30
70
60
60
E0
ENDCHAR
STARTCHAR uni02BE
ENCODING 702
SWIDTH 177 0
DWIDTH 6 0
BBX 4 6 1 18
BITMAP
C0
F0
30
30
E0
C0
ENDCHAR
STARTCHAR uni02BF
ENCODING 703
SWIDTH 177 0
DWIDTH 6 0
BBX 4 6 1 18
BITMAP
70
F0
C0
C0
F0
70
ENDCHAR
STARTCHAR circumflex
ENCODING 710
SWIDTH 500 0
DWIDTH 16 0
BBX 9 5 4 18
BITMAP
3C00
3E00
6700
C380
8100
ENDCHAR
STARTCHAR caron
ENCODING 711
SWIDTH 500 0
DWIDTH 16 0
BBX 9 5 4 18
BITMAP
C180
E300
7600
3C00
1800
ENDCHAR
STARTCHAR uni02C8
ENCODING 712
SWIDTH 148 0
DWIDTH 5 0
BBX 2 6 1 18
BITMAP
C0
C0
C0
C0
C0
C0
ENDCHAR
STARTCHAR uni02C9
ENCODING 713
SWIDTH 397 0
DWIDTH 13 0
BBX 10 2 1 19
BITMAP
FFC0
FFC0
ENDCHAR
STARTCHAR uni02CA
ENCODING 714
SWIDTH 158 0
DWIDTH 5 0
BBX 5 6 0 18
BITMAP
10
38
38
70
E0
C0
ENDCHAR
STARTCHAR uni02CB
ENCODING 715
SWIDTH 159 0
DWIDTH 5 0
BBX 5 6 0 18
BITMAP
40
E0
E0
70
38
18
ENDCHAR
STARTCHAR uni02CC
ENCODING 716
SWIDTH 148 0
DWIDTH 5 0
BBX 2 6 1 -7
BITMAP
C0
C0
C0
C0
C0
C0
ENDCHAR
STARTCHAR breve
ENCODING 728
SWIDTH 500 0
DWIDTH 16 0
BBX 10 4 3 18
BITMAP
E0C0
7180
7F80
1E00
ENDCHAR
STARTCHAR dotaccent
ENCODING 729
SWIDTH 500 0
DWIDTH 16 0
BBX 4 3 6 19
BITMAP
F0
F0
60
ENDCHAR
STARTCHAR ring
ENCODING 730
SWIDTH 500 0
DWIDTH 16 0
BBX 6 6 5 18
BITMAP
78
FC
CC
CC
FC
78
ENDCHAR
STARTCHAR ogonek
ENCODING 731
SWIDTH 500 0
DWIDTH 16 0
BBX 6 8 5 -8
BITMAP
1C
70
60
E0
E0
E0
FC
7C
ENDCHAR
STARTCHAR tilde
ENCODING 732
SWIDTH 500 0
DWIDTH 16 0
BBX 10 4 3 18
BITMAP
7040
FCC0
CFC0
8380
ENDCHAR
STARTCHAR hungarumlaut
ENCODING 733
SWIDTH 500 0
DWIDTH 16 0
BBX 10 6 3 18
BITMAP
2080
39C0
7180
6380
6300
C200
ENDCHAR
STARTCHAR gravecomb
ENCODING 768
SWIDTH 0 0
DWIDTH 0 0
BBX 4 6 2 18
BITMAP
80
C0
E0
60
30
10
ENDCHAR
STARTCHAR acutecomb
ENCODING 769
SWIDTH 0 0
DWIDTH 0 0
BBX 5 6 2 18
BITMAP
10
38
78
70
E0
C0
ENDCHAR
STARTCHAR uni0302
ENCODING 770
SWIDTH 0 0
DWIDTH 0 0
BBX 9 5 2 18
BITMAP
1C00
3E00
6700
C380
8100
ENDCHAR
STARTCHAR tildecomb
ENCODING 771
SWIDTH 0 0
DWIDTH 0 0
BBX 11 4 2 18
BITMAP
3860
7C60
C7C0
4180
ENDCHAR
STARTCHAR uni0304
ENCODING 772
SWIDTH 0 0
DWIDTH 0 0
BBX 10 2 3 19
BITMAP
FFC0
FFC0
ENDCHAR
STARTCHAR uni0306
ENCODING 774
SWIDTH 0 0
DWIDTH 0 0
BBX 9 5 2 18
BITMAP
4080
C080
E180
7F00
3E00
ENDCHAR
STARTCHAR uni0307
ENCODING 775
SWIDTH 0 0
DWIDTH 0 0
BBX 4 4 2 19
BITMAP
20
70
F0
70
ENDCHAR
STARTCHAR uni0308
ENCODING 776
SWIDTH 0 0
DWIDTH 0 0
BBX 10 4 2 19
BITMAP
2080
71C0
F1C0
71C0
ENDCHAR
STARTCHAR hookabovecomb
ENCODING 777
SWIDTH 0 0
DWIDTH 0 0
BBX 7 7 1 18
BITMAP
7C
FE
0E
06
0C
1C
10
ENDCHAR
STARTCHAR uni030A
ENCODING 778
SWIDTH 0 0
DWIDTH 0 0
BBX 7 6 2 18
BITMAP
38
7C
C6
C6
7C
38
ENDCHAR
STARTCHAR uni030B
ENCODING 779
SWIDTH 0 0
DWIDTH 0 0
BBX 10 6 2 18
BITMAP
2080
39C0
7180
6380
6300
C200
ENDCHAR
STARTCHAR uni030C
ENCODING 780
SWIDTH 0 0
DWIDTH 0 0
BBX 9 5 2 18
BITMAP
C180
E300
7E00
3C00
1800
ENDCHAR
STARTCHAR uni030D
ENCODING 781
SWIDTH 0 0
DWIDTH 0 0
BBX 2 6 3 18
BITMAP
C0
C0
C0
C0
C0
C0
ENDCHAR
STARTCHAR uni030F
ENCODING 783
SWIDTH 0 0
DWIDTH 0 0
BBX 10 6 2 18
BITMAP
4100
E700
6380
7180
3180
10C0
ENDCHAR
STARTCHAR uni0311
ENCODING 785
SWIDTH 0 0
DWIDTH 0 0
BBX 9 5 2 18
BITMAP
1E00
7F00
6380
C180
8180
ENDCHAR
STARTCHAR uni0312
ENCODING 786
SWIDTH 0 0
DWIDTH 0 0
BBX 3 5 3 18
BITMAP
60
60
E0
E0
E0
ENDCHAR
STARTCHAR uni031B
ENCODING 795
SWIDTH 0 0
DWIDTH 0 0
BBX 6 8 2 11
BITMAP
38
18
1C
1C
18
38
F0
E0
ENDCHAR
STARTCHAR dotbelowcomb
ENCODING 803
SWIDTH 0 0
DWIDTH 0 0
BBX 3 4 3 -6
BITMAP
40
E0
E0
E0
ENDCHAR
STARTCHAR uni0324
ENCODING 804
SWIDTH 0 0
DWIDTH 0 0
BBX 10 4 3 -6
BITMAP
4100
E380
E3C0
E380
ENDCHAR
STARTCHAR uni0326
ENCODING 806
SWIDTH 0 0
DWIDTH 0 0
BBX 3 5 3 -7
BITMAP
60
60
60
60
C0
ENDCHAR
STARTCHAR uni0327
ENCODING 807
SWIDTH 0 0
DWIDTH 0 0
BBX 7 8 2 -8
BITMAP
20
60
78
3C
0E
0E
FC
F8
ENDCHAR
STARTCHAR uni0328
ENCODING 808
SWIDTH 0 0
DWIDTH 0 0
BBX 6 9 8 -8
BITMAP
04
1C
30
60
E0
E0
E0
7C
3C
ENDCHAR
STARTCHAR uni0329
ENCODING 809
SWIDTH 0 0
DWIDTH 0 0
BBX 2 6 3 -7
BITMAP
C0
C0
C0
C0
C0
C0
ENDCHAR
STARTCHAR uni032E
ENCODING 814
SWIDTH 0 0
DWIDTH 0 0
BBX 9 4 2 -7
BITMAP
C080
E180
7F00
3E00
ENDCHAR
STARTCHAR uni0331
ENCODING 817
SWIDTH 0 0
DWIDTH 0 0
BBX 10 2 3 -5
BITMAP
FFC0
FFC0
ENDCHAR
STARTCHAR uni0335
ENCODING 821
SWIDTH 0 0
DWIDTH 0 0
BBX 9 2 3 9
BITMAP
FF80
FF80
ENDCHAR
STARTCHAR uni0336
ENCODING 822
SWIDTH 0 0
DWIDTH 0 0
BBX 23 2 3 10
BITMAP
FFFFFE
FFFFFE
ENDCHAR
STARTCHAR uni0337
ENCODING 823
SWIDTH 0 0
DWIDTH 0 0
BBX 9 6 1 6
BITMAP
0180
0380
0F00
3C00
F000
4000
ENDCHAR
STARTCHAR uni0338
ENCODING 824
SWIDTH 0 0
DWIDTH 0 0
BBX 13 19 1 -2
BITMAP
0008
0018
0030
0030
0060
00C0
00C0
0180
0300
0300
0600
0C00
0C00
1800
3000
7000
6000
C000
8000
ENDCHAR
STARTCHAR pi
ENCODING 960
SWIDTH 607 0
DWIDTH 19 0
BBX 17 16 1 0
BITMAP
FFFF80
FFFF80
380C00
380C00
380C00
380C00
380C00
380C00
380C00
380C00
380C00
380C00
380C00
380E00
380F80
380780
ENDCHAR
STARTCHAR uni0400
ENCODING 1024
SWIDTH 584 0
DWIDTH 19 0
BBX 14 29 3 0
BITMAP
0800
1C00
1E00
0700
0300
0000
0000
FFFC
FFFC
E000
E000
E000
E000
E000
E000
E000
E000
FFF8
FFF8
E000
E000
E000
E000
E000
E000
E000
E000
FFFC
FFFC
ENDCHAR
STARTCHAR uni0401
ENCODING 1025
SWIDTH 584 0
DWIDTH 19 0
BBX 14 28 3 0
BITMAP
1870
3C70
3C70
0020
0000
0000
FFFC
FFFC
E000
E000
E000
E000
E000
E000
E000
E000
FFF8
FFF8
E000
E000
E000
E000
E000
E000
E000
E000
FFFC
FFFC
ENDCHAR
STARTCHAR uni0402
ENCODING 1026
SWIDTH 780 0
DWIDTH 25 0
BBX 23 22 1 0
BITMAP
FFFF80
FFFF80
01C000
01C000
01C000
01C000
01C000
01C000
01C7E0
01FFF0
01F878
01C01C
01C01C
01C00E
01C00E
01C00C
01C00C
01C01C
01C038
01C0F0
01C3E0
01C380
ENDCHAR
STARTCHAR uni0403
ENCODING 1027
SWIDTH 542 0
DWIDTH 17 0
BBX 13 29 3 0
BITMAP
0080
01C0
03C0
0700
0600
0000
0000
FFF8
FFF8
E000
E000
E000
E000
E000
E000
E000
E000
E000
E000
E000
E000
E000
E000
E000
E000
E000
E000
E000
E000
ENDCHAR
STARTCHAR uni0404
ENCODING 1028
SWIDTH 661 0
DWIDTH 21 0
BBX 18 22 2 0
BITMAP
00FE00
07FFC0
0F8780
1C0000
380000
700000
600000
E00000
E00000
C00000
FFFE00
FFFE00
E00000
E00000
E00000
F00000
700000
780000
3E0000
1FC780
07FFC0
01FE00
ENDCHAR
STARTCHAR uni0405
ENCODING 1029
SWIDTH 553 0
DWIDTH 18 0
BBX 16 22 1 0
BITMAP
07F0
1FFE
3E1C
7000
6000
E000
E000
7000
7800
3F00
1FE0
03F8
007C
001E
000E
0007
0007
0006
000E
FC7C
7FF8
0FE0
ENDCHAR
STARTCHAR uni0406
ENCODING 1030
SWIDTH 267 0
DWIDTH 9 0
BBX 3 22 3 0
BITMAP
E0
E0
E0
E0
E0
E0
E0
E0
E0
E0
E0
E0
E0
E0
E0
E0
E0
E0
E0
E0
E0
E0
ENDCHAR
STARTCHAR uni0407
ENCODING 1031
SWIDTH 267 0
DWIDTH 9 0
BBX 10 28 -1 0
BITMAP
61C0
F1C0
F1C0
0080
0000
0000
0E00
0E00
0E00
0E00
0E00
0E00
0E00
0E00
0E00
0E00
0E00
0E00
0E00
0E00
0E00
0E00
0E00
0E00
0E00
0E00
0E00
0E00
ENDCHAR
STARTCHAR uni0408
ENCODING 1032
SWIDTH 398 0
DWIDTH 13 0
BBX 10 22 0 0
BITMAP
00C0
00C0
00C0
00C0
00C0
00C0
00C0
00C0
00C0
00C0
00C0
00C0
00C0
00C0
00C0
00C0
01C0
01C0
01C0
6780
FF00
3E00
ENDCHAR
STARTCHAR uni0409
ENCODING 1033
SWIDTH 1069 0
DWIDTH 34 0
BBX 32 22 1 0
BITMAP
07FFE000
07FFE000
0700E000
0700E000
0700E000
0700E000
0700E000
0700E000
0700FFF0
0700FFF8
0700E07C
0700E00E
0700E00E
0700E007
0700E007
0600E007
0600E007
0600E006
0E00E00E
9E00E03C
FC00FFF8
F800FFE0
ENDCHAR
STARTCHAR uni040A
ENCODING 1034
SWIDTH 1071 0
DWIDTH 34 0
BBX 30 22 3 0
BITMAP
E0038000
E0038000
E0038000
E0038000
E0038000
E0038000
E0038000
E0038000
E0038000
E0038000
FFFFFFE0
FFFFFFF0
E0038078
E003803C
E003801C
E003801C
E003801C
E003801C
E0038038
E00380F0
E003FFE0
E003FF80
ENDCHAR
STARTCHAR uni040B
ENCODING 1035
SWIDTH 781 0
DWIDTH 25 0
BBX 22 22 1 0
BITMAP
FFFF80
FFFF80
01C000
01C000
01C000
01C000
01C000
01C000
01C000
01DFE0
01FFF8
01E03C
01C01C
01C00C
01C00C
01C00C
01C00C
01C00C
01C00C
01C00C
01C00C
01C00C
ENDCHAR
STARTCHAR uni040C
ENCODING 1036
SWIDTH 636 0
DWIDTH 20 0
BBX 17 29 3 0
BITMAP
006000
00E000
01E000
038000
030000
000000
000000
E00700
E00600
E00E00
E01C00
E03800
E03800
E07000
E0E000
E0C000
E1C000
FF8000
FFC000
E1C000
E0E000
E07000
E07000
E03800
E01C00
E01C00
E00E00
E00700
E00780
ENDCHAR
STARTCHAR uni040D
ENCODING 1037
SWIDTH 740 0
DWIDTH 24 0
BBX 18 29 3 0
BITMAP
040000
0F0000
078000
03C000
00C000
000000
000000
E003C0
E003C0
E007C0
E00FC0
E00FC0
E01DC0
E039C0
E039C0
E071C0
E0E1C0
E0E1C0
E1C1C0
E381C0
E381C0
E701C0
EE01C0
EE01C0
FC01C0
F801C0
F001C0
F001C0
E001C0
ENDCHAR
STARTCHAR uni040E
ENCODING 1038
SWIDTH 598 0
DWIDTH 19 0
BBX 19 29 0 0
BITMAP
060600
060600
070E00
03FC00
01F000
000000
000000
F000E0
7001C0
3801C0
380380
1C0380
1C0700
0E0700
070E00
070E00
039C00
039C00
01F800
00F800
00F000
006000
00E000
00C000
01C000
018000
038000
070000
070000
ENDCHAR
STARTCHAR uni040F
ENCODING 1039
SWIDTH 723 0
DWIDTH 23 0
BBX 17 28 3 -6
BITMAP
E00180
E00180
E00180
E00180
E00180
E00180
E00180
E00180
E00180
E00180
E00180
E00180
E00180
E00180
E00180
E00180
E00180
E00180
E00180
E00180
FFFF80
FFFF80
00C000
00C000
00C000
00C000
00C000
00C000
ENDCHAR
STARTCHAR uni0410
ENCODING 1040
SWIDTH 626 0
DWIDTH 20 0
BBX 20 22 0 0
BITMAP
00F000
00F800
00F800
01D800
019C00
039C00
038C00
030E00
070E00
060600
060700
0E0700
0C0300
1FFF80
1FFF80
1801C0
3801C0
3801C0
3000E0
7000E0
7000E0
E00070
ENDCHAR
STARTCHAR uni0411
ENCODING 1041
SWIDTH 621 0
DWIDTH 20 0
BBX 15 22 3 0
BITMAP
FFF8
FFF8
E000
E000
E000
E000
E000
E000
E000
FFF0
FFF8
E03C
E00E
E00E
E006
E006
E006
E00E
E00E
E07C
FFF8
FFE0
ENDCHAR
STARTCHAR uni0412
ENCODING 1042
SWIDTH 630 0
DWIDTH 20 0
BBX 16 22 3 0
BITMAP
FFC0
FFF0
E0F8
E03C
E01C
E01C
E01C
E01C
E018
E078
FFF0
FFFC
E01E
E00E
E007
E007
E007
E007
E00E
E03E
FFF8
FFE0
ENDCHAR
STARTCHAR uni0413
ENCODING 1043
SWIDTH 542 0
DWIDTH 17 0
BBX 13 22 3 0
BITMAP
FFF8
FFF8
E000
E000
E000
E000
E000
E000
E000
E000
E000
E000
E000
E000
E000
E000
E000
E000
E000
E000
E000
E000
ENDCHAR
STARTCHAR uni0414
ENCODING 1044
SWIDTH 728 0
DWIDTH 23 0
BBX 21 28 1 -6
BITMAP
07FFE0
07FFE0
0700E0
0700E0
0700E0
0700E0
0700E0
0700E0
0700E0
0700E0
0700E0
0700E0
0700E0
0600E0
0600E0
0600E0
0E00E0
0E00E0
0C00E0
3C00E0
FFFFF8
FFFFF8
C00018
C00018
C00018
C00018
C00018
C00018
ENDCHAR
STARTCHAR uni0415
ENCODING 1045
SWIDTH 584 0
DWIDTH 19 0
BBX 14 22 3 0
BITMAP
FFFC
FFFC
E000
E000
E000
E000
E000
E000
E000
E000
FFF8
FFF8
E000
E000
E000
E000
E000
E000
E000
E000
FFFC
FFFC
ENDCHAR
STARTCHAR uni0416
ENCODING 1046
SWIDTH 942 0
DWIDTH 30 0
BBX 28 22 1 0
BITMAP
E0060070
700600E0
780600E0
380601C0
1C060380
1E060380
0E060700
07060E00
07060E00
03861C00
01FFF800
03FFFC00
03861E00
07060E00
0E060700
0E060700
1C060380
380601C0
380601C0
700600E0
F00600F0
E0060070
ENDCHAR
STARTCHAR uni0417
ENCODING 1047
SWIDTH 586 0
DWIDTH 19 0
BBX 16 22 1 0
BITMAP
0FE0
7FF8
7C7C
401E
000E
0006
0006
000E
000E
003C
1FE0
1FFC
003E
000E
0007
0007
0007
0007
000E
FC7C
7FF8
1FE0
ENDCHAR
STARTCHAR uni0418
ENCODING 1048
SWIDTH 740 0
DWIDTH 24 0
BBX 18 22 3 0
BITMAP
E003C0
E003C0
E007C0
E00FC0
E00FC0
E01DC0
E039C0
E039C0
E071C0
E0E1C0
E0E1C0
E1C1C0
E381C0
E381C0
E701C0
EE01C0
EE01C0
FC01C0
F801C0
F001C0
F001C0
E001C0
ENDCHAR
STARTCHAR uni0419
ENCODING 1049
SWIDTH 740 0
DWIDTH 24 0
BBX 18 29 3 0
BITMAP
0C0600
0C0C00
0E1C00
07F800
01F000
000000
000000
E003C0
E003C0
E007C0
E00FC0
E00FC0
E01DC0
E039C0
E039C0
E071C0
E0E1C0
E0E1C0
E1C1C0
E381C0
E381C0
E701C0
EE01C0
EE01C0
FC01C0
F801C0
F001C0
F001C0
E001C0
ENDCHAR
STARTCHAR uni041A
ENCODING 1050
SWIDTH 636 0
DWIDTH 20 0
BBX 17 22 3 0
BITMAP
E00700
E00600
E00E00
E01C00
E03800
E03800
E07000
E0E000
E0C000
E1C000
FF8000
FFC000
E1C000
E0E000
E07000
E07000
E03800
E01C00
E01C00
E00E00
E00700
E00780
ENDCHAR
STARTCHAR uni041B
ENCODING 1051
SWIDTH 713 0
DWIDTH 23 0
BBX 20 22 0 0
BITMAP
03FFF0
03FFF0
038070
038070
038070
038070
038070
038070
038070
038070
038070
038070
038070
038070
038070
030070
030070
030070
070070
4F0070
7E0070
FC0070
ENDCHAR
STARTCHAR uni041C
ENCODING 1052
SWIDTH 859 0
DWIDTH 27 0
BBX 22 22 3 0
BITMAP
E0001C
E0003C
F0003C
F0007C
F8007C
DC00DC
DC00DC
CE019C
CE019C
C7031C
C7031C
C3861C
C38E1C
C1CC1C
C0DC1C
C0F81C
C0781C
C0701C
C0301C
C0001C
C0001C
C0001C
ENDCHAR
STARTCHAR uni041D
ENCODING 1053
SWIDTH 721 0
DWIDTH 23 0
BBX 17 22 3 0
BITMAP
E00380
E00380
E00380
E00380
E00380
E00380
E00380
E00380
E00380
E00380
FFFF80
FFFF80
E00380
E00380
E00380
E00380
E00380
E00380
E00380
E00380
E00380
E00380
ENDCHAR
STARTCHAR uni041E
ENCODING 1054
SWIDTH 760 0
DWIDTH 24 0
BBX 21 22 2 0
BITMAP
01FC00
0FFF00
1F0F80
3C03C0
7801E0
7000E0
E00070
E00070
E00030
C00038
C00038
C00038
E00030
E00030
E00070
E00070
7000E0
7800E0
3C03C0
1F0F80
0FFF00
01F800
ENDCHAR
STARTCHAR uni041F
ENCODING 1055
SWIDTH 699 0
DWIDTH 22 0
BBX 16 22 3 0
BITMAP
FFFF
FFFF
E003
E003
E003
E003
E003
E003
E003
E003
E003
E003
E003
E003
E003
E003
E003
E003
E003
E003
E003
E003
ENDCHAR
STARTCHAR uni0420
ENCODING 1056
SWIDTH 590 0
DWIDTH 19 0
BBX 15 22 3 0
BITMAP
FFC0
FFF0
E0F8
E03C
E01C
E00E
E00E
E00E
E00C
E00C
E01C
E038
FFF0
FFE0
E000
E000
E000
E000
E000
E000
E000
E000
ENDCHAR
STARTCHAR uni0421
ENCODING 1057
SWIDTH 645 0
DWIDTH 21 0
BBX 17 22 2 0
BITMAP
01FE00
07FF80
0F8780
3C0000
380000
700000
600000
E00000
E00000
C00000
C00000
C00000
E00000
E00000
E00000
F00000
700000
780000
3E0000
1F8780
07FF80
01FE00
ENDCHAR
STARTCHAR uni0422
ENCODING 1058
SWIDTH 566 0
DWIDTH 18 0
BBX 18 22 0 0
BITMAP
FFFFC0
FFFFC0
00C000
00C000
00C000
00C000
00C000
00C000
00C000
00C000
00C000
00C000
00C000
00C000
00C000
00C000
00C000
00C000
00C000
00C000
00C000
00C000
ENDCHAR
STARTCHAR uni0423
ENCODING 1059
SWIDTH 598 0
DWIDTH 19 0
BBX 19 22 0 0
BITMAP
F000E0
7001C0
3801C0
380380
1C0380
1C0700
0E0700
070E00
070E00
039C00
039C00
01F800
00F800
00F000
006000
00E000
00C000
01C000
018000
038000
070000
070000
ENDCHAR
STARTCHAR uni0424
ENCODING 1060
SWIDTH 798 0
DWIDTH 26 0
BBX 23 24 1 -1
BITMAP
003800
003800
003800
01FF00
07FFE0
1FBBF0
3C3878
38381C
70381E
70380E
E0380E
E0380E
E0380E
E0380E
70380E
70381C
78381C
3C3878
1FBBF0
07FFE0
01FF00
003800
003800
003800
ENDCHAR
STARTCHAR uni0425
ENCODING 1061
SWIDTH 596 0
DWIDTH 19 0
BBX 19 22 0 0
BITMAP
7001C0
380380
3C0700
1C0700
0E0E00
071C00
071C00
03B800
01F000
01F000
00E000
01F000
01F000
03B800
071C00
061C00
0E0E00
1C0700
180700
380380
7001C0
E001E0
ENDCHAR
STARTCHAR uni0426
ENCODING 1062
SWIDTH 712 0
DWIDTH 23 0
BBX 19 28 3 -6
BITMAP
E00700
E00700
E00700
E00700
E00700
E00700
E00700
E00700
E00700
E00700
E00700
E00700
E00700
E00700
E00700
E00700
E00700
E00700
E00700
E00700
FFFFE0
FFFFE0
0000E0
0000E0
0000E0
0000E0
0000E0
0000E0
ENDCHAR
STARTCHAR uni0427
ENCODING 1063
SWIDTH 635 0
DWIDTH 20 0
BBX 15 22 2 0
BITMAP
C006
C006
C006
C006
C006
C006
C006
C006
E006
E006
F00E
787E
3FF6
0FC6
0006
0006
0006
0006
0006
0006
0006
0006
ENDCHAR
STARTCHAR uni0428
ENCODING 1064
SWIDTH 998 0
DWIDTH 32 0
BBX 26 22 3 0
BITMAP
E00C01C0
E00C01C0
E00C01C0
E00C01C0
E00C01C0
E00C01C0
E00C01C0
E00C01C0
E00C01C0
E00C01C0
E00C01C0
E00C01C0
E00C01C0
E00C01C0
E00C01C0
E00C01C0
E00C01C0
E00C01C0
E00C01C0
E00C01C0
FFFFFFC0
FFFFFFC0
ENDCHAR
STARTCHAR uni0429
ENCODING 1065
SWIDTH 1021 0
DWIDTH 33 0
BBX 29 28 3 -6
BITMAP
E00C01C0
E00C01C0
E00C01C0
E00C01C0
E00C01C0
E00C01C0
E00C01C0
E00C01C0
E00C01C0
E00C01C0
E00C01C0
E00C01C0
E00C01C0
E00C01C0
E00C01C0
E00C01C0
E00C01C0
E00C01C0
E00C01C0
E00C01C0
FFFFFFF8
FFFFFFF8
00000038
00000038
00000038
00000038
00000038
00000038
ENDCHAR
STARTCHAR uni042A
ENCODING 1066
SWIDTH 723 0
DWIDTH 23 0
BBX 21 22 1 0
BITMAP
FF0000
FF0000
030000
030000
030000
030000
030000
030000
030000
03FF80
03FFE0
0300F0
030070
030038
030038
030038
030038
030030
030070
0301E0
03FFC0
03FF00
ENDCHAR
STARTCHAR uni042B
ENCODING 1067
SWIDTH 837 0
DWIDTH 27 0
BBX 21 22 3 0
BITMAP
E00038
E00038
E00038
E00038
E00038
E00038
E00038
E00038
E00038
FFE038
FFF838
E03C38
E01C38
E00E38
E00E38
E00E38
E00E38
E00C38
E01C38
E07838
FFF038
FFC038
ENDCHAR
STARTCHAR uni042C
ENCODING 1068
SWIDTH 616 0
DWIDTH 20 0
BBX 15 22 3 0
BITMAP
E000
E000
E000
E000
E000
E000
E000
E000
E000
FFF0
FFF8
E03C
E01E
E00E
E00E
E006
E006
E00E
E00C
E07C
FFF8
FFE0
ENDCHAR
STARTCHAR uni042D
ENCODING 1069
SWIDTH 660 0
DWIDTH 21 0
BBX 18 22 1 0
BITMAP
1FE000
FFF800
787E00
000F00
000780
000380
0003C0
0001C0
0001C0
0001C0
3FFFC0
3FFFC0
0000C0
0001C0
0001C0
0001C0
000380
000780
000F00
787E00
FFF800
1FE000
ENDCHAR
STARTCHAR uni042E
ENCODING 1070
SWIDTH 1003 0
DWIDTH 32 0
BBX 27 22 3 0
BITMAP
E003F000
E00FFE00
E03C1F00
E0700780
E06003C0
E0E001C0
E0C000E0
E1C000E0
E1C000E0
E1C000E0
FFC00060
FFC00060
E1C00060
E1C000E0
E1C000E0
E0C000E0
E0E001C0
E0F001C0
E0700380
E03C0F00
E01FFC00
E007F000
ENDCHAR
STARTCHAR uni042F
ENCODING 1071
SWIDTH 610 0
DWIDTH 20 0
BBX 16 22 1 0
BITMAP
07FF
1FFF
3C07
7007
6007
E007
E007
E007
E007
E007
7007
7C07
3FFF
0FFF
0707
0E07
1C07
1C07
3807
7807
7007
E007
ENDCHAR
STARTCHAR uni0430
ENCODING 1072
SWIDTH 512 0
DWIDTH 16 0
BBX 13 16 1 0
BITMAP
1FC0
7FE0
78F0
0038
0038
0038
0038
07F8
3FF8
7838
6038
E038
6038
78F8
3FD8
1F98
ENDCHAR
STARTCHAR uni0431
ENCODING 1073
SWIDTH 549 0
DWIDTH 18 0
BBX 14 24 2 0
BITMAP
0030
03F0
0FF0
3E00
3800
7000
6000
E000
E000
E3E0
CFF0
DCF8
F038
E01C
E01C
E01C
E01C
E01C
601C
701C
7838
3EF8
1FF0
07C0
ENDCHAR
STARTCHAR uni0432
ENCODING 1074
SWIDTH 525 0
DWIDTH 17 0
BBX 12 16 3 0
BITMAP
FF80
FFE0
C1E0
C060
C060
C060
C0E0
FFC0
FFE0
C0F0
C070
C070
C070
C0F0
FFE0
FF80
ENDCHAR
STARTCHAR uni0433
ENCODING 1075
SWIDTH 441 0
DWIDTH 14 0
BBX 10 16 3 0
BITMAP
FFC0
FFC0
C000
C000
C000
C000
C000
C000
C000
C000
C000
C000
C000
C000
C000
C000
ENDCHAR
STARTCHAR uni0434
ENCODING 1076
SWIDTH 561 0
DWIDTH 18 0
BBX 16 20 1 -4
BITMAP
1FFC
1FFC
1C1C
1C1C
1C1C
1C1C
1C1C
1C1C
1C1C
1C1C
1C1C
181C
181C
381C
FFFF
FFFF
C003
C003
C003
C003
ENDCHAR
STARTCHAR uni0435
ENCODING 1077
SWIDTH 528 0
DWIDTH 17 0
BBX 13 16 2 0
BITMAP
0F80
3FE0
78F0
7038
E038
E018
C018
FFF8
FFF8
C000
E000
E000
7000
7C10
3FF8
0FE0
ENDCHAR
STARTCHAR uni0436
ENCODING 1078
SWIDTH 768 0
DWIDTH 25 0
BBX 23 16 1 0
BITMAP
E0381C
70381C
383838
383830
1C3870
1C38E0
0E38C0
07FFC0
07FFC0
0E38E0
1C38E0
1C3870
383838
703838
70381C
E0380E
ENDCHAR
STARTCHAR uni0437
ENCODING 1079
SWIDTH 475 0
DWIDTH 15 0
BBX 13 16 1 0
BITMAP
1F80
FFE0
71F0
0070
0070
0070
00E0
1F80
1FE0
00F0
0030
0038
0070
70F0
FFE0
3F80
ENDCHAR
STARTCHAR uni0438
ENCODING 1080
SWIDTH 579 0
DWIDTH 19 0
BBX 13 16 3 0
BITMAP
C038
C038
C078
C0F8
C1F8
C1B8
C338
C738
C638
CC38
DC38
D838
F038
F038
E038
C038
ENDCHAR
STARTCHAR uni0439
ENCODING 1081
SWIDTH 579 0
DWIDTH 19 0
BBX 13 24 3 0
BITMAP
6030
6070
30E0
3FC0
0F80
0000
0000
0000
C038
C038
C078
C0F8
C1F8
C1B8
C338
C738
C638
CC38
DC38
D838
F038
F038
E038
C038
ENDCHAR
STARTCHAR uni043A
ENCODING 1082
SWIDTH 511 0
DWIDTH 16 0
BBX 13 16 3 0
BITMAP
C070
C070
C0E0
C0C0
C1C0
C380
C300
FF00
FF00
C380
C380
C1C0
C0E0
C0E0
C070
C038
ENDCHAR
STARTCHAR uni043B
ENCODING 1083
SWIDTH 573 0
DWIDTH 18 0
BBX 15 16 1 0
BITMAP
0FFE
0FFE
0C0E
0C0E
0C0E
0C0E
0C0E
0C0E
0C0E
0C0E
1C0E
1C0E
1C0E
B80E
F80E
F00E
ENDCHAR
STARTCHAR uni043C
ENCODING 1084
SWIDTH 661 0
DWIDTH 21 0
BBX 15 16 3 0
BITMAP
C006
E00E
E00E
F01E
F01E
F83E
D836
CC66
CC66
C6C6
C6C6
C386
C386
C106
C006
C006
ENDCHAR
STARTCHAR uni043D
ENCODING 1085
SWIDTH 574 0
DWIDTH 18 0
BBX 13 16 3 0
BITMAP
C038
C038
C038
C038
C038
C038
C038
FFF8
FFF8
C038
C038
C038
C038
C038
C038
C038
ENDCHAR
STARTCHAR uni043E
ENCODING 1086
SWIDTH 567 0
DWIDTH 18 0
BBX 14 16 2 0
BITMAP
0FC0
1FF0
7CF8
7038
E01C
E01C
C00C
C00C
C00C
C00C
E00C
E01C
7038
7CF8
3FF0
0FC0
ENDCHAR
STARTCHAR uni043F
ENCODING 1087
SWIDTH 566 0
DWIDTH 18 0
BBX 12 16 3 0
BITMAP
FFF0
FFF0
C030
C030
C030
C030
C030
C030
C030
C030
C030
C030
C030
C030
C030
C030
ENDCHAR
STARTCHAR uni0440
ENCODING 1088
SWIDTH 571 0
DWIDTH 18 0
BBX 14 23 3 -7
BITMAP
CF80
DFE0
F0F0
C038
C038
C018
C01C
C01C
C01C
C018
C018
C038
E030
F8F0
FFE0
CF80
C000
C000
C000
C000
C000
C000
C000
ENDCHAR
STARTCHAR uni0441
ENCODING 1089
SWIDTH 467 0
DWIDTH 15 0
BBX 12 16 2 0
BITMAP
0FC0
1FF0
3C60
7000
E000
E000
C000
C000
C000
C000
E000
E000
F000
7820
3FF0
0FC0
ENDCHAR
STARTCHAR uni0442
ENCODING 1090
SWIDTH 487 0
DWIDTH 16 0
BBX 14 16 1 0
BITMAP
FFFC
FFFC
0700
0700
0700
0700
0700
0700
0700
0700
0700
0700
0700
0700
0700
0700
ENDCHAR
STARTCHAR uni0443
ENCODING 1091
SWIDTH 480 0
DWIDTH 15 0
BBX 14 23 1 -7
BITMAP
C01C
E018
E018
6038
7030
7070
3070
3860
18E0
18C0
1CC0
0DC0
0F80
0780
0700
0700
0700
0600
0E00
0E00
0C00
1C00
1C00
ENDCHAR
STARTCHAR uni0444
ENCODING 1092
SWIDTH 790 0
DWIDTH 25 0
BBX 22 31 2 -7
BITMAP
007000
007000
007000
007000
007000
007000
007000
007000
0F77C0
3FFFE0
79FCF0
707038
E07038
E07018
C0701C
C0701C
C0701C
C07018
E07018
E07038
707038
79FCF0
3FFFE0
1F77C0
007000
007000
007000
007000
007000
007000
007000
ENDCHAR
STARTCHAR uni0445
ENCODING 1093
SWIDTH 469 0
DWIDTH 15 0
BBX 13 16 1 0
BITMAP
E038
E038
7070
38E0
18C0
1DC0
0F80
0700
0700
0F80
1D80
19C0
38E0
7070
6070
E038
ENDCHAR
STARTCHAR uni0446
ENCODING 1094
SWIDTH 556 0
DWIDTH 18 0
BBX 14 20 3 -4
BITMAP
C070
C070
C070
C070
C070
C070
C070
C070
C070
C070
C070
C070
C070
C070
FFFC
FFFC
000C
000C
000C
000C
ENDCHAR
STARTCHAR uni0447
ENCODING 1095
SWIDTH 531 0
DWIDTH 17 0
BBX 13 16 1 0
BITMAP
E018
E018
E018
E018
E018
E018
6018
7838
7FF8
1FD8
0018
0018
0018
0018
0018
0018
ENDCHAR
STARTCHAR uni0448
ENCODING 1096
SWIDTH 807 0
DWIDTH 26 0
BBX 20 16 3 0
BITMAP
C06030
C06030
C06030
C06030
C06030
C06030
C06030
C06030
C06030
C06030
C06030
C06030
C06030
C06030
FFFFF0
FFFFF0
ENDCHAR
STARTCHAR uni0449
ENCODING 1097
SWIDTH 820 0
DWIDTH 26 0
BBX 22 20 3 -4
BITMAP
C06030
C06030
C06030
C06030
C06030
C06030
C06030
C06030
C06030
C06030
C06030
C06030
C06030
C06030
FFFFFC
FFFFFC
00000C
00000C
00000C
00000C
ENDCHAR
STARTCHAR uni044A
ENCODING 1098
SWIDTH 574 0
DWIDTH 18 0
BBX 16 16 1 0
BITMAP
FE00
FE00
0E00
0E00
0E00
0FF8
0FFE
0E0F
0E07
0E07
0E03
0E03
0E07
0E0E
0FFE
0FF8
ENDCHAR
STARTCHAR uni044B
ENCODING 1099
SWIDTH 699 0
DWIDTH 22 0
BBX 17 16 3 0
BITMAP
C00380
C00380
C00380
C00380
C00380
FF8380
FFC380
C1E380
C0E380
C07380
C07380
C07380
C06380
C1E380
FFC380
FF0380
ENDCHAR
STARTCHAR uni044C
ENCODING 1100
SWIDTH 508 0
DWIDTH 16 0
BBX 12 16 3 0
BITMAP
C000
C000
C000
C000
C000
FF80
FFE0
C0E0
C070
C070
C030
C070
C070
C0E0
FFC0
FF80
ENDCHAR
STARTCHAR uni044D
ENCODING 1101
SWIDTH 487 0
DWIDTH 16 0
BBX 13 16 1 0
BITMAP
3F00
FFC0
61E0
0070
0070
0038
0038
3FF8
3FF8
0038
0038
0030
0070
61E0
FFC0
7F00
ENDCHAR
STARTCHAR uni044E
ENCODING 1102
SWIDTH 773 0
DWIDTH 25 0
BBX 20 16 3 0
BITMAP
C03E00
C0FF80
C1E3C0
C180E0
C38060
C30070
C30070
FF0030
FF0030
C30070
C30070
C38060
C380E0
C1E1C0
C0FF80
C07E00
ENDCHAR
STARTCHAR uni044F
ENCODING 1103
SWIDTH 519 0
DWIDTH 17 0
BBX 12 16 2 0
BITMAP
1FF0
7FF0
F070
E070
C070
C070
E070
F070
7FF0
3FF0
1C70
3870
3870
7070
E070
E070
ENDCHAR
STARTCHAR uni0450
ENCODING 1104
SWIDTH 528 0
DWIDTH 17 0
BBX 13 24 2 0
BITMAP
1000
1800
1C00
0C00
0600
0200
0000
0000
0F80
3FE0
78F0
7038
E038
E018
C018
FFF8
FFF8
C000
E000
E000
7000
7C10
3FF8
0FE0
ENDCHAR
STARTCHAR uni0451
ENCODING 1105
SWIDTH 528 0
DWIDTH 17 0
BBX 13 23 2 0
BITMAP
3860
38F0
38F0
1040
0000
0000
0000
0F80
3FE0
78F0
7038
E038
E018
C018
FFF8
FFF8
C000
E000
E000
7000
7C10
3FF8
0FE0
ENDCHAR
STARTCHAR uni0452
ENCODING 1106
SWIDTH 567 0
DWIDTH 18 0
BBX 15 31 1 -7
BITMAP
3000
3000
3000
3000
FF80
FF80
3000
3000
33F0
3FF8
3E3C
381C
300E
300E
300E
300E
300E
300E
300E
300E
300E
300E
300E
300E
000E
000E
000E
000C
001C
0038
0010
ENDCHAR
STARTCHAR uni0453
ENCODING 1107
SWIDTH 441 0
DWIDTH 14 0
BBX 10 24 3 0
BITMAP
0200
0700
0700
0E00
1C00
0800
0000
0000
FFC0
FFC0
C000
C000
C000
C000
C000
C000
C000
C000
C000
C000
C000
C000
C000
C000
ENDCHAR
STARTCHAR uni0454
ENCODING 1108
SWIDTH 492 0
DWIDTH 16 0
BBX 12 16 2 0
BITMAP
07E0
1FF0
3C30
7000
6000
E000
C000
FFE0
FFE0
C000
E000
E000
F000
7830
3FF0
0FE0
ENDCHAR
STARTCHAR uni0455
ENCODING 1109
SWIDTH 464 0
DWIDTH 15 0
BBX 11 16 2 0
BITMAP
1FC0
7FE0
F040
C000
C000
E000
F800
7F00
1FC0
01E0
00E0
0060
0060
E1E0
FFC0
3F00
ENDCHAR
STARTCHAR uni0456
ENCODING 1110
SWIDTH 246 0
DWIDTH 8 0
BBX 4 23 2 0
BITMAP
60
F0
F0
00
00
00
00
60
60
60
60
60
60
60
60
60
60
60
60
60
60
60
60
ENDCHAR
STARTCHAR uni0457
ENCODING 1111
SWIDTH 246 0
DWIDTH 8 0
BBX 10 23 -1 0
BITMAP
E1C0
F3C0
E3C0
4080
0000
0000
0000
0C00
0C00
0C00
0C00
0C00
0C00
0C00
0C00
0C00
0C00
0C00
0C00
0C00
0C00
0C00
0C00
ENDCHAR
STARTCHAR uni0458
ENCODING 1112
SWIDTH 246 0
DWIDTH 8 0
BBX 6 30 0 -7
BITMAP
18
3C
3C
10
00
00
00
18
18
18
18
18
18
18
18
18
18
18
18
18
18
18
18
18
18
38
30
70
E0
C0
ENDCHAR
STARTCHAR uni0459
ENCODING 1113
SWIDTH 842 0
DWIDTH 27 0
BBX 25 16 1 0
BITMAP
0FFE0000
0FFE0000
0C0E0000
0C0E0000
0C0E0000
0C0FFC00
0C0FFE00
0C0E0F00
0C0E0380
0C0E0380
1C0E0380
1C0E0380
1C0E0300
B80E0F00
F80FFE00
F00FF800
ENDCHAR
STARTCHAR uni045A
ENCODING 1114
SWIDTH 835 0
DWIDTH 27 0
BBX 23 16 3 0
BITMAP
C03800
C03800
C03800
C03800
C03800
C03800
C03800
FFFFF0
FFFFFC
C0381C
C0380E
C0380E
C0380C
C0383C
C03FF8
C03FE0
ENDCHAR
STARTCHAR uni045B
ENCODING 1115
SWIDTH 567 0
DWIDTH 18 0
BBX 15 24 1 0
BITMAP
3000
3000
3000
3000
FF80
FF80
3000
3000
33F0
3FF8
3E3C
381C
300E
300E
300E
300E
300E
300E
300E
300E
300E
300E
300E
300E
ENDCHAR
STARTCHAR uni045C
ENCODING 1116
SWIDTH 511 0
DWIDTH 16 0
BBX 13 24 3 0
BITMAP
0100
0180
0380
0700
0600
0400
0000
0000
C070
C070
C0E0
C0C0
C1C0
C380
C300
FF00
FF00
C380
C380
C1C0
C0E0
C0E0
C070
C038
ENDCHAR
STARTCHAR uni045D
ENCODING 1117
SWIDTH 579 0
DWIDTH 19 0
BBX 13 24 3 0
BITMAP
1000
3800
3800
1C00
0E00
0000
0000
0000
C038
C038
C078
C0F8
C1F8
C1B8
C338
C738
C638
CC38
DC38
D838
F038
F038
E038
C038
ENDCHAR
STARTCHAR uni045E
ENCODING 1118
SWIDTH 480 0
DWIDTH 15 0
BBX 14 31 1 -7
BITMAP
6030
7070
3060
3FC0
0F80
0000
0000
0000
C01C
E018
E018
6038
7030
7070
3070
3860
18E0
18C0
1CC0
0DC0
0F80
0780
0700
0700
0700
0600
0E00
0E00
0C00
1C00
1C00
ENDCHAR
STARTCHAR uni045F
ENCODING 1119
SWIDTH 576 0
DWIDTH 18 0
BBX 13 20 3 -4
BITMAP
C038
C038
C038
C038
C038
C038
C038
C038
C038
C038
C038
C038
C038
C038
FFF8
FFF8
0600
0600
0600
0600
ENDCHAR
STARTCHAR uni0462
ENCODING 1122
SWIDTH 673 0
DWIDTH 22 0
BBX 20 22 0 0
BITMAP
0E0000
0E0000
0E0000
FFF000
FFF000
FFF000
0E0000
0E0000
0E0000
0FFF80
0FFFC0
0E01E0
0E00F0
0E0070
0E0070
0E0070
0E0070
0E0070
0E00E0
0E03E0
0FFF80
0FFE00
ENDCHAR
STARTCHAR uni0463
ENCODING 1123
SWIDTH 512 0
DWIDTH 16 0
BBX 14 24 1 0
BITMAP
3000
3000
3000
3000
3000
3000
3000
FF80
FF80
3000
3000
3000
3000
3000
3FE0
3FF8
303C
301C
300C
300C
301C
3038
3FF8
3FE0
ENDCHAR
STARTCHAR uni046A
ENCODING 1130
SWIDTH 779 0
DWIDTH 25 0
BBX 23 22 1 0
BITMAP
3FFFF8
3FFFF8
3C0070
1C00F0
0E00E0
0701C0
038380
01C700
00EE00
00FC00
03FF80
0FFFE0
1E38F0
3C3878
383838
70381C
70381C
60381C
60380C
E0380C
E0380E
E0380E
ENDCHAR
STARTCHAR uni046B
ENCODING 1131
SWIDTH 629 0
DWIDTH 20 0
BBX 18 16 1 0
BITMAP
3FFF00
3FFF00
380700
1C0E00
0E1C00
073800
03F000
0FFC00
1FFE00
38C700
70C380
60C180
60C1C0
E0C1C0
E0C1C0
E0C1C0
ENDCHAR
STARTCHAR uni0472
ENCODING 1138
SWIDTH 760 0
DWIDTH 24 0
BBX 21 22 2 0
BITMAP
01FC00
0FFF00
1F0F80
3C03C0
7801E0
7000E0
E00070
E00070
E00030
C00038
FFFFF8
FFFFF8
E00030
E00030
E00070
E00070
7000E0
7800E0
3C03C0
1F0F80
0FFF00
01F800
ENDCHAR
STARTCHAR uni0473
ENCODING 1139
SWIDTH 567 0
DWIDTH 18 0
BBX 14 16 2 0
BITMAP
0FC0
1FF0
7CF8
7038
E01C
E01C
C00C
FFFC
FFFC
C00C
E00C
E01C
7038
7C78
3FF0
0FC0
ENDCHAR
STARTCHAR uni0474
ENCODING 1140
SWIDTH 649 0
DWIDTH 21 0
BBX 21 22 0 0
BITMAP
E00038
700078
7000F8
3801C0
380380
380380
1C0300
1C0700
1C0700
0E0600
0E0E00
0E0E00
070C00
071C00
031C00
039800
03B800
01B800
01F000
01F000
00E000
00E000
ENDCHAR
STARTCHAR uni0475
ENCODING 1141
SWIDTH 467 0
DWIDTH 15 0
BBX 14 16 1 0
BITMAP
C00C
E03C
E038
6070
7060
7060
30E0
38C0
38C0
19C0
1980
1D80
0F80
0F00
0F00
0700
ENDCHAR
STARTCHAR uni0490
ENCODING 1168
SWIDTH 542 0
DWIDTH 17 0
BBX 13 27 3 0
BITMAP
0018
0018
0018
0018
0018
FFF8
FFF8
E000
E000
E000
E000
E000
E000
E000
E000
E000
E000
E000
E000
E000
E000
E000
E000
E000
E000
E000
E000
ENDCHAR
STARTCHAR uni0491
ENCODING 1169
SWIDTH 451 0
DWIDTH 14 0
BBX 11 20 3 0
BITMAP
00E0
00E0
00E0
00E0
FFE0
FFE0
C000
C000
C000
C000
C000
C000
C000
C000
C000
C000
C000
C000
C000
C000
ENDCHAR
STARTCHAR uni0492
ENCODING 1170
SWIDTH 539 0
DWIDTH 17 0
BBX 16 22 0 0
BITMAP
1FFF
1FFF
1C00
1C00
1C00
1C00
1C00
1C00
1C00
1C00
1C00
FFE0
FFE0
1C00
1C00
1C00
1C00
1C00
1C00
1C00
1C00
1C00
ENDCHAR
STARTCHAR uni0493
ENCODING 1171
SWIDTH 471 0
DWIDTH 15 0
BBX 13 16 1 0
BITMAP
1FF8
1FF8
1800
1800
1800
1800
1800
FFE0
FFE0
1800
1800
1800
1800
1800
1800
1800
ENDCHAR
STARTCHAR uni0494
ENCODING 1172
SWIDTH 655 0
DWIDTH 21 0
BBX 17 29 3 -7
BITMAP
FFF800
FFF800
E00000
E00000
E00000
E00000
E00000
E00000
E00000
E3E000
FFF800
FC3C00
E00E00
E00F00
E00700
E00700
E00380
E00380
E00380
E00380
E00300
E00300
000700
000600
000E00
001C00
003800
00F000
03C000
ENDCHAR
STARTCHAR uni0495
ENCODING 1173
SWIDTH 542 0
DWIDTH 17 0
BBX 13 23 3 -7
BITMAP
FFC0
FFC0
C000
C000
C000
C000
CF80
FFE0
F9F0
C070
C038
C038
C018
C018
C018
C018
0038
0038
0030
0070
01E0
0780
0600
ENDCHAR
STARTCHAR uni0496
ENCODING 1174
SWIDTH 975 0
DWIDTH 31 0
BBX 30 28 1 -6
BITMAP
E0060070
700600E0
780600E0
380601C0
1C060380
1E060380
0E060700
07060E00
07060E00
03861C00
01FFF800
03FFFC00
03861E00
07060E00
0E060700
0E060780
1C060380
380601C0
380601C0
700600E0
F00600FC
E006007C
0000001C
0000001C
0000001C
0000001C
0000001C
0000001C
ENDCHAR
STARTCHAR uni0497
ENCODING 1175
SWIDTH 768 0
DWIDTH 25 0
BBX 24 20 1 -4
BITMAP
E0381C
70381C
383838
383830
1C3870
1C38E0
0E38C0
07FFC0
07FFC0
0E38E0
1C38E0
1C3870
383838
703838
70381F
E0380F
000007
000007
000007
000007
ENDCHAR
STARTCHAR uni0498
ENCODING 1176
SWIDTH 586 0
DWIDTH 19 0
BBX 16 30 1 -8
BITMAP
0FE0
7FF8
7C7C
401E
000E
0006
0006
000E
000E
003C
1FE0
1FFC
003E
000E
0007
0007
0007
0007
000E
FC7C
7FF8
0FE0
0180
0180
01E0
0070
0030
0030
07F0
03C0
ENDCHAR
STARTCHAR uni0499
ENCODING 1177
SWIDTH 475 0
DWIDTH 15 0
BBX 13 24 1 -8
BITMAP
1F80
FFE0
71F0
0070
0070
0070
00E0
1F80
1FE0
00F0
0030
0038
0070
70F0
FFE0
3F80
0600
0600
0780
01C0
00E0
00E0
0FC0
0F80
ENDCHAR
STARTCHAR uni049A
ENCODING 1178
SWIDTH 667 0
DWIDTH 21 0
BBX 18 28 3 -6
BITMAP
E00700
E00600
E00E00
E01C00
E03800
E03800
E07000
E0E000
E0C000
E1C000
FF8000
FFC000
E1C000
E0E000
E07000
E07000
E03800
E01C00
E01C00
E00E00
E007C0
E007C0
0001C0
0001C0
0001C0
0001C0
0001C0
0001C0
ENDCHAR
STARTCHAR uni049B
ENCODING 1179
SWIDTH 535 0
DWIDTH 17 0
BBX 14 20 3 -4
BITMAP
C070
C070
C0E0
C0C0
C1C0
C380
C300
FF00
FF00
C380
C380
C1C0
C0E0
C0E0
C07C
C03C
001C
001C
001C
001C
ENDCHAR
STARTCHAR uni049C
ENCODING 1180
SWIDTH 651 0
DWIDTH 21 0
BBX 17 22 3 0
BITMAP
E00380
E00700
E00600
E00E00
E01C00
E61800
E63800
E67000
E66000
E6E000
FFC000
FFE000
E6E000
E67000
E67800
E63800
E61C00
E01C00
E00E00
E00700
E00700
E00380
ENDCHAR
STARTCHAR uni049D
ENCODING 1181
SWIDTH 520 0
DWIDTH 17 0
BBX 13 16 3 0
BITMAP
C038
C070
C060
CCE0
CDC0
CDC0
CF80
FF00
FF80
CF80
CDC0
CDC0
CCE0
C070
C070
C038
ENDCHAR
STARTCHAR uni04A0
ENCODING 1184
SWIDTH 749 0
DWIDTH 24 0
BBX 22 22 1 0
BITMAP
FF001C
FF0038
030070
030070
0300E0
0301C0
0301C0
030380
030700
030600
03FE00
03FE00
030700
030780
030380
0301C0
0300E0
0300E0
030070
030038
030038
03001C
ENDCHAR
STARTCHAR uni04A1
ENCODING 1185
SWIDTH 622 0
DWIDTH 20 0
BBX 18 16 1 0
BITMAP
FF01C0
FF0380
070380
070700
070E00
070E00
071C00
07F800
07FC00
071C00
070E00
070E00
070700
070380
070380
0701C0
ENDCHAR
STARTCHAR uni04A2
ENCODING 1186
SWIDTH 744 0
DWIDTH 24 0
BBX 20 28 3 -6
BITMAP
E00380
E00380
E00380
E00380
E00380
E00380
E00380
E00380
E00380
E00380
FFFF80
FFFF80
E00380
E00380
E00380
E00380
E00380
E00380
E00380
E00380
E003F0
E003F0
000070
000070
000070
000070
000070
000070
ENDCHAR
STARTCHAR uni04A3
ENCODING 1187
SWIDTH 585 0
DWIDTH 19 0
BBX 15 20 3 -4
BITMAP
C038
C038
C038
C038
C038
C038
C038
FFF8
FFF8
C038
C038
C038
C038
C038
C03E
C03E
000E
000E
000E
000E
ENDCHAR
STARTCHAR uni04A4
ENCODING 1188
SWIDTH 919 0
DWIDTH 29 0
BBX 25 22 3 0
BITMAP
E003FF80
E003FF80
E0038000
E0038000
E0038000
E0038000
E0038000
E0038000
E0038000
E0038000
FFFF8000
FFFF8000
E0038000
E0038000
E0038000
E0038000
E0038000
E0038000
E0038000
E0038000
E0038000
E0038000
ENDCHAR
STARTCHAR uni04A5
ENCODING 1189
SWIDTH 699 0
DWIDTH 22 0
BBX 19 16 3 0
BITMAP
C03FE0
C03FE0
C03800
C03800
C03800
C03800
C03800
FFF800
FFF800
C03800
C03800
C03800
C03800
C03800
C03800
C03800
ENDCHAR
STARTCHAR uni04AA
ENCODING 1194
SWIDTH 645 0
DWIDTH 21 0
BBX 17 27 2 -5
BITMAP
01FE00
07FF80
0F8780
3C0000
380000
700000
600000
E00000
E00000
C00000
C00000
C00000
E00000
E00000
E00000
F00000
700000
780000
3E0000
1F8780
07FF80
01FE00
006000
006000
006000
006000
006000
ENDCHAR
STARTCHAR uni04AB
ENCODING 1195
SWIDTH 467 0
DWIDTH 15 0
BBX 12 20 2 -4
BITMAP
0FC0
1FF0
3C60
7000
E000
E000
C000
C000
C000
C000
E000
E000
F000
7820
3FF0
0FC0
0700
0700
0700
0700
ENDCHAR
STARTCHAR uni04AE
ENCODING 1198
SWIDTH 580 0
DWIDTH 19 0
BBX 18 22 0 0
BITMAP
F001C0
700180
380380
380700
1C0700
0E0E00
0E0C00
071C00
073800
03B800
01F000
01E000
00E000
00E000
00E000
00E000
00E000
00E000
00E000
00E000
00E000
00E000
ENDCHAR
STARTCHAR uni04AF
ENCODING 1199
SWIDTH 480 0
DWIDTH 15 0
BBX 14 23 1 -7
BITMAP
C01C
E018
E018
6038
7030
7070
3070
3860
18E0
18C0
1CC0
0DC0
0F80
0780
0700
0700
0700
0700
0700
0700
0700
0700
0700
ENDCHAR
STARTCHAR uni04B0
ENCODING 1200
SWIDTH 580 0
DWIDTH 19 0
BBX 17 22 1 0
BITMAP
E00380
E00300
700700
700E00
380E00
1C1C00
1C1800
0E3800
077000
076000
03E000
01C000
3FFF00
3FFF00
01C000
01C000
01C000
01C000
01C000
01C000
01C000
01C000
ENDCHAR
STARTCHAR uni04B1
ENCODING 1201
SWIDTH 480 0
DWIDTH 15 0
BBX 14 23 1 -7
BITMAP
C01C
E018
E018
6038
7030
7030
3070
3860
18E0
18C0
1CC0
0DC0
0D80
0F80
0780
0700
3FE0
3FE0
0700
0700
0700
0700
0700
ENDCHAR
STARTCHAR uni04B2
ENCODING 1202
SWIDTH 647 0
DWIDTH 21 0
BBX 20 28 0 -6
BITMAP
7001C0
380380
3C0700
1C0700
0E0E00
071C00
071C00
03B800
01F000
01F000
00E000
01F000
01F000
03B800
071C00
061C00
0E0E00
1C0700
180700
380380
7001F0
E001F0
000070
000070
000070
000070
000070
000070
ENDCHAR
STARTCHAR uni04B3
ENCODING 1203
SWIDTH 485 0
DWIDTH 16 0
BBX 14 20 1 -4
BITMAP
E038
E038
7070
38E0
38C0
1DC0
0F80
0700
0700
0F80
1D80
19C0
38E0
7070
607C
E03C
000C
000C
000C
000C
ENDCHAR
STARTCHAR uni04B6
ENCODING 1206
SWIDTH 658 0
DWIDTH 21 0
BBX 18 28 2 -6
BITMAP
C00600
C00600
C00600
C00600
C00600
C00600
C00600
C00600
E00600
E00600
F00E00
787E00
3FF600
0FC600
000600
000600
000600
000600
000600
000600
0007C0
0007C0
0000C0
0000C0
0000C0
0000C0
0000C0
0000C0
ENDCHAR
STARTCHAR uni04B7
ENCODING 1207
SWIDTH 542 0
DWIDTH 17 0
BBX 15 20 1 -4
BITMAP
E018
E018
E018
E018
E018
E018
6018
7838
7FF8
1FD8
0018
0018
0018
0018
001E
001E
0006
0006
0006
0006
ENDCHAR
STARTCHAR uni04B8
ENCODING 1208
SWIDTH 654 0
DWIDTH 21 0
BBX 16 22 2 0
BITMAP
C007
C007
C007
C007
C007
C007
C007
C187
C187
E187
E187
7DBF
3FFF
0FE7
0187
0187
0187
0187
0187
0007
0007
0007
ENDCHAR
STARTCHAR uni04B9
ENCODING 1209
SWIDTH 541 0
DWIDTH 17 0
BBX 14 16 1 0
BITMAP
E01C
E01C
E01C
E31C
E31C
E31C
E31C
733C
7FFC
1FDC
031C
031C
031C
031C
001C
001C
ENDCHAR
STARTCHAR uni04BA
ENCODING 1210
SWIDTH 623 0
DWIDTH 20 0
BBX 15 22 3 0
BITMAP
E000
E000
E000
E000
E000
E000
E000
E000
E000
EFF0
FFFC
F03C
E00E
E00E
E006
E006
E006
E006
E006
E006
E006
E006
ENDCHAR
STARTCHAR uni04BB
ENCODING 1211
SWIDTH 567 0
DWIDTH 18 0
BBX 13 24 3 0
BITMAP
C000
C000
C000
C000
C000
C000
C000
C000
CFC0
FFE0
F8F0
E070
C038
C038
C038
C038
C038
C038
C038
C038
C038
C038
C038
C038
ENDCHAR
STARTCHAR uni04C0
ENCODING 1216
SWIDTH 267 0
DWIDTH 9 0
BBX 3 22 3 0
BITMAP
E0
E0
E0
E0
E0
E0
E0
E0
E0
E0
E0
E0
E0
E0
E0
E0
E0
E0
E0
E0
E0
E0
ENDCHAR
STARTCHAR uni04C1
ENCODING 1217
SWIDTH 942 0
DWIDTH 30 0
BBX 28 29 1 0
BITMAP
00603000
00707000
00306000
003FC000
000F8000
00000000
00000000
E0060070
700600E0
780600E0
380601C0
1C060380
1E060380
0E060700
07060E00
07060E00
03861C00
01FFF800
03FFFC00
03861E00
07060E00
0E060700
0E060700
1C060380
380601C0
380601C0
700600E0
F00600F0
E0060070
ENDCHAR
STARTCHAR uni04C2
ENCODING 1218
SWIDTH 768 0
DWIDTH 25 0
BBX 23 24 1 0
BITMAP
030180
030380
018300
01FE00
007C00
000000
000000
000000
E0381C
70381C
383838
383830
1C3870
1C38E0
0E38C0
07FFC0
07FFC0
0E38E0
1C38E0
1C3870
383838
703838
70381C
E0380E
ENDCHAR
STARTCHAR uni04CB
ENCODING 1227
SWIDTH 635 0
DWIDTH 20 0
BBX 15 28 2 -6
BITMAP
C006
C006
C006
C006
C006
C006
C006
C006
E006
E006
F00E
787E
3FF6
0FC6
0006
0006
0006
0006
0006
0006
003E
003E
0030
0030
0030
0030
0030
0030
ENDCHAR
STARTCHAR uni04CC
ENCODING 1228
SWIDTH 531 0
DWIDTH 17 0
BBX 13 20 1 -4
BITMAP
E018
E018
E018
E018
E018
E018
6018
7838
7FF8
1FD8
0018
0018
0018
0018
0078
0078
0060
0060
0060
0060
ENDCHAR
STARTCHAR uni04CF
ENCODING 1231
SWIDTH 267 0
DWIDTH 9 0
BBX 3 22 3 0
BITMAP
E0
E0
E0
E0
E0
E0
E0
E0
E0
E0
E0
E0
E0
E0
E0
E0
E0
E0
E0
E0
E0
E0
ENDCHAR
STARTCHAR uni04D0
ENCODING 1232
SWIDTH 626 0
DWIDTH 20 0
BBX 20 29 0 0
BITMAP
060300
060700
030E00
03FC00
00F800
000000
000000
00F000
00F800
00F800
01D800
019C00
039C00
038C00
030E00
070E00
060600
060700
0E0700
0C0300
1FFF80
1FFF80
1801C0
3801C0
3801C0
3000E0
7000E0
7000E0
E00070
ENDCHAR
STARTCHAR uni04D1
ENCODING 1233
SWIDTH 512 0
DWIDTH 16 0
BBX 13 23 1 0
BITMAP
3030
3030
3870
1FE0
0780
0000
0000
1FC0
7FE0
78F0
0038
0038
0038
0038
07F8
3FF8
7838
6038
E038
6038
78F8
3FD8
1F98
ENDCHAR
STARTCHAR uni04D2
ENCODING 1234
SWIDTH 626 0
DWIDTH 20 0
BBX 20 28 0 0
BITMAP
070C00
079E00
071E00
020400
000000
000000
00F000
00F800
00F800
01D800
019C00
039C00
038C00
030E00
070E00
060600
060700
0E0700
0C0300
1FFF80
1FFF80
1801C0
3801C0
3801C0
3000E0
7000E0
7000E0
E00070
ENDCHAR
STARTCHAR uni04D3
ENCODING 1235
SWIDTH 512 0
DWIDTH 16 0
BBX 13 23 1 0
BITMAP
3860
38F0
38F0
1020
0000
0000
0000
1FC0
7FE0
78F0
0038
0038
0038
0038
07F8
3FF8
7838
6038
E038
6038
78F8
3FD8
1F98
ENDCHAR
STARTCHAR uni04D4
ENCODING 1236
SWIDTH 919 0
DWIDTH 29 0
BBX 28 22 0 0
BITMAP
0007FFF0
000FFFF0
001F0000
001B0000
003B0000
00330000
00730000
00E30000
00C30000
01C30000
0383FFE0
0383FFE0
07030000
07FF0000
0FFF0000
1FFF0000
1C030000
38030000
30030000
70030000
E003FFF0
E003FFF0
ENDCHAR
STARTCHAR uni04D5
ENCODING 1237
SWIDTH 834 0
DWIDTH 27 0
BBX 23 16 2 0
BITMAP
1F83E0
FFCFF8
F1FE3C
80780C
00700E
00300E
003006
07FFFE
3FFFFE
F07000
C03000
C03800
C07C00
F1DE0C
7F8FFC
3E03F8
ENDCHAR
STARTCHAR uni04D6
ENCODING 1238
SWIDTH 584 0
DWIDTH 19 0
BBX 14 29 3 0
BITMAP
1018
3818
1C30
0FF0
07C0
0000
0000
FFFC
FFFC
E000
E000
E000
E000
E000
E000
E000
E000
FFF8
FFF8
E000
E000
E000
E000
E000
E000
E000
E000
FFFC
FFFC
ENDCHAR
STARTCHAR uni04D7
ENCODING 1239
SWIDTH 528 0
DWIDTH 17 0
BBX 13 23 2 0
BITMAP
6030
3030
3860
1FE0
0780
0000
0000
0F80
3FE0
78F0
7038
E038
E018
C018
FFF8
FFF8
C000
E000
E000
7000
7C10
3FF8
0FE0
ENDCHAR
STARTCHAR uni04D8
ENCODING 1240
SWIDTH 723 0
DWIDTH 23 0
BBX 19 22 2 0
BITMAP
0FF000
7FFC00
7C7F00
400780
0003C0
0001C0
0000E0
0000E0
0000E0
000060
FFFFE0
FFFFE0
C00060
C000E0
C000E0
E000E0
E001C0
7001C0
780380
3F1F00
0FFE00
03F000
ENDCHAR
STARTCHAR uni04D9
ENCODING 1241
SWIDTH 528 0
DWIDTH 17 0
BBX 13 16 2 0
BITMAP
3F00
FFC0
41E0
0070
0038
0038
0038
FFF8
FFF8
C038
C038
C038
E070
70E0
3FC0
1F80
ENDCHAR
STARTCHAR uni04DC
ENCODING 1244
SWIDTH 942 0
DWIDTH 30 0
BBX 28 28 1 0
BITMAP
0070E000
0079E000
0079E000
00204000
00000000
00000000
E0060070
700600E0
780600E0
380601C0
1C060380
1E060380
0E060700
07060E00
07060E00
03861C00
01FFF800
03FFFC00
03861E00
07060E00
0E060700
0E060700
1C060380
380601C0
380601C0
700600E0
F00600F0
E0060070
ENDCHAR
STARTCHAR uni04DD
ENCODING 1245
SWIDTH 768 0
DWIDTH 25 0
BBX 23 23 1 0
BITMAP
018700
03C700
03C700
008200
000000
000000
000000
E0381C
70381C
383838
383830
1C3870
1C38E0
0E38C0
07FFC0
07FFC0
0E38E0
1C38E0
1C3870
383838
703838
70381C
E0380E
ENDCHAR
STARTCHAR uni04DE
ENCODING 1246
SWIDTH 586 0
DWIDTH 19 0
BBX 16 28 1 0
BITMAP
0C38
1E38
1E38
0010
0000
0000
0FE0
7FF8
7C7C
401E
000E
0006
0006
000E
000E
003C
1FE0
1FFC
003E
000E
0007
0007
0007
0007
000E
FC7C
7FF8
1FE0
ENDCHAR
STARTCHAR uni04DF
ENCODING 1247
SWIDTH 475 0
DWIDTH 15 0
BBX 13 23 1 0
BITMAP
38E0
38F0
38E0
1040
0000
0000
0000
1F80
FFE0
71F0
0070
0070
0070
00E0
1F80
1FE0
00F0
0030
0038
0070
70F0
FFE0
3F80
ENDCHAR
STARTCHAR uni04E2
ENCODING 1250
SWIDTH 740 0
DWIDTH 24 0
BBX 18 27 3 0
BITMAP
0FFC00
0FFC00
000000
000000
000000
E003C0
E003C0
E007C0
E00FC0
E00FC0
E01DC0
E039C0
E039C0
E071C0
E0E1C0
E0E1C0
E1C1C0
E381C0
E381C0
E701C0
EE01C0
EE01C0
FC01C0
F801C0
F001C0
F001C0
E001C0
ENDCHAR
STARTCHAR uni04E3
ENCODING 1251
SWIDTH 579 0
DWIDTH 19 0
BBX 13 22 3 0
BITMAP
7FE0
7FE0
0000
0000
0000
0000
C038
C038
C078
C0F8
C1F8
C1B8
C338
C738
C638
CC38
DC38
D838
F038
F038
E038
C038
ENDCHAR
STARTCHAR uni04E4
ENCODING 1252
SWIDTH 740 0
DWIDTH 24 0
BBX 18 28 3 0
BITMAP
0E1800
0E3C00
0E3C00
041000
000000
000000
E003C0
E003C0
E007C0
E00FC0
E00FC0
E01DC0
E039C0
E039C0
E071C0
E0E1C0
E0E1C0
E1C1C0
E381C0
E381C0
E701C0
EE01C0
EE01C0
FC01C0
F801C0
F001C0
F001C0
E001C0
ENDCHAR
STARTCHAR uni04E5
ENCODING 1253
SWIDTH 579 0
DWIDTH 19 0
BBX 13 23 3 0
BITMAP
30E0
78E0
78E0
1040
0000
0000
0000
C038
C038
C078
C0F8
C1F8
C1B8
C338
C738
C638
CC38
DC38
D838
F038
F038
E038
C038
ENDCHAR
STARTCHAR uni04E6
ENCODING 1254
SWIDTH 760 0
DWIDTH 24 0
BBX 21 28 2 0
BITMAP
070E00
079E00
078E00
020400
000000
000000
01FC00
0FFF00
1F0F80
3C03C0
7801E0
7000E0
E00070
E00070
E00030
C00038
C00038
C00038
E00030
E00030
E00070
E00070
7000E0
7800E0
3C03C0
1F0F80
0FFF00
01F800
ENDCHAR
STARTCHAR uni04E7
ENCODING 1255
SWIDTH 567 0
DWIDTH 18 0
BBX 14 23 2 0
BITMAP
1870
3CF0
3C70
1020
0000
0000
0000
0FC0
1FF0
7CF8
7038
E01C
E01C
C00C
C00C
C00C
C00C
E00C
E01C
7038
7CF8
3FF0
0FC0
ENDCHAR
STARTCHAR uni04E8
ENCODING 1256
SWIDTH 760 0
DWIDTH 24 0
BBX 21 22 2 0
BITMAP
01FC00
0FFF00
1F0F80
3C03C0
7801E0
7000E0
E00070
E00070
E00030
C00038
FFFFF8
FFFFF8
E00030
E00030
E00070
E00070
7000E0
7800E0
3C03C0
1F0F80
0FFF00
01F800
ENDCHAR
STARTCHAR uni04E9
ENCODING 1257
SWIDTH 567 0
DWIDTH 18 0
BBX 14 16 2 0
BITMAP
0FC0
1FF0
7CF8
7038
E01C
E01C
C00C
FFFC
FFFC
C00C
E00C
E01C
7038
7C78
3FF0
0FC0
ENDCHAR
STARTCHAR uni04EE
ENCODING 1262
SWIDTH 598 0
DWIDTH 19 0
BBX 19 27 0 0
BITMAP
07FE00
07FE00
000000
000000
000000
F000E0
7001C0
3801C0
380380
1C0380
1C0700
0E0700
070E00
070E00
039C00
039C00
01F800
00F800
00F000
006000
00E000
00C000
01C000
018000
038000
070000
070000
ENDCHAR
STARTCHAR uni04EF
ENCODING 1263
SWIDTH 480 0
DWIDTH 15 0
BBX 14 29 1 -7
BITMAP
7FE0
7FE0
0000
0000
0000
0000
C01C
E018
E018
6038
7030
7070
3070
3860
18E0
18C0
1CC0
0DC0
0F80
0780
0700
0700
0700
0600
0E00
0E00
0C00
1C00
1C00
ENDCHAR
STARTCHAR uni04F0
ENCODING 1264
SWIDTH 598 0
DWIDTH 19 0
BBX 19 28 0 0
BITMAP
071C00
0F1C00
071C00
020800
000000
000000
F000E0
7001C0
3801C0
380380
1C0380
1C0700
0E0700
070E00
070E00
039C00
039C00
01F800
00F800
00F000
006000
00E000
00C000
01C000
018000
038000
070000
070000
ENDCHAR
STARTCHAR uni04F1
ENCODING 1265
SWIDTH 480 0
DWIDTH 15 0
BBX 14 30 1 -7
BITMAP
30E0
78E0
78E0
1040
0000
0000
0000
C01C
E018
E018
6038
7030
7070
3070
3860
18E0
18C0
1CC0
0DC0
0F80
0780
0700
0700
0700
0600
0E00
0E00
0C00
1C00
1C00
ENDCHAR
STARTCHAR uni04F2
ENCODING 1266
SWIDTH 598 0
DWIDTH 19 0
BBX 19 30 0 0
BITMAP
010400
038600
038E00
071C00
0E3800
041000
000000
000000
F000E0
7001C0
3801C0
380380
1C0380
1C0700
0E0700
070E00
070E00
039C00
039C00
01F800
00F800
00F000
006000
00E000
00C000
01C000
018000
038000
070000
070000
ENDCHAR
STARTCHAR uni04F3
ENCODING 1267
SWIDTH 480 0
DWIDTH 15 0
BBX 14 31 1 -7
BITMAP
0420
0E30
0C70
1C60
18C0
10C0
0000
0000
C01C
E018
E018
6038
7030
7070
3070
3860
18E0
18C0
1CC0
0DC0
0F80
0780
0700
0700
0700
0600
0E00
0E00
0C00
1C00
1C00
ENDCHAR
STARTCHAR uni04F4
ENCODING 1268
SWIDTH 635 0
DWIDTH 20 0
BBX 15 28 2 0
BITMAP
0C38
1E38
1E38
0810
0000
0000
C006
C006
C006
C006
C006
C006
C006
C006
E006
E006
F00E
787E
3FF6
0FC6
0006
0006
0006
0006
0006
0006
0006
0006
ENDCHAR
STARTCHAR uni04F5
ENCODING 1269
SWIDTH 531 0
DWIDTH 17 0
BBX 13 23 1 0
BITMAP
1C70
3C70
1C70
0820
0000
0000
0000
E018
E018
E018
E018
E018
E018
6018
7838
7FF8
1FD8
0018
0018
0018
0018
0018
0018
ENDCHAR
STARTCHAR uni04F6
ENCODING 1270
SWIDTH 542 0
DWIDTH 17 0
BBX 13 28 3 -6
BITMAP
FFF8
FFF8
E000
E000
E000
E000
E000
E000
E000
E000
E000
E000
E000
E000
E000
E000
E000
E000
E000
E000
F800
F800
1800
1800
1800
1800
1800
1800
ENDCHAR
STARTCHAR uni04F7
ENCODING 1271
SWIDTH 441 0
DWIDTH 14 0
BBX 10 20 3 -4
BITMAP
FFC0
FFC0
C000
C000
C000
C000
C000
C000
C000
C000
C000
C000
C000
C000
F800
F800
3800
3800
3800
3800
ENDCHAR
STARTCHAR uni04F8
ENCODING 1272
SWIDTH 837 0
DWIDTH 27 0
BBX 21 28 3 0
BITMAP
038E00
078E00
038E00
010400
000000
000000
E00038
E00038
E00038
E00038
E00038
E00038
E00038
E00038
E00038
FFE038
FFF838
E03C38
E01C38
E00E38
E00E38
E00E38
E00E38
E00C38
E01C38
E07838
FFF038
FFC038
ENDCHAR
STARTCHAR uni04F9
ENCODING 1273
SWIDTH 699 0
DWIDTH 22 0
BBX 17 23 3 0
BITMAP
0C3800
1E3800
1E3800
041000
000000
000000
000000
C00380
C00380
C00380
C00380
C00380
FF8380
FFC380
C1E380
C0E380
C07380
C07380
C07380
C06380
C1E380
FFC380
FF0380
ENDCHAR
STARTCHAR uni051A
ENCODING 1306
SWIDTH 765 0
DWIDTH 24 0
BBX 21 23 2 -1
BITMAP
01FC00
0FFF00
1F0F80
3C03C0
7801E0
7000E0
E00070
E00070
E00030
C00038
C00038
C00038
E01030
E03830
E01C70
E00E70
7007E0
7803E0
3C03C0
1F0FE0
0FFF70
01F838
000010
ENDCHAR
STARTCHAR uni051B
ENCODING 1307
SWIDTH 570 0
DWIDTH 18 0
BBX 14 23 2 -7
BITMAP
0FCC
3FFC
7C7C
703C
E01C
E01C
C01C
C01C
C01C
C01C
E01C
E01C
701C
7CFC
3FFC
0F9C
001C
001C
001C
001C
001C
001C
001C
ENDCHAR
STARTCHAR uni051C
ENCODING 1308
SWIDTH 980 0
DWIDTH 31 0
BBX 30 22 1 0
BITMAP
E007001C
E007801C
E0078018
E00F8038
700DC038
700DC030
701CC070
3818E070
3818E060
38386060
183070E0
1C3070E0
1C7030C0
1C6038C0
0C6039C0
0EE01980
0EC01D80
06C01F80
06C00F00
07C00F00
03800F00
03800700
ENDCHAR
STARTCHAR uni051D
ENCODING 1309
SWIDTH 783 0
DWIDTH 25 0
BBX 23 16 1 0
BITMAP
E03806
E03C06
E07C0E
606C0C
706C0C
706E1C
30C61C
30C618
38C718
198338
198330
1D83B0
0F01F0
0F01E0
0F01E0
0600E0
ENDCHAR
STARTCHAR uni1E08
ENCODING 7688
SWIDTH 645 0
DWIDTH 21 0
BBX 17 37 2 -8
BITMAP
000800
001C00
003C00
007800
00E000
004000
000000
01FE00
07FF80
0F8780
3C0000
380000
700000
600000
E00000
E00000
C00000
C00000
C00000
E00000
E00000
E00000
F00000
700000
780000
3E0000
1F8780
0FFF80
01FE00
004000
00C000
00F800
001C00
001C00
001C00
01F800
00F000
ENDCHAR
STARTCHAR uni1E09
ENCODING 7689
SWIDTH 467 0
DWIDTH 15 0
BBX 12 32 2 -8
BITMAP
0080
00C0
01C0
0180
0300
0200
0000
0000
0FC0
1FF0
3C60
7000
E000
E000
C000
C000
C000
C000
E000
E000
F000
7820
3FF0
1FC0
0600
0400
0F80
01C0
00C0
01C0
1F80
0F00
ENDCHAR
STARTCHAR uni1E0C
ENCODING 7692
SWIDTH 711 0
DWIDTH 23 0
BBX 18 28 3 -6
BITMAP
FFE000
FFF800
E07E00
E00F00
E00700
E00380
E00380
E001C0
E001C0
E001C0
E001C0
E001C0
E001C0
E001C0
E00180
E00380
E00380
E00700
E00E00
E07C00
FFF800
FFC000
000000
000000
010000
038000
078000
038000
ENDCHAR
STARTCHAR uni1E0D
ENCODING 7693
SWIDTH 570 0
DWIDTH 18 0
BBX 14 30 2 -6
BITMAP
001C
001C
001C
001C
001C
001C
001C
001C
0F9C
3FFC
7C7C
703C
E01C
E01C
C01C
C01C
C01C
C01C
E01C
E01C
F01C
783C
3FFC
1F8C
0000
0000
0100
0780
0780
0380
ENDCHAR
STARTCHAR uni1E0E
ENCODING 7694
SWIDTH 711 0
DWIDTH 23 0
BBX 18 27 3 -5
BITMAP
FFE000
FFF800
E07E00
E00F00
E00700
E00380
E00380
E001C0
E001C0
E001C0
E001C0
E001C0
E001C0
E001C0
E00180
E00380
E00380
E00700
E00E00
E07C00
FFF800
FFC000
000000
000000
000000
3FF000
3FF000
ENDCHAR
STARTCHAR uni1E0F
ENCODING 7695
SWIDTH 570 0
DWIDTH 18 0
BBX 14 29 2 -5
BITMAP
001C
001C
001C
001C
001C
001C
001C
001C
0F9C
3FFC
7C7C
703C
E01C
E01C
C01C
C01C
C01C
C01C
E01C
E01C
F01C
783C
3FFC
1F8C
0000
0000
0000
3FF0
3FF0
ENDCHAR
STARTCHAR uni1E14
ENCODING 7700
SWIDTH 584 0
DWIDTH 19 0
BBX 14 34 3 0
BITMAP
1800
1C00
0E00
0700
0100
0000
0000
3FF0
3FF0
0000
0000
0000
FFFC
FFFC
E000
E000
E000
E000
E000
E000
E000
E000
FFF8
FFF8
E000
E000
E000
E000
E000
E000
E000
E000
FFFC
FFFC
ENDCHAR
STARTCHAR uni1E15
ENCODING 7701
SWIDTH 528 0
DWIDTH 17 0
BBX 13 28 2 0
BITMAP
1800
3800
1C00
0E00
0600
0200
0000
0000
3FF0
3FF0
0000
0000
0F80
3FE0
78F0
7038
E038
E018
C018
FFF8
FFF8
C000
E000
E000
7000
7C10
3FF8
0FE0
ENDCHAR
STARTCHAR uni1E16
ENCODING 7702
SWIDTH 584 0
DWIDTH 19 0
BBX 14 34 3 0
BITMAP
0060
00F0
01E0
0380
0300
0000
0000
3FF0
3FF0
0000
0000
0000
FFFC
FFFC
E000
E000
E000
E000
E000
E000
E000
E000
FFF8
FFF8
E000
E000
E000
E000
E000
E000
E000
E000
FFFC
FFFC
ENDCHAR
STARTCHAR uni1E17
ENCODING 7703
SWIDTH 528 0
DWIDTH 17 0
BBX 13 28 2 0
BITMAP
0040
00E0
01C0
0180
0300
0200
0000
0000
3FF0
3FF0
0000
0000
0F80
3FE0
78F0
7038
E038
E018
C018
FFF8
FFF8
C000
E000
E000
7000
7C10
3FF8
0FE0
ENDCHAR
STARTCHAR uni1E1C
ENCODING 7708
SWIDTH 584 0
DWIDTH 19 0
BBX 14 37 3 -8
BITMAP
1830
3830
1C60
0FE0
0780
0000
0000
FFFC
FFFC
E000
E000
E000
E000
E000
E000
E000
E000
FFF8
FFF8
E000
E000
E000
E000
E000
E000
E000
E000
FFFC
FFFC
0600
0600
0780
01C0
00E0
00E0
0FC0
0F80
ENDCHAR
STARTCHAR uni1E1D
ENCODING 7709
SWIDTH 528 0
DWIDTH 17 0
BBX 13 31 2 -8
BITMAP
1020
3020
3860
1FC0
0F80
0000
0000
0F80
3FE0
78F0
7038
E038
E018
C018
FFF8
FFF8
C000
E000
E000
7000
7C10
3FF8
0FE0
0300
0300
03C0
00E0
0060
0060
0FE0
0780
ENDCHAR
STARTCHAR uni1E20
ENCODING 7712
SWIDTH 715 0
DWIDTH 23 0
BBX 19 27 2 0
BITMAP
03FF00
03FF00
000000
000000
000000
01FE00
07FFC0
1F87C0
3C0000
380000
700000
600000
E00000
E00000
C00000
C03FE0
C03FE0
E000E0
E000E0
E000E0
7000E0
7000E0
3800E0
3E00E0
1F87E0
07FF80
01FE00
ENDCHAR
STARTCHAR uni1E21
ENCODING 7713
SWIDTH 570 0
DWIDTH 18 0
BBX 14 29 2 -7
BITMAP
3FF0
3FF0
0000
0000
0000
0000
0FCC
3FFC
7C7C
703C
E01C
E01C
C01C
C01C
C01C
C01C
E01C
E01C
701C
7CFC
3FFC
0F9C
0018
0018
0038
0038
30F0
7FE0
1F80
ENDCHAR
STARTCHAR uni1E24
ENCODING 7716
SWIDTH 721 0
DWIDTH 23 0
BBX 17 28 3 -6
BITMAP
E00380
E00380
E00380
E00380
E00380
E00380
E00380
E00380
E00380
E00380
FFFF80
FFFF80
E00380
E00380
E00380
E00380
E00380
E00380
E00380
E00380
E00380
E00380
000000
000000
008000
01C000
01C000
01C000
ENDCHAR
STARTCHAR uni1E25
ENCODING 7717
SWIDTH 567 0
DWIDTH 18 0
BBX 13 30 3 -6
BITMAP
C000
C000
C000
C000
C000
C000
C000
C000
CFC0
FFE0
F8F0
E070
C038
C038
C038
C038
C038
C038
C038
C038
C038
C038
C038
C038
0000
0000
0000
0F00
0F00
0600
ENDCHAR
STARTCHAR uni1E2A
ENCODING 7722
SWIDTH 721 0
DWIDTH 23 0
BBX 17 29 3 -7
BITMAP
E00380
E00380
E00380
E00380
E00380
E00380
E00380
E00380
E00380
E00380
FFFF80
FFFF80
E00380
E00380
E00380
E00380
E00380
E00380
E00380
E00380
E00380
E00380
000000
000000
040000
0C0800
0E1800
07F000
03E000
ENDCHAR
STARTCHAR uni1E2B
ENCODING 7723
SWIDTH 567 0
DWIDTH 18 0
BBX 13 31 3 -7
BITMAP
C000
C000
C000
C000
C000
C000
C000
C000
CFC0
FFE0
F8F0
E070
C038
C038
C038
C038
C038
C038
C038
C038
C038
C038
C038
C038
0000
0000
0040
7060
38C0
3FC0
0F00
ENDCHAR
STARTCHAR uni1E2E
ENCODING 7726
SWIDTH 267 0
DWIDTH 9 0
BBX 10 34 -1 0
BITMAP
0080
01C0
0380
0700
0C00
0000
61C0
F1C0
F1C0
0080
0000
0000
0E00
0E00
0E00
0E00
0E00
0E00
0E00
0E00
0E00
0E00
0E00
0E00
0E00
0E00
0E00
0E00
0E00
0E00
0E00
0E00
0E00
0E00
ENDCHAR
STARTCHAR uni1E2F
ENCODING 7727
SWIDTH 246 0
DWIDTH 8 0
BBX 10 28 -1 0
BITMAP
0100
0380
0300
0600
0C00
0000
0000
E380
F3C0
6180
0000
0000
0C00
0C00
0C00
0C00
0C00
0C00
0C00
0C00
0C00
0C00
0C00
0C00
0C00
0C00
0C00
0C00
ENDCHAR
STARTCHAR uni1E30
ENCODING 7728
SWIDTH 608 0
DWIDTH 19 0
BBX 16 29 3 0
BITMAP
0060
00E0
01E0
0380
0300
0000
0000
E00E
E01C
E038
E070
E0E0
E1E0
E3C0
E780
EF00
EE00
FC00
FE00
EF00
E780
E380
E1C0
E0E0
E070
E038
E01C
E01E
E00F
ENDCHAR
STARTCHAR uni1E31
ENCODING 7729
SWIDTH 498 0
DWIDTH 16 0
BBX 12 31 3 0
BITMAP
0100
0380
0700
1E00
1800
0000
0000
C000
C000
C000
C000
C000
C000
C000
C000
C070
C0E0
C1C0
C380
C700
CE00
DC00
FC00
DC00
CE00
C700
C380
C3C0
C1E0
C0F0
C070
ENDCHAR
STARTCHAR uni1E36
ENCODING 7734
SWIDTH 506 0
DWIDTH 16 0
BBX 13 28 3 -6
BITMAP
E000
E000
E000
E000
E000
E000
E000
E000
E000
E000
E000
E000
E000
E000
E000
E000
E000
E000
E000
E000
FFF8
FFF8
0000
0000
0200
0700
0F00
0700
ENDCHAR
STARTCHAR uni1E37
ENCODING 7735
SWIDTH 278 0
DWIDTH 9 0
BBX 6 30 3 -6
BITMAP
C0
C0
C0
C0
C0
C0
C0
C0
C0
C0
C0
C0
C0
C0
C0
C0
C0
C0
C0
C0
C0
E0
F8
7C
00
00
20
F0
F0
70
ENDCHAR
STARTCHAR uni1E3A
ENCODING 7738
SWIDTH 506 0
DWIDTH 16 0
BBX 13 27 3 -5
BITMAP
E000
E000
E000
E000
E000
E000
E000
E000
E000
E000
E000
E000
E000
E000
E000
E000
E000
E000
E000
E000
FFF8
FFF8
0000
0000
0000
7FE0
7FE0
ENDCHAR
STARTCHAR uni1E3B
ENCODING 7739
SWIDTH 278 0
DWIDTH 9 0
BBX 8 29 1 -5
BITMAP
30
30
30
30
30
30
30
30
30
30
30
30
30
30
30
30
30
30
30
30
30
38
3E
1F
00
00
00
FF
FF
ENDCHAR
STARTCHAR uni1E42
ENCODING 7746
SWIDTH 859 0
DWIDTH 27 0
BBX 22 28 3 -6
BITMAP
E0001C
E0003C
F0003C
F0007C
F8007C
DC00DC
DC00DC
CE019C
CE019C
C7031C
C7031C
C3861C
C38E1C
C1CC1C
C0DC1C
C0F81C
C0781C
C0701C
C0301C
C0001C
C0001C
C0001C
000000
000000
002000
007000
007800
007000
ENDCHAR
STARTCHAR uni1E43
ENCODING 7747
SWIDTH 886 0
DWIDTH 28 0
BBX 23 22 3 -6
BITMAP
CF81F0
FFE7F8
F8FE3C
C0780E
C0300E
C0380E
C0380E
C0380E
C0380E
C0380E
C0380E
C0380E
C0380E
C0380E
C0380E
C0380E
000000
000000
001000
007800
007800
003800
ENDCHAR
STARTCHAR uni1E44
ENCODING 7748
SWIDTH 750 0
DWIDTH 24 0
BBX 18 29 3 0
BITMAP
008000
01E000
01E000
00C000
000000
000000
000000
E000C0
F000C0
F800C0
F800C0
DC00C0
CE00C0
CE00C0
C700C0
C380C0
C380C0
C1C0C0
C0E0C0
C060C0
C070C0
C038C0
C01CC0
C01CC0
C00EC0
C007C0
C007C0
C003C0
C001C0
ENDCHAR
STARTCHAR uni1E45
ENCODING 7749
SWIDTH 567 0
DWIDTH 18 0
BBX 13 23 3 0
BITMAP
0600
0F00
0F00
0200
0000
0000
0000
CFC0
FFE0
F8F0
C070
C038
C038
C038
C038
C038
C038
C038
C038
C038
C038
C038
C038
ENDCHAR
STARTCHAR uni1E46
ENCODING 7750
SWIDTH 750 0
DWIDTH 24 0
BBX 18 28 3 -6
BITMAP
E000C0
F000C0
F800C0
F800C0
DC00C0
CE00C0
CE00C0
C700C0
C380C0
C380C0
C1C0C0
C0E0C0
C060C0
C070C0
C038C0
C01CC0
C01CC0
C00EC0
C007C0
C007C0
C003C0
C001C0
000000
000000
000000
01E000
01E000
00C000
ENDCHAR
STARTCHAR uni1E47
ENCODING 7751
SWIDTH 567 0
DWIDTH 18 0
BBX 13 22 3 -6
BITMAP
CFC0
FFE0
F8F0
C070
C038
C038
C038
C038
C038
C038
C038
C038
C038
C038
C038
C038
0000
0000
0200
0F00
0F00
0700
ENDCHAR
STARTCHAR uni1E48
ENCODING 7752
SWIDTH 750 0
DWIDTH 24 0
BBX 18 27 3 -5
BITMAP
E000C0
F000C0
F800C0
F800C0
DC00C0
CE00C0
CE00C0
C700C0
C380C0
C380C0
C1C0C0
C0E0C0
C060C0
C070C0
C038C0
C01CC0
C01CC0
C00EC0
C007C0
C007C0
C003C0
C001C0
000000
000000
000000
0FFC00
0FFC00
ENDCHAR
STARTCHAR uni1E49
ENCODING 7753
SWIDTH 567 0
DWIDTH 18 0
BBX 13 21 3 -5
BITMAP
CFC0
FFE0
F8F0
C070
C038
C038
C038
C038
C038
C038
C038
C038
C038
C038
C038
C038
0000
0000
0000
7FE0
7FE0
ENDCHAR
STARTCHAR uni1E4C
ENCODING 7756
SWIDTH 760 0
DWIDTH 24 0
BBX 21 35 2 0
BITMAP
000400
000C00
001C00
007800
006000
000000
000000
018200
07E700
067E00
041C00
000000
000000
01FC00
0FFF00
1F0F80
3C03C0
7801E0
7000E0
E00070
E00070
E00030
C00038
C00038
C00038
E00030
E00030
E00070
E00070
7000E0
7800E0
3C03C0
1F0F80
0FFF00
01F800
ENDCHAR
STARTCHAR uni1E4D
ENCODING 7757
SWIDTH 567 0
DWIDTH 18 0
BBX 14 29 2 0
BITMAP
0040
00E0
00E0
01C0
0380
0100
0000
1F18
3FF0
33E0
0000
0000
0000
0FC0
1FF0
7CF8
7038
E01C
E01C
C00C
C00C
C00C
C00C
E00C
E01C
7038
7CF8
3FF0
0FC0
ENDCHAR
STARTCHAR uni1E4E
ENCODING 7758
SWIDTH 760 0
DWIDTH 24 0
BBX 21 34 2 0
BITMAP
030E00
079E00
078E00
020400
000000
000000
018200
07E700
067E00
041C00
000000
000000
01FC00
0FFF00
1F0F80
3C03C0
7801E0
7000E0
E00070
E00070
E00030
C00038
C00038
C00038
E00030
E00030
E00070
E00070
7000E0
7800E0
3C03C0
1F0F80
0FFF00
01F800
ENDCHAR
STARTCHAR uni1E4F
ENCODING 7759
SWIDTH 567 0
DWIDTH 18 0
BBX 14 28 2 0
BITMAP
1870
3CF0
3C70
1020
0000
0000
1F18
3FF0
33E0
0000
0000
0000
0FC0
1FF0
7CF8
7038
E01C
E01C
C00C
C00C
C00C
C00C
E00C
E01C
7038
7CF8
3FF0
0FC0
ENDCHAR
STARTCHAR uni1E50
ENCODING 7760
SWIDTH 760 0
DWIDTH 24 0
BBX 21 34 2 0
BITMAP
030000
038000
03C000
00E000
006000
000000
000000
07FE00
07FE00
000000
000000
000000
01FC00
0FFF00
1F0F80
3C03C0
7801E0
7000E0
E00070
E00070
E00030
C00038
C00038
C00038
E00030
E00030
E00070
E00070
7000E0
7800E0
3C03C0
1F0F80
0FFF00
01F800
ENDCHAR
STARTCHAR uni1E51
ENCODING 7761
SWIDTH 567 0
DWIDTH 18 0
BBX 14 28 2 0
BITMAP
0800
1C00
1C00
0E00
0700
0200
0000
0000
3FF0
3FF0
0000
0000
0FC0
1FF0
7CF8
7038
E01C
E01C
C00C
C00C
C00C
C00C
E00C
E01C
7038
7CF8
3FF0
0FC0
ENDCHAR
STARTCHAR uni1E52
ENCODING 7762
SWIDTH 760 0
DWIDTH 24 0
BBX 21 34 2 0
BITMAP
000C00
001E00
003C00
007000
006000
000000
000000
07FE00
07FE00
000000
000000
000000
01FC00
0FFF00
1F0F80
3C03C0
7801E0
7000E0
E00070
E00070
E00030
C00038
C00038
C00038
E00030
E00030
E00070
E00070
7000E0
7800E0
3C03C0
1F0F80
0FFF00
01F800
ENDCHAR
STARTCHAR uni1E53
ENCODING 7763
SWIDTH 567 0
DWIDTH 18 0
BBX 14 28 2 0
BITMAP
0040
00E0
00E0
01C0
0380
0100
0000
0000
3FF0
3FF0
0000
0000
0FC0
1FF0
7CF8
7038
E01C
E01C
C00C
C00C
C00C
C00C
E00C
E01C
7038
7CF8
3FF0
0FC0
ENDCHAR
STARTCHAR uni1E5A
ENCODING 7770
SWIDTH 620 0
DWIDTH 20 0
BBX 16 28 3 -6
BITMAP
FFE0
FFF8
E0FC
E01C
E01E
E00E
E00E
E00E
E00C
E01C
E078
FFF0
FFC0
E0E0
E070
E070
E038
E038
E01C
E01E
E00E
E007
0000
0000
0200
0780
0780
0300
ENDCHAR
STARTCHAR uni1E5B
ENCODING 7771
SWIDTH 377 0
DWIDTH 12 0
BBX 10 22 2 -6
BITMAP
63C0
6FC0
7E80
7000
6000
6000
6000
6000
6000
6000
6000
6000
6000
6000
6000
6000
0000
0000
4000
F000
F000
6000
ENDCHAR
STARTCHAR uni1E5E
ENCODING 7774
SWIDTH 620 0
DWIDTH 20 0
BBX 16 27 3 -5
BITMAP
FFE0
FFF8
E0FC
E01C
E01E
E00E
E00E
E00E
E00C
E01C
E078
FFF0
FFC0
E0E0
E070
E070
E038
E038
E01C
E01E
E00E
E007
0000
0000
0000
3FF0
3FF0
ENDCHAR
STARTCHAR uni1E5F
ENCODING 7775
SWIDTH 377 0
DWIDTH 12 0
BBX 12 21 0 -5
BITMAP
18F0
1BF0
1FA0
1C00
1800
1800
1800
1800
1800
1800
1800
1800
1800
1800
1800
1800
0000
0000
0000
FF00
FF00
ENDCHAR
STARTCHAR uni1E60
ENCODING 7776
SWIDTH 553 0
DWIDTH 18 0
BBX 16 28 1 0
BITMAP
0380
0380
0380
0100
0000
0000
07F0
1FFE
3E1C
7000
6000
E000
E000
7000
7800
3F00
1FE0
03F8
007C
001E
000E
0007
0007
0006
000E
FC7C
7FF8
0FE0
ENDCHAR
STARTCHAR uni1E61
ENCODING 7777
SWIDTH 464 0
DWIDTH 15 0
BBX 11 23 2 0
BITMAP
0E00
0E00
0E00
0400
0000
0000
0000
1FC0
7FE0
F040
C000
C000
E000
F800
7F00
1FC0
01E0
00E0
0060
0060
E1E0
FFC0
3F00
ENDCHAR
STARTCHAR uni1E62
ENCODING 7778
SWIDTH 553 0
DWIDTH 18 0
BBX 16 28 1 -6
BITMAP
07F0
1FFE
3E1C
7000
6000
E000
E000
7000
7800
3F00
1FE0
03F8
007C
001E
000E
0007
0007
0006
000E
FC7C
7FF8
0FE0
0000
0000
0100
0380
03C0
0380
ENDCHAR
STARTCHAR uni1E63
ENCODING 7779
SWIDTH 464 0
DWIDTH 15 0
BBX 11 22 2 -6
BITMAP
1FC0
7FE0
F040
C000
C000
E000
F800
7F00
1FC0
01E0
00E0
0060
0060
E1E0
FFC0
3F00
0000
0000
0400
0E00
0E00
0E00
ENDCHAR
STARTCHAR uni1E64
ENCODING 7780
SWIDTH 553 0
DWIDTH 18 0
BBX 16 31 1 0
BITMAP
0F00
0F00
0620
0070
00F0
01C0
0380
0000
0000
07F0
1FFE
3E1C
7000
6000
E000
E000
7000
7800
3F00
1FE0
03F8
007C
001E
000E
0007
0007
0006
000E
FC7C
7FF8
0FE0
ENDCHAR
STARTCHAR uni1E65
ENCODING 7781
SWIDTH 464 0
DWIDTH 15 0
BBX 11 26 2 0
BITMAP
1800
3C00
1D00
01C0
0380
0700
0600
0400
0000
0000
1FC0
7FE0
F040
C000
C000
E000
F800
7F00
1FC0
01E0
00E0
0060
0060
E1E0
FFC0
3F00
ENDCHAR
STARTCHAR uni1E66
ENCODING 7782
SWIDTH 553 0
DWIDTH 18 0
BBX 16 33 1 0
BITMAP
0100
0380
0380
0380
0810
1C30
0E60
07C0
0380
0000
0000
07F0
1FFE
3E1C
7000
6000
E000
E000
7000
7800
3F00
1FE0
03F8
007C
001E
000E
0007
0007
0006
000E
FC7C
7FF8
0FE0
ENDCHAR
STARTCHAR uni1E67
ENCODING 7783
SWIDTH 464 0
DWIDTH 15 0
BBX 11 26 2 0
BITMAP
0E00
0E00
0E00
0000
60C0
7980
3F00
0E00
0000
0000
1FC0
7FE0
F040
C000
C000
E000
F800
7F00
1FC0
01E0
00E0
0060
0060
E1E0
FFC0
3F00
ENDCHAR
STARTCHAR uni1E68
ENCODING 7784
SWIDTH 553 0
DWIDTH 18 0
BBX 16 34 1 -6
BITMAP
0380
0380
0380
0100
0000
0000
07F0
1FFE
3E1C
7000
6000
E000
E000
7000
7800
3F00
1FE0
03F8
007C
001E
000E
0007
0007
0006
000E
FC7C
7FF8
0FE0
0000
0000
0100
0380
03C0
0380
ENDCHAR
STARTCHAR uni1E69
ENCODING 7785
SWIDTH 464 0
DWIDTH 15 0
BBX 11 29 2 -6
BITMAP
0E00
0E00
0E00
0400
0000
0000
0000
1FC0
7FE0
F040
C000
C000
E000
F800
7F00
1FC0
01E0
00E0
0060
0060
E1E0
FFC0
3F00
0000
0000
0400
0E00
0E00
0E00
ENDCHAR
STARTCHAR uni1E6C
ENCODING 7788
SWIDTH 566 0
DWIDTH 18 0
BBX 18 28 0 -6
BITMAP
FFFFC0
FFFFC0
00C000
00C000
00C000
00C000
00C000
00C000
00C000
00C000
00C000
00C000
00C000
00C000
00C000
00C000
00C000
00C000
00C000
00C000
00C000
00C000
000000
000000
000000
01E000
01E000
00C000
ENDCHAR
STARTCHAR uni1E6D
ENCODING 7789
SWIDTH 361 0
DWIDTH 12 0
BBX 10 27 1 -6
BITMAP
3800
3800
3800
3800
3800
FF80
FF80
3800
3800
3800
3800
3800
3800
3800
3800
3800
3800
3800
1C00
1F80
07C0
0000
0000
0400
0E00
0F00
0E00
ENDCHAR
STARTCHAR uni1E6E
ENCODING 7790
SWIDTH 566 0
DWIDTH 18 0
BBX 18 27 0 -5
BITMAP
FFFFC0
FFFFC0
00C000
00C000
00C000
00C000
00C000
00C000
00C000
00C000
00C000
00C000
00C000
00C000
00C000
00C000
00C000
00C000
00C000
00C000
00C000
00C000
000000
000000
000000
0FFC00
0FFC00
ENDCHAR
STARTCHAR uni1E6F
ENCODING 7791
SWIDTH 361 0
DWIDTH 12 0
BBX 11 26 1 -5
BITMAP
3800
3800
3800
3800
3800
FF80
FF80
3800
3800
3800
3800
3800
3800
3800
3800
3800
3800
3800
1C00
1F80
07C0
0000
0000
0000
7FE0
7FE0
ENDCHAR
STARTCHAR uni1E78
ENCODING 7800
SWIDTH 671 0
DWIDTH 21 0
BBX 17 35 2 0
BITMAP
001000
003800
007800
00E000
01C000
000000
000000
070400
0F8C00
1CFC00
087000
000000
000000
E00180
E00180
E00180
E00180
E00180
E00180
E00180
E00180
E00180
E00180
E00180
E00180
E00180
E00180
E00180
E00380
600380
700300
780700
3F3E00
1FFC00
07F000
ENDCHAR
STARTCHAR uni1E79
ENCODING 7801
SWIDTH 558 0
DWIDTH 18 0
BBX 13 29 2 0
BITMAP
0040
00E0
01C0
0180
0300
0200
0000
1E30
3FF0
73E0
0000
0000
0000
E018
E018
E018
E018
E018
E018
E018
E018
E018
E018
E018
E018
7038
78F8
3FF8
1F98
ENDCHAR
STARTCHAR uni1E7A
ENCODING 7802
SWIDTH 671 0
DWIDTH 21 0
BBX 17 34 2 0
BITMAP
041000
0E3C00
0E3C00
0E3800
000000
000000
000000
0FFC00
0FFC00
000000
000000
000000
E00180
E00180
E00180
E00180
E00180
E00180
E00180
E00180
E00180
E00180
E00180
E00180
E00180
E00180
E00180
E00380
600380
700300
780700
3F3E00
1FFC00
07F000
ENDCHAR
STARTCHAR uni1E7B
ENCODING 7803
SWIDTH 558 0
DWIDTH 18 0
BBX 13 28 2 0
BITMAP
1000
38F0
38F0
3860
0000
0000
0000
3FF0
3FF0
0000
0000
0000
E018
E018
E018
E018
E018
E018
E018
E018
E018
E018
E018
E018
7038
78F8
3FF8
1F98
ENDCHAR
STARTCHAR Wgrave
ENCODING 7808
SWIDTH 980 0
DWIDTH 31 0
BBX 30 29 1 0
BITMAP
00100000
00380000
001C0000
000E0000
00030000
00000000
00000000
E007001C
E007801C
E0078018
E00F8038
700DC038
700DC030
701CC070
3818E070
3818E060
38386060
183070E0
1C3070E0
1C7030C0
1C6038C0
0C6039C0
0EE01980
0EC01D80
06C01F80
06C00F00
07C00F00
03800F00
03800700
ENDCHAR
STARTCHAR wgrave
ENCODING 7809
SWIDTH 783 0
DWIDTH 25 0
BBX 23 24 1 0
BITMAP
004000
00C000
00E000
007000
003000
001000
000000
000000
E03806
E03C06
E07C0E
606C0C
706C0C
706E1C
30C61C
30C618
38C718
198338
198330
1D83B0
0F01F0
0F01E0
0F01E0
0600E0
ENDCHAR
STARTCHAR Wacute
ENCODING 7810
SWIDTH 980 0
DWIDTH 31 0
BBX 30 29 1 0
BITMAP
00004000
0000E000
0001C000
00038000
00060000
00000000
00000000
E007001C
E007801C
E0078018
E00F8038
700DC038
700DC030
701CC070
3818E070
3818E060
38386060
183070E0
1C3070E0
1C7030C0
1C6038C0
0C6039C0
0EE01980
0EC01D80
06C01F80
06C00F00
07C00F00
03800F00
03800700
ENDCHAR
STARTCHAR wacute
ENCODING 7811
SWIDTH 783 0
DWIDTH 25 0
BBX 23 24 1 0
BITMAP
000200
000700
000F00
000E00
001800
000000
000000
000000
E03806
E03C06
E07C0E
606C0C
706C0C
706E1C
30C61C
30C618
38C718
198338
198330
1D83B0
0F01F0
0F01E0
0F01E0
0600E0
ENDCHAR
STARTCHAR Wdieresis
ENCODING 7812
SWIDTH 980 0
DWIDTH 31 0
BBX 30 28 1 0
BITMAP
0038E000
0078E000
0038E000
00104000
00000000
00000000
E007001C
E007801C
E0078018
E00F8038
700DC038
700DC030
701CC070
3818E070
3818E060
38386060
183070E0
1C3070E0
1C7030C0
1C6038C0
0C6039C0
0EE01980
0EC01D80
06C01F80
06C00F00
07C00F00
03800F00
03800700
ENDCHAR
STARTCHAR wdieresis
ENCODING 7813
SWIDTH 783 0
DWIDTH 25 0
BBX 23 23 1 0
BITMAP
01C300
01C780
01C780
008000
000000
000000
000000
E03806
E03C06
E07C0E
606C0C
706C0C
706E1C
30C61C
30C618
38C718
198338
198330
1D83B0
0F01F0
0F01E0
0F01E0
0600E0
ENDCHAR
STARTCHAR uni1E8E
ENCODING 7822
SWIDTH 580 0
DWIDTH 19 0
BBX 18 29 0 0
BITMAP
004000
00E000
00E000
00E000
000000
000000
000000
F001C0
700180
380380
380700
1C0700
0E0E00
0E0C00
071C00
073800
03B800
01F000
01E000
00E000
00E000
00E000
00E000
00E000
00E000
00E000
00E000
00E000
00E000
ENDCHAR
STARTCHAR uni1E8F
ENCODING 7823
SWIDTH 480 0
DWIDTH 15 0
BBX 14 30 1 -7
BITMAP
0700
0700
0700
0200
0000
0000
0000
C01C
E018
E018
6038
7030
7070
3070
3860
18E0
18C0
1CC0
0DC0
0F80
0780
0700
0700
0700
0600
0E00
0E00
0C00
1C00
1C00
ENDCHAR
STARTCHAR uni1E92
ENCODING 7826
SWIDTH 636 0
DWIDTH 20 0
BBX 18 28 1 -6
BITMAP
7FFFC0
7FFFC0
000380
000700
000F00
000E00
001C00
003800
007000
007000
00E000
01C000
038000
038000
070000
0E0000
1C0000
380000
380000
700000
FFFFC0
FFFFC0
000000
000000
004000
01E000
01E000
00E000
ENDCHAR
STARTCHAR uni1E93
ENCODING 7827
SWIDTH 464 0
DWIDTH 15 0
BBX 13 22 1 -6
BITMAP
FFF0
FFF0
0070
00E0
01C0
01C0
0380
0700
0E00
0E00
1C00
3800
3800
7000
FFF8
FFF8
0000
0000
0200
0700
0700
0700
ENDCHAR
STARTCHAR uni1E97
ENCODING 7831
SWIDTH 361 0
DWIDTH 12 0
BBX 12 28 -1 0
BITMAP
2080
71C0
F1C0
71C0
0000
0000
0000
0000
0E00
0E00
0E00
0E00
3FE0
3FE0
0E00
0E00
0E00
0E00
0E00
0E00
0E00
0E00
0E00
0E00
0E00
0700
07E0
01F0
ENDCHAR
STARTCHAR uni1E9E
ENCODING 7838
SWIDTH 692 0
DWIDTH 22 0
BBX 18 22 3 0
BITMAP
07F000
1FFC00
7E3E00
700F00
E00700
E00600
C00E00
C01C00
C01800
C03800
C03C00
C07F00
C00F80
C00380
C003C0
C001C0
C001C0
C001C0
C00380
C18F80
C3FF00
C0FC00
ENDCHAR
STARTCHAR uni1EA0
ENCODING 7840
SWIDTH 626 0
DWIDTH 20 0
BBX 20 28 0 -6
BITMAP
00F000
00F800
00F800
01D800
019C00
039C00
038C00
030E00
070E00
060600
060700
0E0700
0C0300
1FFF80
1FFF80
1801C0
3801C0
3801C0
3000E0
7000E0
7000E0
E00070
000000
000000
000000
00F000
00F000
006000
ENDCHAR
STARTCHAR uni1EA1
ENCODING 7841
SWIDTH 512 0
DWIDTH 16 0
BBX 13 22 1 -6
BITMAP
1FC0
7FE0
78F0
0038
0038
0038
0038
07F8
3FF8
7838
6038
E038
6038
78F8
3FD8
1F98
0000
0000
0100
0380
0380
0380
ENDCHAR
STARTCHAR uni1EA2
ENCODING 7842
SWIDTH 626 0
DWIDTH 20 0
BBX 20 31 0 0
BITMAP
00F000
01F800
011800
001800
001800
003000
006000
000000
000000
00F000
00F800
00F800
01D800
019C00
039C00
038C00
030E00
070E00
060600
060700
0E0700
0C0300
1FFF80
1FFF80
1801C0
3801C0
3801C0
3000E0
7000E0
7000E0
E00070
ENDCHAR
STARTCHAR uni1EA3
ENCODING 7843
SWIDTH 512 0
DWIDTH 16 0
BBX 13 25 1 0
BITMAP
0F80
1FC0
01C0
00C0
0180
0380
0300
0000
0000
1FC0
7FE0
78F0
0038
0038
0038
0038
07F8
3FF8
7838
6038
E038
6038
78F8
3FD8
1F98
ENDCHAR
STARTCHAR uni1EA4
ENCODING 7844
SWIDTH 626 0
DWIDTH 20 0
BBX 20 33 0 0
BITMAP
000080
0000C0
0001C0
000380
000700
007200
01F800
039C00
030C00
000000
000000
00F000
00F800
00F800
01D800
019C00
039C00
038C00
030E00
070E00
060600
060700
0E0700
0C0300
1FFF80
1FFF80
1801C0
3801C0
3801C0
3000E0
7000E0
7000E0
E00070
ENDCHAR
STARTCHAR uni1EA5
ENCODING 7845
SWIDTH 512 0
DWIDTH 16 0
BBX 15 27 1 0
BITMAP
0004
0006
000E
001C
0038
0330
07C0
0DE0
3860
0000
0000
1FC0
7FE0
78F0
0038
0038
0038
0038
07F8
3FF8
7838
6038
E038
6038
78F8
3FD8
1F98
ENDCHAR
STARTCHAR uni1EA6
ENCODING 7846
SWIDTH 626 0
DWIDTH 20 0
BBX 20 33 0 0
BITMAP
001000
003800
001C00
000C00
000600
007200
01F800
039C00
030C00
000000
000000
00F000
00F800
00F800
01D800
019C00
039C00
038C00
030E00
070E00
060600
060700
0E0700
0C0300
1FFF80
1FFF80
1801C0
3801C0
3801C0
3000E0
7000E0
7000E0
E00070
ENDCHAR
STARTCHAR uni1EA7
ENCODING 7847
SWIDTH 512 0
DWIDTH 16 0
BBX 13 27 1 0
BITMAP
0080
0180
01C0
00E0
0070
0330
07C0
0DE0
3860
0000
0000
1FC0
7FE0
78F0
0038
0038
0038
0038
07F8
3FF8
7838
6038
E038
6038
78F8
3FD8
1F98
ENDCHAR
STARTCHAR uni1EA8
ENCODING 7848
SWIDTH 626 0
DWIDTH 20 0
BBX 20 33 0 0
BITMAP
000F80
001FC0
0000C0
0001C0
000380
007200
00F800
039C00
070C00
000000
000000
00F000
00F800
00F800
01D800
019C00
039C00
038C00
030E00
070E00
060600
060700
0E0700
0C0300
1FFF80
1FFF80
1801C0
3801C0
3801C0
3000E0
7000E0
7000E0
E00070
ENDCHAR
STARTCHAR uni1EA9
ENCODING 7849
SWIDTH 512 0
DWIDTH 16 0
BBX 15 27 1 0
BITMAP
0078
00FC
000E
000C
001C
0310
07C0
0DE0
3860
0000
0000
1FC0
7FE0
78F0
0038
0038
0038
0038
07F8
3FF8
7838
6038
E038
6038
78F8
3FD8
1F98
ENDCHAR
STARTCHAR uni1EAA
ENCODING 7850
SWIDTH 626 0
DWIDTH 20 0
BBX 20 33 0 0
BITMAP
01C600
03FE00
063C00
000000
000000
00F000
01F800
039C00
030C00
000000
000000
00F000
00F800
00F800
01D800
019C00
039C00
038C00
030E00
070E00
060600
060700
0E0700
0C0300
1FFF80
1FFF80
1801C0
3801C0
3801C0
3000E0
7000E0
7000E0
E00070
ENDCHAR
STARTCHAR uni1EAB
ENCODING 7851
SWIDTH 512 0
DWIDTH 16 0
BBX 13 27 1 0
BITMAP
1E00
3F30
33F0
01E0
0000
0780
0FC0
1DE0
3860
0000
0000
1FC0
7FE0
78F0
0038
0038
0038
0038
07F8
3FF8
7838
6038
E038
6038
78F8
3FD8
1F98
ENDCHAR
STARTCHAR uni1EAC
ENCODING 7852
SWIDTH 626 0
DWIDTH 20 0
BBX 20 35 0 -6
BITMAP
007000
00F800
019C00
030E00
020400
000000
000000
00F000
00F800
00F800
01D800
019C00
039C00
038C00
030E00
070E00
060600
060700
0E0700
0C0300
1FFF80
1FFF80
1801C0
3801C0
3801C0
3000E0
7000E0
7000E0
E00070
000000
000000
000000
00F000
00F000
006000
ENDCHAR
STARTCHAR uni1EAD
ENCODING 7853
SWIDTH 512 0
DWIDTH 16 0
BBX 13 30 1 -6
BITMAP
0300
0780
0FC0
1CE0
1870
1020
0000
0000
1FC0
7FE0
78F0
0038
0038
0038
0038
07F8
3FF8
7838
6038
E038
6038
78F8
3FD8
1F98
0000
0000
0100
0380
0380
0380
ENDCHAR
STARTCHAR uni1EAE
ENCODING 7854
SWIDTH 626 0
DWIDTH 20 0
BBX 20 34 0 0
BITMAP
000800
000C00
001C00
003800
007000
006000
070600
078C00
03FC00
00F000
000000
000000
00F000
00F800
00F800
01D800
019C00
039C00
038C00
030E00
070E00
060600
060700
0E0700
0C0300
1FFF80
1FFF80
1801C0
3801C0
3801C0
3000E0
7000E0
7000E0
E00070
ENDCHAR
STARTCHAR uni1EAF
ENCODING 7855
SWIDTH 512 0
DWIDTH 16 0
BBX 13 28 1 0
BITMAP
0040
00E0
00E0
01C0
0380
0320
3030
3860
1FC0
0F80
0000
0000
1FC0
7FE0
78F0
0038
0038
0038
0038
07F8
3FF8
7838
6038
E038
6038
78F8
3FD8
1F98
ENDCHAR
STARTCHAR uni1EB0
ENCODING 7856
SWIDTH 626 0
DWIDTH 20 0
BBX 20 34 0 0
BITMAP
010000
030000
038000
01C000
00E000
006000
070600
078C00
03FC00
00F000
000000
000000
00F000
00F800
00F800
01D800
019C00
039C00
038C00
030E00
070E00
060600
060700
0E0700
0C0300
1FFF80
1FFF80
1801C0
3801C0
3801C0
3000E0
7000E0
7000E0
E00070
ENDCHAR
STARTCHAR uni1EB1
ENCODING 7857
SWIDTH 512 0
DWIDTH 16 0
BBX 13 26 1 0
BITMAP
1800
1C00
0E00
0700
0320
3030
3860
1FC0
0F80
0000
1FC0
7FE0
78F0
0038
0038
0038
0038
07F8
3FF8
7838
6038
E038
6038
78F8
3FD8
1F98
ENDCHAR
STARTCHAR uni1EB2
ENCODING 7858
SWIDTH 626 0
DWIDTH 20 0
BBX 20 34 0 0
BITMAP
00F000
01F800
001C00
001800
003800
002000
070600
078C00
03FC00
00F000
000000
000000
00F000
00F800
00F800
01D800
019C00
039C00
038C00
030E00
070E00
060600
060700
0E0700
0C0300
1FFF80
1FFF80
1801C0
3801C0
3801C0
3000E0
7000E0
7000E0
E00070
ENDCHAR
STARTCHAR uni1EB3
ENCODING 7859
SWIDTH 512 0
DWIDTH 16 0
BBX 13 27 1 0
BITMAP
0780
0FC0
00C0
00C0
0180
1030
3860
1FE0
0F80
0000
0000
1FC0
7FE0
78F0
0038
0038
0038
0038
07F8
3FF8
7838
6038
E038
6038
78F8
3FD8
1F98
ENDCHAR
STARTCHAR uni1EB4
ENCODING 7860
SWIDTH 626 0
DWIDTH 20 0
BBX 20 33 0 0
BITMAP
01C600
03FE00
063C00
000000
000000
070600
078C00
03FC00
00F000
000000
000000
00F000
00F800
00F800
01D800
019C00
039C00
038C00
030E00
070E00
060600
060700
0E0700
0C0300
1FFF80
1FFF80
1801C0
3801C0
3801C0
3000E0
7000E0
7000E0
E00070
ENDCHAR
STARTCHAR uni1EB5
ENCODING 7861
SWIDTH 512 0
DWIDTH 16 0
BBX 13 27 1 0
BITMAP
1E00
3F30
33F0
01E0
0000
3030
3860
1FC0
0F80
0000
0000
1FC0
7FE0
78F0
0038
0038
0038
0038
07F8
3FF8
7838
6038
E038
6038
78F8
3FD8
1F98
ENDCHAR
STARTCHAR uni1EB6
ENCODING 7862
SWIDTH 626 0
DWIDTH 20 0
BBX 20 35 0 -6
BITMAP
020600
070400
038C00
03F800
00F000
000000
000000
00F000
00F800
00F800
01D800
019C00
039C00
038C00
030E00
070E00
060600
060700
0E0700
0C0300
1FFF80
1FFF80
1801C0
3801C0
3801C0
3000E0
7000E0
7000E0
E00070
000000
000000
000000
00F000
00F000
006000
ENDCHAR
STARTCHAR uni1EB7
ENCODING 7863
SWIDTH 512 0
DWIDTH 16 0
BBX 13 29 1 -6
BITMAP
1020
3020
3860
1FC0
0F80
0000
0000
1FC0
7FE0
78F0
0038
0038
0038
0038
07F8
3FF8
7838
6038
E038
6038
78F8
3FD8
1F98
0000
0000
0100
0380
0380
0380
ENDCHAR
STARTCHAR uni1EB8
ENCODING 7864
SWIDTH 584 0
DWIDTH 19 0
BBX 14 28 3 -6
BITMAP
FFFC
FFFC
E000
E000
E000
E000
E000
E000
E000
E000
FFF8
FFF8
E000
E000
E000
E000
E000
E000
E000
E000
FFFC
FFFC
0000
0000
0200
0700
0700
0700
ENDCHAR
STARTCHAR uni1EB9
ENCODING 7865
SWIDTH 528 0
DWIDTH 17 0
BBX 13 22 2 -6
BITMAP
0F80
3FE0
78F0
7038
E038
E018
C018
FFF8
FFF8
C000
E000
E000
7000
7C10
3FF8
0FE0
0000
0000
0100
0780
0780
0380
ENDCHAR
STARTCHAR uni1EBA
ENCODING 7866
SWIDTH 584 0
DWIDTH 19 0
BBX 14 31 3 0
BITMAP
0780
0FC0
08E0
00E0
00C0
01C0
0180
0000
0000
FFFC
FFFC
E000
E000
E000
E000
E000
E000
E000
E000
FFF8
FFF8
E000
E000
E000
E000
E000
E000
E000
E000
FFFC
FFFC
ENDCHAR
STARTCHAR uni1EBB
ENCODING 7867
SWIDTH 528 0
DWIDTH 17 0
BBX 13 25 2 0
BITMAP
0F80
1F80
01C0
00C0
0180
0300
0200
0000
0000
0F80
3FE0
78F0
7038
E038
E018
C018
FFF8
FFF8
C000
E000
E000
7000
7C10
3FF8
0FE0
ENDCHAR
STARTCHAR uni1EBC
ENCODING 7868
SWIDTH 584 0
DWIDTH 19 0
BBX 14 28 3 0
BITMAP
0C10
1F38
33F0
20E0
0000
0000
FFFC
FFFC
E000
E000
E000
E000
E000
E000
E000
E000
FFF8
FFF8
E000
E000
E000
E000
E000
E000
E000
E000
FFFC
FFFC
ENDCHAR
STARTCHAR uni1EBD
ENCODING 7869
SWIDTH 528 0
DWIDTH 17 0
BBX 13 23 2 0
BITMAP
0C00
1E30
3FF0
73E0
2080
0000
0000
0F80
3FE0
78F0
7038
E038
E018
C018
FFF8
FFF8
C000
E000
E000
7000
7C10
3FF8
0FE0
ENDCHAR
STARTCHAR uni1EBE
ENCODING 7870
SWIDTH 584 0
DWIDTH 19 0
BBX 16 32 3 0
BITMAP
0007
000E
001C
0018
0390
07C0
0CF0
1830
0000
0000
FFFC
FFFC
E000
E000
E000
E000
E000
E000
E000
E000
FFF8
FFF8
E000
E000
E000
E000
E000
E000
E000
E000
FFFC
FFFC
ENDCHAR
STARTCHAR uni1EBF
ENCODING 7871
SWIDTH 528 0
DWIDTH 17 0
BBX 15 26 2 0
BITMAP
000E
000E
001C
0038
0330
0F80
1DE0
38E0
0000
0000
0F80
3FE0
78F0
7038
E038
E018
C018
FFF8
FFF8
C000
E000
E000
7000
7C10
3FF8
0FE0
ENDCHAR
STARTCHAR uni1EC0
ENCODING 7872
SWIDTH 584 0
DWIDTH 19 0
BBX 14 33 3 0
BITMAP
0080
01C0
00E0
0070
0030
0390
07C0
0CF0
1830
0000
0000
FFFC
FFFC
E000
E000
E000
E000
E000
E000
E000
E000
FFF8
FFF8
E000
E000
E000
E000
E000
E000
E000
E000
FFFC
FFFC
ENDCHAR
STARTCHAR uni1EC1
ENCODING 7873
SWIDTH 528 0
DWIDTH 17 0
BBX 13 26 2 0
BITMAP
0180
01C0
00E0
0070
0330
0F80
1DE0
38E0
0000
0000
0F80
3FE0
78F0
7038
E038
E018
C018
FFF8
FFF8
C000
E000
E000
7000
7C10
3FF8
0FE0
ENDCHAR
STARTCHAR uni1EC2
ENCODING 7874
SWIDTH 584 0
DWIDTH 19 0
BBX 15 33 3 0
BITMAP
007C
007E
0006
0006
001C
0390
07C0
0EE0
1870
0000
0000
FFFC
FFFC
E000
E000
E000
E000
E000
E000
E000
E000
FFF8
FFF8
E000
E000
E000
E000
E000
E000
E000
E000
FFFC
FFFC
ENDCHAR
STARTCHAR uni1EC3
ENCODING 7875
SWIDTH 528 0
DWIDTH 17 0
BBX 14 27 2 0
BITMAP
0078
00FC
008C
000C
0018
0310
0F80
1DE0
38E0
0000
0000
0F80
3FE0
78F0
7038
E038
E018
C018
FFF8
FFF8
C000
E000
E000
7000
7C10
3FF8
0FE0
ENDCHAR
STARTCHAR uni1EC4
ENCODING 7876
SWIDTH 584 0
DWIDTH 19 0
BBX 14 33 3 0
BITMAP
0E18
1FF0
31E0
0000
0000
0380
07C0
0CF0
1830
0000
0000
FFFC
FFFC
E000
E000
E000
E000
E000
E000
E000
E000
FFF8
FFF8
E000
E000
E000
E000
E000
E000
E000
E000
FFFC
FFFC
ENDCHAR
STARTCHAR uni1EC5
ENCODING 7877
SWIDTH 528 0
DWIDTH 17 0
BBX 13 27 2 0
BITMAP
1E00
3F30
33E0
01C0
0000
0700
0FC0
1DE0
3860
0000
0000
0F80
3FE0
78F0
7038
E038
E018
C018
FFF8
FFF8
C000
E000
E000
7000
7C10
3FF8
0FE0
ENDCHAR
STARTCHAR uni1EC6
ENCODING 7878
SWIDTH 584 0
DWIDTH 19 0
BBX 14 35 3 -6
BITMAP
0380
07C0
0EE0
1C70
1020
0000
0000
FFFC
FFFC
E000
E000
E000
E000
E000
E000
E000
E000
FFF8
FFF8
E000
E000
E000
E000
E000
E000
E000
E000
FFFC
FFFC
0000
0000
0200
0700
0700
0700
ENDCHAR
STARTCHAR uni1EC7
ENCODING 7879
SWIDTH 528 0
DWIDTH 17 0
BBX 13 30 2 -6
BITMAP
0200
0700
0F80
1DC0
3860
0000
0000
0000
0F80
3FE0
78F0
7038
E038
E018
C018
FFF8
FFF8
C000
E000
E000
7000
7C10
3FF8
0FE0
0000
0000
0100
0780
0780
0380
ENDCHAR
STARTCHAR uni1EC8
ENCODING 7880
SWIDTH 267 0
DWIDTH 9 0
BBX 7 31 1 0
BITMAP
78
FC
8E
0E
0C
1C
18
00
00
38
38
38
38
38
38
38
38
38
38
38
38
38
38
38
38
38
38
38
38
38
38
ENDCHAR
STARTCHAR uni1EC9
ENCODING 7881
SWIDTH 246 0
DWIDTH 8 0
BBX 6 25 1 0
BITMAP
F8
FC
0C
0C
18
38
20
00
00
30
30
30
30
30
30
30
30
30
30
30
30
30
30
30
30
ENDCHAR
STARTCHAR uni1ECA
ENCODING 7882
SWIDTH 267 0
DWIDTH 9 0
BBX 4 28 2 -6
BITMAP
70
70
70
70
70
70
70
70
70
70
70
70
70
70
70
70
70
70
70
70
70
70
00
00
20
70
F0
70
ENDCHAR
STARTCHAR uni1ECB
ENCODING 7883
SWIDTH 246 0
DWIDTH 8 0
BBX 4 29 2 -6
BITMAP
60
F0
F0
00
00
00
00
60
60
60
60
60
60
60
60
60
60
60
60
60
60
60
60
00
00
00
E0
F0
60
ENDCHAR
STARTCHAR uni1ECC
ENCODING 7884
SWIDTH 760 0
DWIDTH 24 0
BBX 21 28 2 -6
BITMAP
01FC00
0FFF00
1F0F80
3C03C0
7801E0
7000E0
E00070
E00070
E00030
C00038
C00038
C00038
E00030
E00030
E00070
E00070
7000E0
7800E0
3C03C0
1F0F80
0FFF00
01F800
000000
000000
002000
00F000
00F000
007000
ENDCHAR
STARTCHAR uni1ECD
ENCODING 7885
SWIDTH 567 0
DWIDTH 18 0
BBX 14 22 2 -6
BITMAP
0FC0
1FF0
7CF8
7038
E01C
E01C
C00C
C00C
C00C
C00C
E00C
E01C
7038
7CF8
3FF0
0FC0
0000
0000
0000
0780
0780
0300
ENDCHAR
STARTCHAR uni1ECE
ENCODING 7886
SWIDTH 760 0
DWIDTH 24 0
BBX 21 30 2 0
BITMAP
00F000
01F800
011800
001800
001800
003000
002000
000000
01FC00
0FFF00
1F0F80
3C03C0
7801E0
7000E0
E00070
E00070
E00030
C00038
C00038
C00038
E00030
E00030
E00070
E00070
7000E0
7800E0
3C03C0
1F0F80
0FFF00
01F800
ENDCHAR
STARTCHAR uni1ECF
ENCODING 7887
SWIDTH 567 0
DWIDTH 18 0
BBX 14 25 2 0
BITMAP
0780
0FC0
08C0
00C0
00C0
0180
0300
0000
0000
0FC0
1FF0
7CF8
7038
E01C
E01C
C00C
C00C
C00C
C00C
E00C
E01C
7038
7CF8
3FF0
0FC0
ENDCHAR
STARTCHAR uni1ED0
ENCODING 7888
SWIDTH 760 0
DWIDTH 24 0
BBX 21 32 2 0
BITMAP
0000C0
0001C0
000380
000300
007200
00F800
01DC00
030E00
000000
000000
01FC00
0FFF00
1F0F80
3C03C0
7801E0
7000E0
E00070
E00070
E00030
C00038
C00038
C00038
E00030
E00030
E00070
E00070
7000E0
7800E0
3C03C0
1F0F80
0FFF00
01F800
ENDCHAR
STARTCHAR uni1ED1
ENCODING 7889
SWIDTH 567 0
DWIDTH 18 0
BBX 15 26 2 0
BITMAP
0006
000E
001C
0018
0390
07C0
0FE0
1870
1020
0000
0FC0
1FF0
7CF8
7038
E01C
E01C
C00C
C00C
C00C
C00C
E00C
E01C
7038
7CF8
3FF0
0FC0
ENDCHAR
STARTCHAR uni1ED2
ENCODING 7890
SWIDTH 760 0
DWIDTH 24 0
BBX 21 32 2 0
BITMAP
001800
003C00
001C00
000600
007200
00F800
01DC00
030E00
000000
000000
01FC00
0FFF00
1F0F80
3C03C0
7801E0
7000E0
E00070
E00070
E00030
C00038
C00038
C00038
E00030
E00030
E00070
E00070
7000E0
7800E0
3C03C0
1F0F80
0FFF00
01F800
ENDCHAR
STARTCHAR uni1ED3
ENCODING 7891
SWIDTH 567 0
DWIDTH 18 0
BBX 14 26 2 0
BITMAP
00C0
01C0
00E0
0030
0390
07C0
0FE0
1870
1020
0000
0FC0
1FF0
7CF8
7038
E01C
E01C
C00C
C00C
C00C
C00C
E00C
E01C
7038
7CF8
3FF0
0FC0
ENDCHAR
STARTCHAR uni1ED4
ENCODING 7892
SWIDTH 760 0
DWIDTH 24 0
BBX 21 33 2 0
BITMAP
000F80
000FC0
0000C0
0000C0
000180
007300
00F800
01DC00
030E00
000000
000000
01FC00
0FFF00
1F0F80
3C03C0
7801E0
7000E0
E00070
E00070
E00030
C00038
C00038
C00038
E00030
E00030
E00070
E00070
7000E0
7800E0
3C03C0
1F0F80
0FFF00
01F800
ENDCHAR
STARTCHAR uni1ED5
ENCODING 7893
SWIDTH 567 0
DWIDTH 18 0
BBX 15 27 2 0
BITMAP
007C
00FE
0006
0006
001C
0398
07C0
0FE0
1870
1020
0000
0FC0
1FF0
7CF8
7038
E01C
E01C
C00C
C00C
C00C
C00C
E00C
E01C
7038
7CF8
3FF0
0FC0
ENDCHAR
STARTCHAR uni1ED6
ENCODING 7894
SWIDTH 760 0
DWIDTH 24 0
BBX 21 33 2 0
BITMAP
01C000
03E600
067E00
003C00
000000
007000
00F800
019C00
030E00
000000
000000
01FC00
0FFF00
1F0F80
3C03C0
7801E0
7000E0
E00070
E00070
E00030
C00038
C00038
C00038
E00030
E00030
E00070
E00070
7000E0
7800E0
3C03C0
1F0F80
0FFF00
01F800
ENDCHAR
STARTCHAR uni1ED7
ENCODING 7895
SWIDTH 567 0
DWIDTH 18 0
BBX 14 27 2 0
BITMAP
0E00
1F30
33F0
01E0
0000
0380
07C0
0CE0
3870
1020
0000
0FC0
1FF0
7CF8
7038
E01C
E01C
C00C
C00C
C00C
C00C
E00C
E01C
7038
7CF8
3FF0
0FC0
ENDCHAR
STARTCHAR uni1ED8
ENCODING 7896
SWIDTH 760 0
DWIDTH 24 0
BBX 21 35 2 -6
BITMAP
007000
00F800
01DC00
038E00
030600
000000
000000
01FC00
0FFF00
1F0F80
3C03C0
7801E0
7000E0
E00070
E00070
E00030
C00038
C00038
C00038
E00030
E00030
E00070
E00070
7000E0
7800E0
3C03C0
1F0F80
0FFF00
01F800
000000
000000
002000
00F000
00F000
007000
ENDCHAR
STARTCHAR uni1ED9
ENCODING 7897
SWIDTH 567 0
DWIDTH 18 0
BBX 14 30 2 -6
BITMAP
0300
0780
07C0
0CE0
1870
1020
0000
0000
0FC0
1FF0
7CF8
7038
E01C
E01C
C00C
C00C
C00C
C00C
E00C
E01C
7038
7CF8
3FF0
0FC0
0000
0000
0000
0780
0780
0300
ENDCHAR
STARTCHAR uni1EDA
ENCODING 7898
SWIDTH 760 0
DWIDTH 24 0
BBX 23 29 2 0
BITMAP
000400
000C00
001C00
003800
00600E
00400E
000006
01FC06
0FFF06
1F0F8E
3C03FC
7801F0
7000E0
E00070
E00070
E00030
C00038
C00038
C00038
E00030
E00030
E00070
E00070
7000E0
7800E0
3C03C0
1F0F80
0FFF00
01F800
ENDCHAR
STARTCHAR uni1EDB
ENCODING 7899
SWIDTH 627 0
DWIDTH 20 0
BBX 17 24 2 0
BITMAP
004000
00E000
00E000
01C000
038000
010300
000380
000180
0FC180
1FF180
7CFB80
703F00
E01E00
E01C00
C00C00
C00C00
C00C00
C00C00
E00C00
E01C00
703800
7CF800
3FF000
0FC000
ENDCHAR
STARTCHAR uni1EDC
ENCODING 7900
SWIDTH 760 0
DWIDTH 24 0
BBX 23 28 2 0
BITMAP
038000
03C000
01E000
00700E
00200E
000006
01FC06
0FFF06
1F0F8E
3C03FC
7801F0
7000E0
E00070
E00070
E00030
C00038
C00038
C00038
E00030
E00030
E00070
E00070
7000E0
7800E0
3C03C0
1F0F80
0FFF00
01F800
ENDCHAR
STARTCHAR uni1EDD
ENCODING 7901
SWIDTH 627 0
DWIDTH 20 0
BBX 17 24 2 0
BITMAP
080000
1C0000
1C0000
0E0000
060000
020300
000380
000180
0FC180
1FF180
7CFB80
703F00
E01E00
E01C00
C00C00
C00C00
C00C00
C00C00
E00C00
E01C00
703800
7CF800
3FF000
0FC000
ENDCHAR
STARTCHAR uni1EDE
ENCODING 7902
SWIDTH 760 0
DWIDTH 24 0
BBX 23 30 2 0
BITMAP
00F000
01F800
011800
001800
001800
00300C
00200E
000006
01FC06
0FFF06
1F0F8E
3C03FC
7801F0
7000E0
E00070
E00070
E00030
C00038
C00038
C00038
E00030
E00030
E00070
E00070
7000E0
7800E0
3C03C0
1F0F80
0FFF00
01F800
ENDCHAR
STARTCHAR uni1EDF
ENCODING 7903
SWIDTH 627 0
DWIDTH 20 0
BBX 17 25 2 0
BITMAP
078000
0FC000
08C000
00C000
00C000
018000
030380
000380
000180
0FC180
1FF180
7CFB80
703F00
E01E00
E01C00
C00C00
C00C00
C00C00
C00C00
E00C00
E01C00
703800
7CF800
3FF000
0FC000
ENDCHAR
STARTCHAR uni1EE0
ENCODING 7904
SWIDTH 760 0
DWIDTH 24 0
BBX 23 28 2 0
BITMAP
018200
07E700
067E00
041C0E
00000E
000006
01FC06
0FFF06
1F0F8E
3C03FC
7801F0
7000E0
E00070
E00070
E00030
C00038
C00038
C00038
E00030
E00030
E00070
E00070
7000E0
7800E0
3C03C0
1F0F80
0FFF00
01F800
ENDCHAR
STARTCHAR uni1EE1
ENCODING 7905
SWIDTH 627 0
DWIDTH 20 0
BBX 17 23 2 0
BITMAP
040000
1F1800
3FF000
33E000
000380
000180
000180
0FC180
1FF180
7CFB80
703F00
E01E00
E01C00
C00C00
C00C00
C00C00
C00C00
E00C00
E01C00
703800
7CF800
3FF000
0FC000
ENDCHAR
STARTCHAR uni1EE2
ENCODING 7906
SWIDTH 760 0
DWIDTH 24 0
BBX 23 31 2 -6
BITMAP
00000E
00000E
000006
01FC06
0FFF06
1F0F8E
3C03FC
7801F0
7000E0
E00070
E00070
E00030
C00038
C00038
C00038
E00030
E00030
E00070
E00070
7000E0
7800E0
3C03C0
1F0F80
0FFF00
01F800
000000
000000
002000
00F000
00F000
007000
ENDCHAR
STARTCHAR uni1EE3
ENCODING 7907
SWIDTH 627 0
DWIDTH 20 0
BBX 17 25 2 -6
BITMAP
000380
000380
000180
0FC180
1FF180
7CFB80
703F00
E01E00
E01C00
C00C00
C00C00
C00C00
C00C00
E00C00
E01C00
703800
7CF800
3FF000
0FC000
000000
000000
000000
078000
078000
030000
ENDCHAR
STARTCHAR uni1EE4
ENCODING 7908
SWIDTH 671 0
DWIDTH 21 0
BBX 17 28 2 -6
BITMAP
E00180
E00180
E00180
E00180
E00180
E00180
E00180
E00180
E00180
E00180
E00180
E00180
E00180
E00180
E00180
E00380
600380
700300
780700
3F3E00
1FFC00
07F000
000000
000000
008000
01C000
01C000
01C000
ENDCHAR
STARTCHAR uni1EE5
ENCODING 7909
SWIDTH 558 0
DWIDTH 18 0
BBX 13 22 2 -6
BITMAP
E018
E018
E018
E018
E018
E018
E018
E018
E018
E018
E018
E018
7038
78F8
3FF8
1F98
0000
0000
0200
0700
0780
0700
ENDCHAR
STARTCHAR uni1EE6
ENCODING 7910
SWIDTH 671 0
DWIDTH 21 0
BBX 17 31 2 0
BITMAP
03E000
03F000
023000
003000
003000
006000
00C000
000000
000000
E00180
E00180
E00180
E00180
E00180
E00180
E00180
E00180
E00180
E00180
E00180
E00180
E00180
E00180
E00180
E00380
600380
700300
780700
3F3E00
1FFC00
07F000
ENDCHAR
STARTCHAR uni1EE7
ENCODING 7911
SWIDTH 558 0
DWIDTH 18 0
BBX 13 25 2 0
BITMAP
0F80
1FC0
01C0
00C0
0180
0300
0200
0000
0000
E018
E018
E018
E018
E018
E018
E018
E018
E018
E018
E018
E018
7038
78F8
3FF8
1F98
ENDCHAR
STARTCHAR uni1EE8
ENCODING 7912
SWIDTH 671 0
DWIDTH 21 0
BBX 22 29 2 0
BITMAP
001000
003800
007800
00E000
01C01C
00000C
00000C
E0018C
E0018C
E0019C
E001F8
E001E0
E00180
E00180
E00180
E00180
E00180
E00180
E00180
E00180
E00180
E00180
E00380
600380
700300
780700
3F3E00
1FFC00
07F000
ENDCHAR
STARTCHAR uni1EE9
ENCODING 7913
SWIDTH 651 0
DWIDTH 21 0
BBX 18 24 2 0
BITMAP
004000
00E000
01E000
018000
030000
000180
0001C0
0001C0
E018C0
E019C0
E01B80
E01F80
E01C00
E01800
E01800
E01800
E01800
E01800
E01800
E01800
703800
78F800
3FF800
1F9800
ENDCHAR
STARTCHAR uni1EEA
ENCODING 7914
SWIDTH 671 0
DWIDTH 21 0
BBX 22 29 2 0
BITMAP
040000
0E0000
078000
03C000
00C01C
00000C
00000C
E0018C
E0018C
E0019C
E001F8
E001E0
E00180
E00180
E00180
E00180
E00180
E00180
E00180
E00180
E00180
E00180
E00380
600380
700300
780700
3F3E00
1FFC00
07F000
ENDCHAR
STARTCHAR uni1EEB
ENCODING 7915
SWIDTH 651 0
DWIDTH 21 0
BBX 18 24 2 0
BITMAP
080000
180000
1C0000
0E0000
060000
020180
0001C0
0001C0
E018C0
E019C0
E01B80
E01F80
E01C00
E01800
E01800
E01800
E01800
E01800
E01800
E01800
703800
78F800
3FF800
1F9800
ENDCHAR
STARTCHAR uni1EEC
ENCODING 7916
SWIDTH 671 0
DWIDTH 21 0
BBX 22 31 2 0
BITMAP
03E000
03F000
023000
003000
003000
006000
00C01C
00000C
00000C
E0018C
E0018C
E0019C
E001F8
E001E0
E00180
E00180
E00180
E00180
E00180
E00180
E00180
E00180
E00180
E00180
E00380
600380
700300
780700
3F3E00
1FFC00
07F000
ENDCHAR
STARTCHAR uni1EED
ENCODING 7917
SWIDTH 651 0
DWIDTH 21 0
BBX 18 25 2 0
BITMAP
0F8000
1FC000
01C000
00C000
018000
030000
020180
0001C0
0000C0
E018C0
E019C0
E01B80
E01F80
E01C00
E01800
E01800
E01800
E01800
E01800
E01800
E01800
703800
78F800
3FF800
1F9800
ENDCHAR
STARTCHAR uni1EEE
ENCODING 7918
SWIDTH 671 0
DWIDTH 21 0
BBX 22 28 2 0
BITMAP
070400
0F8C00
1CFC00
08701C
00000C
00000C
E0018C
E0018C
E0019C
E001F8
E001E0
E00180
E00180
E00180
E00180
E00180
E00180
E00180
E00180
E00180
E00180
E00380
600380
700300
780700
3F3E00
1FFC00
07F000
ENDCHAR
STARTCHAR uni1EEF
ENCODING 7919
SWIDTH 651 0
DWIDTH 21 0
BBX 18 23 2 0
BITMAP
1C1000
3F3000
33F000
61E000
000180
0001C0
0000C0
E018C0
E019C0
E01B80
E01F80
E01C00
E01800
E01800
E01800
E01800
E01800
E01800
E01800
703800
78F800
3FF800
1F9800
ENDCHAR
STARTCHAR uni1EF0
ENCODING 7920
SWIDTH 671 0
DWIDTH 21 0
BBX 22 31 2 -6
BITMAP
00001C
00000C
00000C
E0018C
E0018C
E0019C
E001F8
E001E0
E00180
E00180
E00180
E00180
E00180
E00180
E00180
E00180
E00180
E00180
E00380
600380
700300
780700
3F3E00
1FFC00
07F000
000000
000000
008000
01C000
01C000
01C000
ENDCHAR
STARTCHAR uni1EF1
ENCODING 7921
SWIDTH 651 0
DWIDTH 21 0
BBX 18 25 2 -6
BITMAP
000180
0001C0
0000C0
E018C0
E019C0
E01B80
E01F80
E01C00
E01800
E01800
E01800
E01800
E01800
E01800
E01800
703800
78F800
3FF800
1F9800
000000
000000
020000
070000
078000
070000
ENDCHAR
STARTCHAR Ygrave
ENCODING 7922
SWIDTH 580 0
DWIDTH 19 0
BBX 18 29 0 0
BITMAP
020000
070000
038000
01C000
006000
000000
000000
F001C0
700180
380380
380700
1C0700
0E0E00
0E0C00
071C00
073800
03B800
01F000
01E000
00E000
00E000
00E000
00E000
00E000
00E000
00E000
00E000
00E000
00E000
ENDCHAR
STARTCHAR ygrave
ENCODING 7923
SWIDTH 480 0
DWIDTH 15 0
BBX 14 31 1 -7
BITMAP
1000
3800
3C00
1C00
0600
0000
0000
0000
C01C
E018
E018
6038
7030
7070
3070
3860
18E0
18C0
1CC0
0DC0
0F80
0780
0700
0700
0700
0600
0E00
0E00
0C00
1C00
1C00
ENDCHAR
STARTCHAR uni1EF4
ENCODING 7924
SWIDTH 580 0
DWIDTH 19 0
BBX 18 28 0 -6
BITMAP
F001C0
700180
380380
380700
1C0700
0E0E00
0E0C00
071C00
073800
03B800
01F000
01E000
00E000
00E000
00E000
00E000
00E000
00E000
00E000
00E000
00E000
00E000
000000
000000
004000
00E000
00E000
00E000
ENDCHAR
STARTCHAR uni1EF5
ENCODING 7925
SWIDTH 480 0
DWIDTH 15 0
BBX 14 23 1 -7
BITMAP
C01C
E018
E018
6038
7030
7070
3060
3860
18E0
1CC0
1CC0
0DC0
0F80
0780
0700
0700
0700
0600
0E10
0E78
0C78
1C38
1C00
ENDCHAR
STARTCHAR uni1EF6
ENCODING 7926
SWIDTH 580 0
DWIDTH 19 0
BBX 18 31 0 0
BITMAP
01F000
03F800
003800
001800
003000
007000
006000
000000
000000
F001C0
700180
380380
380700
1C0700
0E0E00
0E0C00
071C00
073800
03B800
01F000
01E000
00E000
00E000
00E000
00E000
00E000
00E000
00E000
00E000
00E000
00E000
ENDCHAR
STARTCHAR uni1EF7
ENCODING 7927
SWIDTH 480 0
DWIDTH 15 0
BBX 14 32 1 -7
BITMAP
0F00
1F80
1180
0180
0180
0300
0200
0000
0000
C01C
E018
E018
6038
7030
7070
3070
3860
18E0
18C0
1CC0
0DC0
0F80
0780
0700
0700
0700
0600
0E00
0E00
0C00
1C00
1C00
ENDCHAR
STARTCHAR uni1EF8
ENCODING 7928
SWIDTH 580 0
DWIDTH 19 0
BBX 18 28 0 0
BITMAP
038600
07C600
0CFC00
0C3800
000000
000000
F001C0
700180
380380
380700
1C0700
0E0E00
0E0C00
071C00
073800
03B800
01F000
01E000
00E000
00E000
00E000
00E000
00E000
00E000
00E000
00E000
00E000
00E000
ENDCHAR
STARTCHAR uni1EF9
ENCODING 7929
SWIDTH 480 0
DWIDTH 15 0
BBX 14 30 1 -7
BITMAP
1830
3E30
67E0
61C0
0000
0000
0000
C01C
E018
E018
6038
7030
7070
3070
3860
18E0
18C0
1CC0
0DC0
0F80
0780
0700
0700
0700
0600
0E00
0E00
0C00
1C00
1C00
ENDCHAR
STARTCHAR uni2002
ENCODING 8192
SWIDTH 500 0
DWIDTH 16 0
BBX 1 1 0 0
BITMAP
00
ENDCHAR
STARTCHAR uni2003
ENCODING 8193
SWIDTH 1000 0
DWIDTH 32 0
BBX 1 1 0 0
BITMAP
00
ENDCHAR
STARTCHAR uni2002.dup3
ENCODING 8194
SWIDTH 500 0
DWIDTH 16 0
BBX 1 1 0 0
BITMAP
00
ENDCHAR
STARTCHAR uni2003.dup4
ENCODING 8195
SWIDTH 1000 0
DWIDTH 32 0
BBX 1 1 0 0
BITMAP
00
ENDCHAR
STARTCHAR uni2004
ENCODING 8196
SWIDTH 333 0
DWIDTH 11 0
BBX 1 1 0 0
BITMAP
00
ENDCHAR
STARTCHAR uni2005
ENCODING 8197
SWIDTH 150 0
DWIDTH 5 0
BBX 1 1 0 0
BITMAP
00
ENDCHAR
STARTCHAR uni2006
ENCODING 8198
SWIDTH 166 0
DWIDTH 5 0
BBX 1 1 0 0
BITMAP
00
ENDCHAR
STARTCHAR uni2007
ENCODING 8199
SWIDTH 580 0
DWIDTH 19 0
BBX 1 1 0 0
BITMAP
00
ENDCHAR
STARTCHAR uni2008
ENCODING 8200
SWIDTH 256 0
DWIDTH 8 0
BBX 1 1 0 0
BITMAP
00
ENDCHAR
STARTCHAR uni2009
ENCODING 8201
SWIDTH 200 0
DWIDTH 6 0
BBX 1 1 0 0
BITMAP
00
ENDCHAR
STARTCHAR uni200A
ENCODING 8202
SWIDTH 100 0
DWIDTH 3 0
BBX 1 1 0 0
BITMAP
00
ENDCHAR
STARTCHAR uni200B
ENCODING 8203
SWIDTH 0 0
DWIDTH 0 0
BBX 1 1 0 0
BITMAP
00
ENDCHAR
STARTCHAR hyphen.dup5
ENCODING 8208
SWIDTH 424 0
DWIDTH 14 0
BBX 9 2 2 7
BITMAP
FF80
FF80
ENDCHAR
STARTCHAR hyphen.dup6
ENCODING 8209
SWIDTH 424 0
DWIDTH 14 0
BBX 9 2 2 7
BITMAP
FF80
FF80
ENDCHAR
STARTCHAR figuredash
ENCODING 8210
SWIDTH 580 0
DWIDTH 19 0
BBX 16 2 1 7
BITMAP
FFFF
FFFF
ENDCHAR
STARTCHAR endash
ENCODING 8211
SWIDTH 500 0
DWIDTH 16 0
BBX 16 2 0 7
BITMAP
FFFF
FFFF
ENDCHAR
STARTCHAR emdash
ENCODING 8212
SWIDTH 1000 0
DWIDTH 32 0
BBX 32 2 0 7
BITMAP
FFFFFFFF
FFFFFFFF
ENDCHAR
STARTCHAR emdash.dup7
ENCODING 8213
SWIDTH 1000 0
DWIDTH 32 0
BBX 32 2 0 7
BITMAP
FFFFFFFF
FFFFFFFF
ENDCHAR
STARTCHAR quoteleft
ENCODING 8216
SWIDTH 248 0
DWIDTH 8 0
BBX 5 9 2 15
BITMAP
38
30
70
70
60
60
E0
E0
E0
ENDCHAR
STARTCHAR quoteright
ENCODING 8217
SWIDTH 248 0
DWIDTH 8 0
BBX 5 9 1 15
BITMAP
38
38
30
30
70
70
60
60
E0
ENDCHAR
STARTCHAR quotesinglbase
ENCODING 8218
SWIDTH 248 0
DWIDTH 8 0
BBX 5 9 1 -5
BITMAP
38
38
30
30
30
70
60
60
E0
ENDCHAR
STARTCHAR quotedblleft
ENCODING 8220
SWIDTH 433 0
DWIDTH 14 0
BBX 10 9 2 15
BITMAP
38C0
30C0
71C0
71C0
6180
6380
E380
E380
E380
ENDCHAR
STARTCHAR quotedblright
ENCODING 8221
SWIDTH 433 0
DWIDTH 14 0
BBX 11 9 1 15
BITMAP
38E0
38E0
30C0
30C0
71C0
71C0
6180
6180
E380
ENDCHAR
STARTCHAR quotedblbase
ENCODING 8222
SWIDTH 433 0
DWIDTH 14 0
BBX 11 9 1 -5
BITMAP
38E0
38E0
30C0
30C0
31C0
71C0
6180
6180
E380
ENDCHAR
STARTCHAR dagger
ENCODING 8224
SWIDTH 454 0
DWIDTH 15 0
BBX 11 22 2 0
BITMAP
0E00
0C00
0C00
0C00
0C00
FFE0
FFE0
0C00
0C00
0C00
0C00
0C00
0C00
0C00
0C00
0C00
0C00
0C00
0C00
0E00
0E00
0E00
ENDCHAR
STARTCHAR daggerdbl
ENCODING 8225
SWIDTH 466 0
DWIDTH 15 0
BBX 10 22 2 0
BITMAP
0E00
0E00
0E00
0E00
0E00
FFC0
FFC0
0C00
0E00
0E00
0E00
0E00
0E00
0C00
0C00
FFC0
FFC0
0C00
0E00
0E00
0E00
0E00
ENDCHAR
STARTCHAR bullet
ENCODING 8226
SWIDTH 376 0
DWIDTH 12 0
BBX 8 8 2 7
BITMAP
3C
7E
FF
FF
FF
FF
7E
3C
ENDCHAR
STARTCHAR ellipsis
ENCODING 8230
SWIDTH 1000 0
DWIDTH 32 0
BBX 26 4 3 0
BITMAP
701C0380
F01E03C0
F01E03C0
700C0380
ENDCHAR
STARTCHAR perthousand
ENCODING 8240
SWIDTH 1379 0
DWIDTH 44 0
BBX 40 22 2 0
BITMAP
0F00380000
3F80300000
79C0700000
70E0600000
60E0E00000
60E1C00000
E061800000
E063800000
E0E30F00F8
60E73F81FC
70C639C38E
79CE70E30E
3F8C60E706
0F1C606707
0038E06707
0030E06707
0070606707
006060E706
00E070E30E
00C079C38E
01C03F81FC
01800F00F8
ENDCHAR
STARTCHAR minute
ENCODING 8242
SWIDTH 322 0
DWIDTH 10 0
BBX 4 9 3 13
BITMAP
30
70
70
70
60
60
60
E0
C0
ENDCHAR
STARTCHAR second
ENCODING 8243
SWIDTH 502 0
DWIDTH 16 0
BBX 10 9 3 13
BITMAP
31C0
71C0
71C0
7180
6180
6180
6380
E300
C300
ENDCHAR
STARTCHAR uni2034
ENCODING 8244
SWIDTH 656 0
DWIDTH 21 0
BBX 16 9 2 13
BITMAP
71C7
71C7
71C7
6186
6186
6186
E386
C30E
C30C
ENDCHAR
STARTCHAR uni2035
ENCODING 8245
SWIDTH 276 0
DWIDTH 9 0
BBX 4 9 2 13
BITMAP
E0
60
60
70
70
70
30
30
30
ENDCHAR
STARTCHAR guilsinglleft
ENCODING 8249
SWIDTH 339 0
DWIDTH 11 0
BBX 7 14 2 1
BITMAP
06
0E
1C
38
70
70
E0
E0
E0
70
38
1C
1C
0E
ENDCHAR
STARTCHAR guilsinglright
ENCODING 8250
SWIDTH 339 0
DWIDTH 11 0
BBX 8 14 1 1
BITMAP
E0
70
38
1C
1C
0E
07
07
07
0E
1C
38
30
70
ENDCHAR
STARTCHAR fraction
ENCODING 8260
SWIDTH 170 0
DWIDTH 5 0
BBX 13 22 -4 0
BITMAP
0018
0038
0030
0070
0060
00E0
00C0
01C0
0180
0380
0300
0700
0600
0E00
0C00
1C00
1800
3800
3000
7000
6000
E000
ENDCHAR
STARTCHAR uni2052.tf
ENCODING 8274
SWIDTH 580 0
DWIDTH 19 0
BBX 15 22 2 0
BITMAP
700E
F81C
F81C
F038
6030
0070
00E0
00E0
01C0
0180
0380
0300
0700
0E00
0E00
1C00
1800
3818
703C
703C
E03C
C01C
ENDCHAR
STARTCHAR uni2070
ENCODING 8304
SWIDTH 445 0
DWIDTH 14 0
BBX 10 13 2 12
BITMAP
1E00
7F80
7180
E1C0
C0C0
C0C0
C0C0
C0C0
C0C0
E1C0
7180
7F80
1E00
ENDCHAR
STARTCHAR uni2074
ENCODING 8308
SWIDTH 420 0
DWIDTH 13 0
BBX 11 14 1 12
BITMAP
0180
0380
0780
0580
0D80
1980
3180
3180
6180
FFE0
FFE0
0180
0180
0180
ENDCHAR
STARTCHAR uni2075
ENCODING 8309
SWIDTH 409 0
DWIDTH 13 0
BBX 9 13 2 12
BITMAP
7F80
7F80
6000
6000
6000
7E00
7F80
0380
0180
0180
8380
FF00
7E00
ENDCHAR
STARTCHAR uni2076
ENCODING 8310
SWIDTH 426 0
DWIDTH 14 0
BBX 10 13 2 12
BITMAP
1F80
3F80
7000
E000
C000
CF00
FF80
E1C0
C0C0
E0C0
61C0
7F80
1E00
ENDCHAR
STARTCHAR uni2077
ENCODING 8311
SWIDTH 360 0
DWIDTH 12 0
BBX 10 13 1 12
BITMAP
FFC0
FF80
0380
0300
0300
0700
0600
0E00
0C00
1C00
1800
3800
3000
ENDCHAR
STARTCHAR uni2078
ENCODING 8312
SWIDTH 429 0
DWIDTH 14 0
BBX 10 13 2 12
BITMAP
3F00
7F80
E180
E180
E180
7F00
3F00
6780
C1C0
C0C0
E1C0
7F80
3F00
ENDCHAR
STARTCHAR uni2079
ENCODING 8313
SWIDTH 427 0
DWIDTH 14 0
BBX 10 13 2 12
BITMAP
3E00
7F00
E380
C1C0
C1C0
E1C0
FEC0
3DC0
01C0
0180
0380
FF00
7C00
ENDCHAR
STARTCHAR uni2080
ENCODING 8320
SWIDTH 445 0
DWIDTH 14 0
BBX 10 14 2 -7
BITMAP
1E00
3F80
7380
E1C0
E0C0
C0C0
C0C0
C0C0
C0C0
E0C0
E1C0
7380
3F80
1E00
ENDCHAR
STARTCHAR uni2081
ENCODING 8321
SWIDTH 278 0
DWIDTH 9 0
BBX 7 13 0 -7
BITMAP
0E
3E
FE
4E
0E
0E
0E
0E
0E
0E
0E
0E
0E
ENDCHAR
STARTCHAR uni2082
ENCODING 8322
SWIDTH 390 0
DWIDTH 12 0
BBX 10 14 1 -7
BITMAP
3E00
FF00
4380
0180
0180
0180
0380
0300
0600
0E00
1C00
3800
7FC0
7FC0
ENDCHAR
STARTCHAR uni2083
ENCODING 8323
SWIDTH 405 0
DWIDTH 13 0
BBX 10 14 1 -7
BITMAP
3E00
7F80
4380
01C0
0180
0380
1F00
1F80
01C0
00C0
00C0
41C0
FF80
3F00
ENDCHAR
STARTCHAR uni2084
ENCODING 8324
SWIDTH 420 0
DWIDTH 13 0
BBX 11 13 1 -7
BITMAP
0380
0780
0580
0D80
1980
3180
3180
6180
FFE0
FFE0
0180
0180
0180
ENDCHAR
STARTCHAR uni2085
ENCODING 8325
SWIDTH 409 0
DWIDTH 13 0
BBX 9 13 2 -7
BITMAP
7F80
7F80
6000
6000
6000
7E00
7F80
0380
0180
0180
8380
FF00
7E00
ENDCHAR
STARTCHAR uni2086
ENCODING 8326
SWIDTH 426 0
DWIDTH 14 0
BBX 10 14 2 -7
BITMAP
0F80
3F80
7000
6000
E000
C000
CF00
FF80
E1C0
C0C0
E0C0
61C0
7F80
1E00
ENDCHAR
STARTCHAR uni2087
ENCODING 8327
SWIDTH 360 0
DWIDTH 12 0
BBX 10 13 1 -7
BITMAP
FFC0
FF80
0380
0300
0300
0600
0600
0E00
0C00
1C00
1800
3800
3000
ENDCHAR
STARTCHAR uni2088
ENCODING 8328
SWIDTH 429 0
DWIDTH 14 0
BBX 10 14 2 -7
BITMAP
1E00
7F80
E180
E180
E180
7380
3E00
7F80
E3C0
C1C0
C0C0
E1C0
7F80
3F00
ENDCHAR
STARTCHAR uni2089
ENCODING 8329
SWIDTH 427 0
DWIDTH 14 0
BBX 10 14 2 -7
BITMAP
3E00
7F00
E380
C180
C1C0
C1C0
E3C0
7FC0
3DC0
01C0
0180
0380
FF00
7C00
ENDCHAR
STARTCHAR colonmonetary
ENCODING 8353
SWIDTH 580 0
DWIDTH 19 0
BBX 15 30 2 -4
BITMAP
00D8
00D8
00D8
00D8
03F8
0FFE
1F1E
3C00
7000
7000
E000
E000
E000
E000
C000
C000
E000
E000
E000
E000
7000
7800
3C00
1F0E
0FFE
07F8
0640
06C0
06C0
06C0
ENDCHAR
STARTCHAR franc
ENCODING 8355
SWIDTH 580 0
DWIDTH 19 0
BBX 15 22 2 0
BITMAP
3FFE
3FFE
3800
3800
3800
3800
3800
3800
3800
3800
3FFC
3FFC
3800
3800
3800
FF80
FF80
3800
3800
3800
3800
3800
ENDCHAR
STARTCHAR lira
ENCODING 8356
SWIDTH 580 0
DWIDTH 19 0
BBX 15 22 2 0
BITMAP
01F8
07FC
0F08
1C00
1800
1800
1800
FFF0
FFF0
1800
1800
1800
1800
FFF0
FFF0
1800
1800
3800
3000
E000
FFFE
FFFE
ENDCHAR
STARTCHAR uni20A6
ENCODING 8358
SWIDTH 580 0
DWIDTH 19 0
BBX 17 22 1 0
BITMAP
380E00
3C0E00
3C0E00
3C0E00
3E0E00
360E00
370E00
F30F80
F38F80
338E00
318E00
31CE00
30CE00
F0EF80
F06F80
306E00
307E00
303E00
303E00
301E00
301E00
300E00
ENDCHAR
STARTCHAR peseta
ENCODING 8359
SWIDTH 580 0
DWIDTH 19 0
BBX 17 22 1 0
BITMAP
3FE000
3FF000
387800
381C00
381C00
380E00
F80F80
F80F80
380C00
381C00
381C00
387800
3FF000
3FC000
380000
380000
380000
380000
380000
380000
380000
380000
ENDCHAR
STARTCHAR uni20A9
ENCODING 8361
SWIDTH 580 0
DWIDTH 19 0
BBX 19 22 0 0
BITMAP
60E0C0
60E0C0
60E1C0
60E180
71E180
71E180
31B180
FFFFE0
FFFFE0
313380
313300
3B3300
3B1B00
FB1BE0
FB1BE0
1A1B00
1A1A00
1E1E00
0E0E00
0E0E00
0E0E00
0E0E00
ENDCHAR
STARTCHAR dong
ENCODING 8363
SWIDTH 580 0
DWIDTH 19 0
BBX 15 28 2 -4
BITMAP
0018
0018
0018
0018
01FE
0018
0018
0018
0F98
3FF8
7CF8
7038
E018
E018
C018
C018
C018
C018
E018
E018
7038
7CF8
3FF8
0F98
0000
0000
7FFC
7FFC
ENDCHAR
STARTCHAR Euro
ENCODING 8364
SWIDTH 580 0
DWIDTH 19 0
BBX 18 22 0 0
BITMAP
007F00
01FFC0
03E3C0
070000
0E0000
0E0000
1C0000
FFFF00
FFFF00
180000
180000
180000
180000
FFFF00
FFFF00
1C0000
0E0000
0F0000
078000
03F3C0
01FFC0
007F00
ENDCHAR
STARTCHAR uni20AD
ENCODING 8365
SWIDTH 580 0
DWIDTH 19 0
BBX 16 22 1 0
BITMAP
3807
380E
381C
3838
3838
3870
38E0
39C0
39C0
3B80
FFFE
FFFE
3B80
39C0
38E0
38E0
3870
3838
381C
381C
380E
3807
ENDCHAR
STARTCHAR uni20AE
ENCODING 8366
SWIDTH 580 0
DWIDTH 19 0
BBX 14 22 2 0
BITMAP
FFFC
FFFC
0380
0380
0380
0380
0380
03F8
03F0
07C0
1F80
3B80
23B0
03F8
03E0
0F80
3F80
1380
0380
0380
0380
0380
ENDCHAR
STARTCHAR uni20B1
ENCODING 8369
SWIDTH 580 0
DWIDTH 19 0
BBX 17 22 1 0
BITMAP
3FE000
3FF000
387800
F81F80
F81F80
380E00
380E00
380E00
380E00
F80F80
F81F80
383800
3FF800
3FE000
380000
380000
380000
380000
380000
380000
380000
380000
ENDCHAR
STARTCHAR uni20B2
ENCODING 8370
SWIDTH 580 0
DWIDTH 19 0
BBX 17 30 1 -4
BITMAP
00E000
00E000
00E000
00E000
03F800
0FFF00
1F1E00
3C0000
380000
700000
600000
E00000
E00000
E00000
E00000
E07F80
E07F80
E00380
E00380
E00380
700380
780380
3C0380
1F0F80
0FFE00
03F800
006000
006000
006000
006000
ENDCHAR
STARTCHAR uni20B4
ENCODING 8372
SWIDTH 580 0
DWIDTH 19 0
BBX 17 22 1 0
BITMAP
0FE000
3FF800
1C7C00
001C00
000E00
000E00
000E00
FFFF80
FFFF80
000000
000000
000000
000000
FFFF80
FFFF80
380000
380000
380000
3C0200
1F3E00
0FFE00
03F000
ENDCHAR
STARTCHAR uni20B5
ENCODING 8373
SWIDTH 580 0
DWIDTH 19 0
BBX 15 30 2 -4
BITMAP
00C0
00C0
00C0
00C0
03F8
0FFE
1F1E
3C00
7000
7000
E000
E000
E000
C000
C000
C000
E000
E000
E000
E000
7000
7800
3C00
1F0E
0FFE
03F8
00C0
00C0
00C0
00C0
ENDCHAR
STARTCHAR uni20B8
ENCODING 8376
SWIDTH 580 0
DWIDTH 19 0
BBX 16 22 1 0
BITMAP
FFFF
FFFF
0000
0000
0000
0000
FFFF
FFFF
01C0
01C0
01C0
01C0
01C0
01C0
01C0
01C0
01C0
01C0
01C0
01C0
01C0
01C0
ENDCHAR
STARTCHAR uni20B9
ENCODING 8377
SWIDTH 580 0
DWIDTH 19 0
BBX 15 22 2 0
BITMAP
FFFE
FFFE
01E0
0070
0070
0038
FFFE
FFFE
0030
0070
00F0
FFC0
FF00
0380
0380
01C0
00E0
0070
0070
0038
001C
001E
ENDCHAR
STARTCHAR uni20BA
ENCODING 8378
SWIDTH 580 0
DWIDTH 19 0
BBX 15 22 2 0
BITMAP
1800
1800
1840
19C0
1FC0
1F00
3C00
F800
D8C0
19C0
1F80
1E0E
780E
780C
580C
181C
181C
1838
1870
19E0
1FC0
1F00
ENDCHAR
STARTCHAR uni20BC
ENCODING 8380
SWIDTH 580 0
DWIDTH 19 0
BBX 16 22 1 0
BITMAP
0180
0180
0180
03E0
0FF8
1FFC
399C
318E
7186
6187
6187
6183
6183
E183
E183
E183
E183
E183
E183
E003
E003
E003
ENDCHAR
STARTCHAR uni20BD
ENCODING 8381
SWIDTH 580 0
DWIDTH 19 0
BBX 15 22 2 0
BITMAP
3FE0
3FF8
387C
381C
380E
380E
380E
380E
380E
380C
383C
FFF8
FFE0
3800
3800
3800
3800
FF80
FF80
3800
3800
3800
ENDCHAR
STARTCHAR uni2113
ENCODING 8467
SWIDTH 479 0
DWIDTH 15 0
BBX 11 24 2 0
BITMAP
0380
0FC0
0EE0
0CE0
1CE0
1CE0
1CC0
1CC0
1DC0
1D80
1F80
1F00
1E00
1E00
1C00
1C00
3C00
7C00
FC00
DC00
1C00
0E00
0FC0
03C0
ENDCHAR
STARTCHAR uni2116
ENCODING 8470
SWIDTH 1211 0
DWIDTH 39 0
BBX 34 24 3 0
BITMAP
0000003E00
000000FF00
E000C0C380
F000C181C0
F800C180C0
F800C180C0
DC00C180C0
CE00C180C0
CE00C1C1C0
C700C0C380
C380C0FF00
C380C03E00
C1C0C00000
C0E0C00000
C060C00000
C070C00000
C038C00000
C01CC00000
C01CC00000
C00EC00000
C007C00000
C007C00000
C003C00000
C001C00000
ENDCHAR
STARTCHAR trademark
ENCODING 8482
SWIDTH 806 0
DWIDTH 26 0
BBX 20 10 2 12
BITMAP
FFF030
FFF070
187870
1878F0
186CB0
186DB0
186730
186330
186230
186030
ENDCHAR
STARTCHAR uni2126
ENCODING 8486
SWIDTH 814 0
DWIDTH 26 0
BBX 20 22 3 0
BITMAP
01F800
0FFF00
1F1F80
3C03C0
3801E0
7000E0
600060
E00070
E00070
E00070
E00070
E00070
E00070
600060
7000E0
7000E0
3801C0
380180
1C0380
060600
FF0FF0
FF0FF0
ENDCHAR
STARTCHAR estimated
ENCODING 8494
SWIDTH 821 0
DWIDTH 26 0
BBX 22 22 2 0
BITMAP
00FE00
07C780
0C00E0
180070
300030
700018
700018
70001C
F0001C
F0001C
F0001C
FFFFFC
F00000
F00000
700000
700000
700000
300000
180018
0E0070
07EFC0
01FE00
ENDCHAR
STARTCHAR uni2150
ENCODING 8528
SWIDTH 808 0
DWIDTH 26 0
BBX 25 22 0 0
BITMAP
0000C000
1E01C000
7E018000
FE038000
4E030000
0E070000
0E060000
0E0E0000
0E0C0000
0E1DFF80
0E19FF80
0E380300
0E300700
0E700600
00600E00
00E00C00
00C01C00
01C01800
01803800
03003000
03007000
06006000
ENDCHAR
STARTCHAR uni2151
ENCODING 8529
SWIDTH 875 0
DWIDTH 28 0
BBX 26 22 0 0
BITMAP
0000C000
0E01C000
3E018000
FE038000
4E030000
0E070000
0E060000
0E0E0000
0E0C0000
0E1C1E00
0E187F80
0E38E380
0E30C1C0
0E70C0C0
0060E1C0
00E07FC0
00C03CC0
01C001C0
018001C0
03000380
03007F00
0600FE00
ENDCHAR
STARTCHAR uni2152
ENCODING 8530
SWIDTH 1171 0
DWIDTH 37 0
BBX 36 22 0 0
BITMAP
0000C00000
0E01C00000
3E01800000
FE03800000
4E03000000
0E07000000
0E06000000
0E0E000000
0E0C000000
0E1C180F80
0E18781FC0
0E39F838E0
0E31987060
0E70187060
0060186070
00E0186070
00C0186070
01C0187060
0180187060
03001838E0
0300181FC0
0600180F80
ENDCHAR
STARTCHAR uni2153
ENCODING 8531
SWIDTH 853 0
DWIDTH 27 0
BBX 26 22 0 0
BITMAP
0000C000
0E01C000
3E018000
FE038000
4E030000
0E070000
0E060000
0E0E0000
0E0C0000
0E1C7E00
0E18FF00
0E388380
0E300380
0E700380
00603E00
00E03F00
00C00380
01C001C0
018001C0
03008380
0300FF80
06007E00
ENDCHAR
STARTCHAR uni2154
ENCODING 8532
SWIDTH 965 0
DWIDTH 31 0
BBX 28 22 1 0
BITMAP
3E003800
FF003000
43807000
01806000
0180E000
0180C000
0381C000
03018000
07038000
0E030FC0
1C071FE0
380610E0
7FCE0060
7FCC0060
001C00E0
001807C0
003807F0
00300070
00700030
00600070
00E03FE0
00C01FC0
ENDCHAR
STARTCHAR uni2155
ENCODING 8533
SWIDTH 857 0
DWIDTH 27 0
BBX 26 22 0 0
BITMAP
0000C000
1E01C000
7E018000
FE038000
4E030000
0E070000
0E060000
0E0E0000
0E0C0000
0E1C7F80
0E187F80
0E386000
0E306000
0E706000
00607E00
00E07F80
00C003C0
01C001C0
018001C0
03004380
0300FF80
06007E00
ENDCHAR
STARTCHAR uni2156
ENCODING 8534
SWIDTH 969 0
DWIDTH 31 0
BBX 28 22 1 0
BITMAP
3E003800
FF003000
43807000
01806000
0180E000
0180C000
0381C000
03018000
07038000
0E030FF0
1C070FF0
38060C00
7FCE0C00
7FCC0C00
001C1FC0
00181FF0
00380070
00300030
00700030
00601070
00E01FE0
00C00FC0
ENDCHAR
STARTCHAR uni2157
ENCODING 8535
SWIDTH 984 0
DWIDTH 31 0
BBX 29 22 1 0
BITMAP
3E001800
7F803800
43803000
01C07000
01806000
0380E000
1F00C000
1F81C000
03C18000
00C38FF0
00C30FF0
41C70C00
FF860C00
3F0E0C00
000C0FE0
001C0FF0
00180078
00380038
00300038
00700870
00601FF0
00E00FC0
ENDCHAR
STARTCHAR uni2158
ENCODING 8536
SWIDTH 999 0
DWIDTH 32 0
BBX 29 22 1 0
BITMAP
00001C00
03801800
07803800
05803000
0D807000
19806000
3180E000
3180C000
6181C000
FFE187F8
FFE387F8
01830600
01870600
01860E00
000E0FE0
000C0FF0
001C0038
00180018
00380018
00300838
00700FF0
006007E0
ENDCHAR
STARTCHAR uni2159
ENCODING 8537
SWIDTH 874 0
DWIDTH 28 0
BBX 25 22 1 0
BITMAP
00018000
3C038000
FC030000
DC070000
1C060000
1C0E0000
1C0C0000
1C1C0000
1C181F00
1C387F80
1C30F000
1C70E000
1C60C000
1CE1C000
00C1DE00
01C1BF00
0181C380
0381C180
0301C180
0600E380
06007F00
0C003E00
ENDCHAR
STARTCHAR uni215A
ENCODING 8538
SWIDTH 1005 0
DWIDTH 32 0
BBX 28 22 2 0
BITMAP
00003000
7F803000
7F806000
60006000
6000C000
7E00C000
7F018000
03818000
018303E0
01830FF0
01860E10
E7861C00
FF0C1800
7E0C1800
00183BC0
00183FF0
00303C70
00303830
00601830
00E01C70
00C00FE0
01C007C0
ENDCHAR
STARTCHAR oneeighth
ENCODING 8539
SWIDTH 877 0
DWIDTH 28 0
BBX 26 22 0 0
BITMAP
0000C000
1E01C000
7E018000
EE038000
0E030000
0E070000
0E060000
0E0E0000
0E0C1F00
0E1C7F80
0E1861C0
0E3861C0
0E3061C0
00707380
00603E00
00E03F80
00C063C0
01C0C0C0
0180C0C0
0300E1C0
03007F80
06003F00
ENDCHAR
STARTCHAR threeeighths
ENCODING 8540
SWIDTH 1004 0
DWIDTH 32 0
BBX 29 22 1 0
BITMAP
3E001800
7F803800
43803000
01C07000
01806000
0380E000
1F00C000
1F81C000
01C18000
00C383E0
00C30FF0
41C70C38
FF860C18
3F0E0E30
000C0FE0
001C03E0
00180E78
00381C18
00301C18
00701C18
00600FF8
00E003E0
ENDCHAR
STARTCHAR fiveeighths
ENCODING 8541
SWIDTH 1008 0
DWIDTH 32 0
BBX 29 22 2 0
BITMAP
00003000
7F803000
7F806000
60006000
6000C000
7E00C000
7F018000
03818000
018307C0
01830FE0
01861C70
C3861830
FF0C1830
7E0C1C60
00180FC0
001807E0
00301CF0
00303830
00603838
00E03830
00C01FF0
01C007C0
ENDCHAR
STARTCHAR seveneighths
ENCODING 8542
SWIDTH 959 0
DWIDTH 31 0
BBX 28 22 1 0
BITMAP
00003000
FFC06000
FF806000
0380C000
0300C000
07018000
06018000
0E030000
0C070780
1C061FE0
180E38E0
380C3060
301C3860
00181CE0
00380F80
00301FE0
007038F0
00603070
00E03030
00C03870
01C01FE0
01800FC0
ENDCHAR
STARTCHAR uni215F
ENCODING 8543
SWIDTH 448 0
DWIDTH 14 0
BBX 18 22 0 0
BITMAP
0000C0
1E01C0
7E0180
FE0380
4E0300
0E0700
0E0600
0E0E00
0E0C00
0E1C00
0E1800
0E3800
0E3000
0E7000
006000
00E000
00C000
01C000
018000
030000
030000
060000
ENDCHAR
STARTCHAR uni2189
ENCODING 8585
SWIDTH 1020 0
DWIDTH 33 0
BBX 29 22 2 0
BITMAP
1E001C00
3F801800
73803800
E1C03000
E0C07000
C0C06000
C0C0C000
C0C0C000
C0C18000
C0C187C0
E1C31FF0
71830870
7F860030
1E060030
000C0070
000C03C0
001803F0
00180038
00300018
00301038
00601FF0
00600FC0
ENDCHAR
STARTCHAR arrowleft
ENCODING 8592
SWIDTH 677 0
DWIDTH 22 0
BBX 18 17 2 2
BITMAP
008000
01C000
03C000
070000
0E0000
1C0000
380000
700000
FFFFC0
FFFFC0
700000
380000
1C0000
0F0000
078000
03C000
018000
ENDCHAR
STARTCHAR arrowup
ENCODING 8593
SWIDTH 640 0
DWIDTH 20 0
BBX 17 18 2 1
BITMAP
008000
01C000
03E000
07F000
0FB800
1DBC00
399E00
718F00
E18780
418300
018000
018000
018000
018000
018000
018000
018000
018000
ENDCHAR
STARTCHAR arrowright
ENCODING 8594
SWIDTH 677 0
DWIDTH 22 0
BBX 18 16 2 2
BITMAP
00C000
00E000
007000
003C00
001E00
000700
000380
FFFFC0
FFFF80
000300
000E00
001C00
003800
007000
00E000
00C000
ENDCHAR
STARTCHAR arrowdown
ENCODING 8595
SWIDTH 640 0
DWIDTH 20 0
BBX 16 18 2 1
BITMAP
0180
0180
0180
0180
0180
0180
0180
0180
C183
E187
718E
399C
1DB8
0FF0
07E0
03E0
01C0
0080
ENDCHAR
STARTCHAR partialdiff
ENCODING 8706
SWIDTH 639 0
DWIDTH 20 0
BBX 16 22 2 0
BITMAP
0FE0
3FF0
3C78
001C
000E
000E
000E
0006
0007
0FE7
1FF7
383F
701F
6006
E006
E006
E00E
E00C
701C
7838
3FF0
0FE0
ENDCHAR
STARTCHAR emptyset
ENCODING 8709
SWIDTH 719 0
DWIDTH 23 0
BBX 17 20 3 1
BITMAP
000700
07F600
1FFC00
3E3E00
701F00
603700
E07380
C06380
C0E180
C1C180
C18180
C38180
E70180
E60380
FE0700
7C0F00
3E3E00
3FFC00
77F000
200000
ENDCHAR
STARTCHAR uni2206
ENCODING 8710
SWIDTH 686 0
DWIDTH 22 0
BBX 18 22 2 0
BITMAP
01E000
01E000
01E000
037000
033000
073800
063800
061800
0E1C00
0C1C00
0C0C00
1C0E00
180E00
180600
380700
300700
700380
600380
600180
E001C0
FFFFC0
FFFFC0
ENDCHAR
STARTCHAR product
ENCODING 8719
SWIDTH 720 0
DWIDTH 23 0
BBX 17 25 3 -3
BITMAP
FFFF80
FFFF80
E00380
E00380
E00380
E00380
E00380
E00380
E00380
E00380
E00380
E00380
E00380
E00380
E00380
E00380
E00380
E00380
E00380
E00380
E00380
E00380
E00380
E00380
E00380
ENDCHAR
STARTCHAR summation
ENCODING 8721
SWIDTH 641 0
DWIDTH 21 0
BBX 16 25 2 -3
BITMAP
FFFF
FFFF
7000
3000
3800
1C00
0E00
0700
0380
01C0
00E0
00E0
0070
00F0
00E0
01C0
0380
0700
0E00
1C00
3800
3000
7000
FFFF
FFFF
ENDCHAR
STARTCHAR minus
ENCODING 8722
SWIDTH 580 0
DWIDTH 19 0
BBX 15 2 2 10
BITMAP
FFFE
FFFE
ENDCHAR
STARTCHAR uni2215.tf
ENCODING 8725
SWIDTH 580 0
DWIDTH 19 0
BBX 11 22 4 0
BITMAP
00E0
00C0
00C0
01C0
0180
0380
0300
0700
0700
0600
0E00
0C00
1C00
1800
1800
3800
3000
7000
6000
6000
C000
C000
ENDCHAR
STARTCHAR uni2219.tf
ENCODING 8729
SWIDTH 256 0
DWIDTH 8 0
BBX 4 4 2 9
BITMAP
60
F0
F0
70
ENDCHAR
STARTCHAR radical
ENCODING 8730
SWIDTH 576 0
DWIDTH 18 0
BBX 14 26 2 -2
BITMAP
001C
001C
001C
001C
0018
0018
0018
0038
0038
0038
0030
0030
0030
0070
FC70
FC60
0C60
0E60
0E60
06E0
07C0
07C0
03C0
03C0
01C0
01C0
ENDCHAR
STARTCHAR infinity
ENCODING 8734
SWIDTH 948 0
DWIDTH 30 0
BBX 24 12 3 5
BITMAP
1F00F8
3FC1FE
79E38E
E07707
E07E07
E03C03
E03C03
E03E03
E07E07
71E78F
7FC3FE
1F00FC
ENDCHAR
STARTCHAR integral
ENCODING 8747
SWIDTH 407 0
DWIDTH 13 0
BBX 9 29 2 -5
BITMAP
0F00
1F80
3900
7000
7000
7000
7000
7000
7000
3000
3800
3800
3800
1C00
1C00
1C00
0C00
0E00
0E00
0600
0700
0700
0700
0700
0300
0700
0700
7E00
FC00
ENDCHAR
STARTCHAR uni2236
ENCODING 8758
SWIDTH 256 0
DWIDTH 8 0
BBX 4 16 2 3
BITMAP
60
F0
F0
70
00
00
00
00
00
00
00
00
60
F0
F0
70
ENDCHAR
STARTCHAR approxequal
ENCODING 8776
SWIDTH 580 0
DWIDTH 19 0
BBX 15 13 2 4
BITMAP
1C04
7F06
FFDC
C1FC
80F0
0000
0000
0000
3C04
7F0E
FFDC
C1FC
0070
ENDCHAR
STARTCHAR notequal
ENCODING 8800
SWIDTH 580 0
DWIDTH 19 0
BBX 15 18 2 2
BITMAP
0020
0030
0030
0060
FFFE
FFFE
00C0
0180
0180
0300
0300
0600
FFFE
FFFE
0C00
1800
1800
3000
ENDCHAR
STARTCHAR equivalence
ENCODING 8801
SWIDTH 580 0
DWIDTH 19 0
BBX 15 13 2 4
BITMAP
FFFE
FFFE
0000
0000
0000
FFFE
FFFE
0000
0000
0000
0000
FFFE
FFFE
ENDCHAR
STARTCHAR uni2262.tf
ENCODING 8802
SWIDTH 580 0
DWIDTH 19 0
BBX 15 19 2 1
BITMAP
0018
0030
0030
FFFE
FFFE
00C0
00C0
0180
FFFE
FFFE
0300
0600
0600
0C00
FFFE
FFFE
1800
3000
3000
ENDCHAR
STARTCHAR lessequal
ENCODING 8804
SWIDTH 580 0
DWIDTH 19 0
BBX 15 18 2 1
BITMAP
0006
001E
00FC
03F0
1F80
7C00
F000
F800
3E00
0FC0
01F0
007E
000E
0002
0000
0000
FFFC
FFFC
ENDCHAR
STARTCHAR greaterequal
ENCODING 8805
SWIDTH 580 0
DWIDTH 19 0
BBX 15 18 2 1
BITMAP
C000
F000
FC00
1F80
07E0
00FC
001E
003E
01F8
07C0
3F00
F800
E000
0000
0000
0000
FFFE
FFFE
ENDCHAR
STARTCHAR uni2423
ENCODING 9251
SWIDTH 750 0
DWIDTH 24 0
BBX 18 5 3 0
BITMAP
C000C0
C000C0
C000C0
FFFFC0
FFFFC0
ENDCHAR
STARTCHAR lozenge
ENCODING 9674
SWIDTH 569 0
DWIDTH 18 0
BBX 14 22 2 0
BITMAP
0700
0780
0F80
0DC0
1CE0
1860
3870
3030
7038
601C
E01C
E01C
6018
7038
3070
3870
18E0
1CC0
0DC0
0F80
0780
0700
ENDCHAR
STARTCHAR circle
ENCODING 9675
SWIDTH 662 0
DWIDTH 21 0
BBX 15 15 3 4
BITMAP
07E0
1FF0
3C7C
701C
E00E
E00E
C006
C006
C006
E006
E00E
701C
783C
3FF8
0FE0
ENDCHAR
STARTCHAR uni25CF
ENCODING 9679
SWIDTH 655 0
DWIDTH 21 0
BBX 15 15 3 4
BITMAP
07C0
1FF0
3FF8
7FFC
FFFE
FFFE
FFFE
FFFE
FFFE
FFFE
FFFE
7FFC
7FFC
3FF8
0FE0
ENDCHAR
STARTCHAR uni27E8
ENCODING 10216
SWIDTH 327 0
DWIDTH 10 0
BBX 8 24 1 0
BITMAP
07
06
0E
0E
1C
1C
18
38
30
70
60
E0
60
70
70
38
38
18
1C
1C
0E
0E
07
07
ENDCHAR
STARTCHAR uni27E9
ENCODING 10217
SWIDTH 329 0
DWIDTH 11 0
BBX 8 24 1 0
BITMAP
E0
70
70
38
38
1C
1C
0C
0E
0E
07
07
07
07
0E
0E
0C
1C
18
38
38
70
70
60
ENDCHAR
STARTCHAR uniA78B
ENCODING 42891
SWIDTH 274 0
DWIDTH 9 0
BBX 3 19 3 3
BITMAP
E0
E0
E0
E0
E0
E0
E0
E0
E0
E0
E0
E0
E0
E0
E0
E0
E0
C0
C0
ENDCHAR
STARTCHAR uniA78C
ENCODING 42892
SWIDTH 252 0
DWIDTH 8 0
BBX 2 12 3 10
BITMAP
C0
C0
C0
C0
C0
C0
C0
C0
C0
C0
C0
C0
ENDCHAR
STARTCHAR fi
ENCODING 64257
SWIDTH 586 0
DWIDTH 19 0
BBX 16 24 1 0
BITMAP
07C0
0FC4
1C4F
380F
380E
3800
3800
3800
FFC6
FFC6
3806
3806
3806
3806
3806
3806
3806
3806
3806
3806
3806
3806
3806
3806
ENDCHAR
STARTCHAR fl
ENCODING 64258
SWIDTH 618 0
DWIDTH 20 0
BBX 18 24 1 0
BITMAP
07C600
0FC600
1C4600
380600
380600
380600
380600
380600
FFC600
FFC600
380600
380600
380600
380600
380600
380600
380600
380600
380600
380600
380600
380700
3807C0
3803C0
ENDCHAR
STARTCHAR .notdef
ENCODING -1
SWIDTH 500 0
DWIDTH 16 0
BBX 12 31 2 -7
BITMAP
FFF0
FFF0
8010
8010
8010
8010
8010
8010
8010
8010
8010
8010
8010
8010
8010
8010
8010
8010
8010
8010
8010
8010
8010
8010
8010
8010
8010
8010
8010
FFF0
FFF0
ENDCHAR
STARTCHAR uni00A40301
ENCODING -1
SWIDTH 398 0
DWIDTH 13 0
BBX 13 29 0 0
BITMAP
0010
0038
0078
00E0
00C0
0000
0000
00C0
00C0
00C0
00C0
00C0
00C0
00C0
00C0
00C0
00C0
00C0
00C0
00C0
00C0
00C0
00C0
01C0
01C0
01C0
6780
FF00
3E00
ENDCHAR
STARTCHAR i.loclTRK
ENCODING -1
SWIDTH 246 0
DWIDTH 8 0
BBX 4 23 2 0
BITMAP
60
F0
F0
00
00
00
00
60
60
60
60
60
60
60
60
60
60
60
60
60
60
60
60
ENDCHAR
STARTCHAR uni006A0301
ENCODING -1
SWIDTH 246 0
DWIDTH 8 0
BBX 8 31 0 -7
BITMAP
02
07
07
0E
1C
00
00
00
18
18
18
18
18
18
18
18
18
18
18
18
18
18
18
18
18
18
38
30
70
E0
C0
ENDCHAR
STARTCHAR l.ss01
ENCODING -1
SWIDTH 246 0
DWIDTH 8 0
BBX 2 24 3 0
BITMAP
C0
C0
C0
C0
C0
C0
C0
C0
C0
C0
C0
C0
C0
C0
C0
C0
C0
C0
C0
C0
C0
C0
C0
C0
ENDCHAR
STARTCHAR zero.zero
ENCODING -1
SWIDTH 614 0
DWIDTH 20 0
BBX 16 22 2 0
BITMAP
07E0
1FF0
3C78
381C
701E
601E
E03E
E066
E067
E0C7
E187
E387
E307
E607
EC06
EC06
780E
700E
381C
3E78
1FF0
07C0
ENDCHAR
STARTCHAR zero.osf
ENCODING -1
SWIDTH 612 0
DWIDTH 20 0
BBX 16 20 2 0
BITMAP
07E0
1FF8
3C7C
701C
700E
E00E
E006
E007
E007
C007
C007
E007
E007
E006
E00E
700E
781C
3C78
1FF0
07E0
ENDCHAR
STARTCHAR one.osf
ENCODING -1
SWIDTH 423 0
DWIDTH 14 0
BBX 9 19 1 0
BITMAP
0380
0F80
3F80
FB80
E380
8380
0380
0380
0380
0380
0380
0380
0380
0380
0380
0380
0380
0380
0380
ENDCHAR
STARTCHAR two.osf
ENCODING -1
SWIDTH 522 0
DWIDTH 17 0
BBX 14 19 1 0
BITMAP
1FC0
7FF0
E078
0038
0018
0018
0018
0038
0030
0070
00E0
01C0
0380
0700
0E00
1C00
7800
FFFC
FFFC
ENDCHAR
STARTCHAR three.osf
ENCODING -1
SWIDTH 557 0
DWIDTH 18 0
BBX 15 22 1 -3
BITMAP
1FE0
7FF0
7078
001C
001C
001C
001C
001C
0038
00F0
0FC0
0FF0
007C
001E
000E
0006
0006
0006
000E
F03C
FFF8
1FE0
ENDCHAR
ENDFONT
